<?xml version="1.0" encoding="UTF-8"?>
<!DOCTYPE svg PUBLIC "-//W3C//DTD SVG 1.1//EN" "http://www.w3.org/Graphics/SVG/1.1/DTD/svg11.dtd">
<svg xmlns="http://www.w3.org/2000/svg" version="1.1" width="996px" height="558px" style="shape-rendering:geometricPrecision; text-rendering:geometricPrecision; image-rendering:optimizeQuality; fill-rule:evenodd; clip-rule:evenodd" xmlns:xlink="http://www.w3.org/1999/xlink">
<g><path style="opacity:1" fill="#fcfcfc" d="M -0.5,-0.5 C 331.5,-0.5 663.5,-0.5 995.5,-0.5C 995.5,185.5 995.5,371.5 995.5,557.5C 663.5,557.5 331.5,557.5 -0.5,557.5C -0.5,371.5 -0.5,185.5 -0.5,-0.5 Z"/></g>
<g><path style="opacity:1" fill="#fbf1e2" d="M 415.5,98.5 C 414.508,98.6716 413.842,98.3382 413.5,97.5C 415.47,94.6869 418.137,93.5202 421.5,94C 423.996,95.0804 426.33,96.4138 428.5,98C 424.179,98.499 419.846,98.6657 415.5,98.5 Z"/></g>
<g><path style="opacity:1" fill="#c19c7f" d="M 456.5,97.5 C 456.5,97.8333 456.5,98.1667 456.5,98.5C 442.657,98.9408 428.991,98.9408 415.5,98.5C 419.846,98.6657 424.179,98.499 428.5,98C 426.33,96.4138 423.996,95.0804 421.5,94C 418.137,93.5202 415.47,94.6869 413.5,97.5C 412.508,97.6716 411.842,97.3382 411.5,96.5C 414.026,94.0683 417.026,92.4017 420.5,91.5C 424.491,92.6519 428.158,94.4852 431.5,97C 439.827,97.4997 448.16,97.6664 456.5,97.5 Z"/></g>
<g><path style="opacity:1" fill="#b7805a" d="M 411.5,96.5 C 411.842,97.3382 412.508,97.6716 413.5,97.5C 413.842,98.3382 414.508,98.6716 415.5,98.5C 428.991,98.9408 442.657,98.9408 456.5,98.5C 444.862,100.4 432.862,101.734 420.5,102.5C 416.419,102.468 412.419,102.135 408.5,101.5C 400.657,100.833 392.657,100.167 384.5,99.5C 392.657,98.8333 400.657,98.1666 408.5,97.5C 409.609,97.4431 410.609,97.1098 411.5,96.5 Z"/></g>
<g><path style="opacity:1" fill="#efd1bc" d="M 408.5,97.5 C 400.657,98.1666 392.657,98.8333 384.5,99.5C 392.657,100.167 400.657,100.833 408.5,101.5C 400.167,101.5 391.833,101.5 383.5,101.5C 383.5,100.5 383.5,99.5 383.5,98.5C 391.65,97.5073 399.983,97.1739 408.5,97.5 Z"/></g>
<g><path style="opacity:1" fill="#cba983" d="M 532.5,101.5 C 539.648,100.508 546.981,100.175 554.5,100.5C 554.5,102.167 554.5,103.833 554.5,105.5C 552.708,105.366 551.042,105.699 549.5,106.5C 549.5,106.167 549.5,105.833 549.5,105.5C 549.5,104.167 549.5,102.833 549.5,101.5C 543.833,101.5 538.167,101.5 532.5,101.5 Z"/></g>
<g><path style="opacity:1" fill="#b58053" d="M 486.5,95.5 C 486.5,97.8333 486.5,100.167 486.5,102.5C 483.428,102.183 480.428,102.516 477.5,103.5C 479.282,104.984 481.282,105.984 483.5,106.5C 479.781,105.772 476.781,106.772 474.5,109.5C 473.167,105.833 473.167,102.167 474.5,98.5C 477.899,100.312 481.566,100.979 485.5,100.5C 485.216,98.5853 485.549,96.9187 486.5,95.5 Z"/></g>
<g><path style="opacity:1" fill="#bd7b44" d="M 486.5,95.5 C 487.5,95.5 488.5,95.5 489.5,95.5C 489.5,97.1667 489.5,98.8333 489.5,100.5C 499.655,100.092 509.655,101.092 519.5,103.5C 523.903,103.076 528.237,102.409 532.5,101.5C 538.167,101.5 543.833,101.5 549.5,101.5C 549.5,102.833 549.5,104.167 549.5,105.5C 548.167,105.5 546.833,105.5 545.5,105.5C 543.527,104.837 541.361,104.504 539,104.5C 532.607,106.015 526.107,107.015 519.5,107.5C 514.738,107.155 510.071,106.322 505.5,105C 500.494,104.15 495.661,104.65 491,106.5C 490.506,108.134 490.34,109.801 490.5,111.5C 490.5,112.167 490.5,112.833 490.5,113.5C 489.539,115.265 489.205,117.265 489.5,119.5C 488.667,162.998 488.167,206.665 488,250.5C 487.828,205.762 487.328,161.096 486.5,116.5C 486.08,112.993 485.08,109.659 483.5,106.5C 481.282,105.984 479.282,104.984 477.5,103.5C 480.428,102.516 483.428,102.183 486.5,102.5C 486.5,100.167 486.5,97.8333 486.5,95.5 Z"/></g>
<g><path style="opacity:1" fill="#edeff4" d="M 456.5,97.5 C 460.455,98.1499 464.122,99.4832 467.5,101.5C 467.667,141.501 467.5,181.501 467,221.5C 436.907,222.495 406.74,222.829 376.5,222.5C 376.5,182.5 376.5,142.5 376.5,102.5C 376.5,101.833 376.167,101.5 375.5,101.5C 377.902,100.007 380.569,99.0075 383.5,98.5C 383.5,99.5 383.5,100.5 383.5,101.5C 391.833,101.5 400.167,101.5 408.5,101.5C 412.419,102.135 416.419,102.468 420.5,102.5C 432.862,101.734 444.862,100.4 456.5,98.5C 456.5,98.1667 456.5,97.8333 456.5,97.5 Z"/></g>
<g><path style="opacity:1" fill="#b18156" d="M 545.5,105.5 C 536.755,106.889 527.921,107.889 519,108.5C 510.226,107.133 501.392,106.633 492.5,107C 491.901,108.622 491.234,110.122 490.5,111.5C 490.34,109.801 490.506,108.134 491,106.5C 495.661,104.65 500.494,104.15 505.5,105C 510.071,106.322 514.738,107.155 519.5,107.5C 526.107,107.015 532.607,106.015 539,104.5C 541.361,104.504 543.527,104.837 545.5,105.5 Z"/></g>
<g><path style="opacity:1" fill="#888282" d="M 545.5,105.5 C 546.833,105.5 548.167,105.5 549.5,105.5C 549.5,105.833 549.5,106.167 549.5,106.5C 551.007,111.023 552.674,115.523 554.5,120C 554.333,120.5 554.167,121 554,121.5C 552.472,118.583 551.139,115.583 550,112.5C 549.346,111.304 548.846,111.304 548.5,112.5C 550.539,130.781 552.206,149.114 553.5,167.5C 552.833,167.5 552.167,167.5 551.5,167.5C 550.332,148.814 548.832,130.147 547,111.5C 541.252,130.241 535.419,148.908 529.5,167.5C 529.167,167.5 528.833,167.5 528.5,167.5C 533.315,149.885 538.648,132.385 544.5,115C 544.333,114.5 544.167,114 544,113.5C 542.96,116.823 541.46,119.823 539.5,122.5C 541.221,116.726 543.221,111.06 545.5,105.5 Z"/></g>
<g><path style="opacity:1" fill="#fbfafa" d="M 551.5,167.5 C 544.167,167.5 536.833,167.5 529.5,167.5C 535.419,148.908 541.252,130.241 547,111.5C 548.832,130.147 550.332,148.814 551.5,167.5 Z"/></g>
<g><path style="opacity:1" fill="#bb8a61" d="M 486.5,116.5 C 487.328,161.096 487.828,205.762 488,250.5C 488.167,206.665 488.667,162.998 489.5,119.5C 489.5,164.5 489.5,209.5 489.5,254.5C 488.5,254.5 487.5,254.5 486.5,254.5C 486.832,209.33 486.499,164.33 485.5,119.5C 485.263,118.209 485.596,117.209 486.5,116.5 Z"/></g>
<g><path style="opacity:1" fill="#f9efde" d="M 490.5,113.5 C 490.172,160.905 490.505,208.239 491.5,255.5C 489.5,255.5 487.5,255.5 485.5,255.5C 485.5,210.167 485.5,164.833 485.5,119.5C 486.499,164.33 486.832,209.33 486.5,254.5C 487.5,254.5 488.5,254.5 489.5,254.5C 489.5,209.5 489.5,164.5 489.5,119.5C 489.205,117.265 489.539,115.265 490.5,113.5 Z"/></g>
<g><path style="opacity:1" fill="#8c8b8b" d="M 561.5,138.5 C 558.912,134.902 557.412,130.902 557,126.5C 559.002,130.342 560.502,134.342 561.5,138.5 Z"/></g>
<g><path style="opacity:1" fill="#898687" d="M 539.5,122.5 C 539.035,126.062 537.868,129.395 536,132.5C 535.877,128.701 537.044,125.367 539.5,122.5 Z"/></g>
<g><path style="opacity:1" fill="#888686" d="M 522.5,166.5 C 522.167,166.5 521.833,166.5 521.5,166.5C 524.837,156.659 528.671,146.992 533,137.5C 530.415,147.416 526.915,157.083 522.5,166.5 Z"/></g>
<g><path style="opacity:1" fill="#868686" d="M 561.5,138.5 C 564.628,143.767 566.961,149.434 568.5,155.5C 565.372,150.233 563.039,144.566 561.5,138.5 Z"/></g>
<g><path style="opacity:1" fill="#d1cecf" d="M 375.5,101.5 C 376.167,101.5 376.5,101.833 376.5,102.5C 375.501,142.663 375.168,182.997 375.5,223.5C 374.167,182.833 374.167,142.167 375.5,101.5 Z"/></g>
<g><path style="opacity:1" fill="#a5a2a6" d="M 467.5,101.5 C 468.499,141.997 468.832,182.663 468.5,223.5C 437.5,223.5 406.5,223.5 375.5,223.5C 375.168,182.997 375.501,142.663 376.5,102.5C 376.5,142.5 376.5,182.5 376.5,222.5C 406.74,222.829 436.907,222.495 467,221.5C 467.5,181.501 467.667,141.501 467.5,101.5 Z"/></g>
<g><path style="opacity:1" fill="#898585" d="M 568.5,155.5 C 570.931,159.111 572.597,163.111 573.5,167.5C 573.167,167.5 572.833,167.5 572.5,167.5C 570.965,163.562 569.632,159.562 568.5,155.5 Z"/></g>
<g><path style="opacity:1" fill="#bb856b" d="M 521.5,166.5 C 521.833,166.5 522.167,166.5 522.5,166.5C 524.265,167.461 526.265,167.795 528.5,167.5C 528.833,167.5 529.167,167.5 529.5,167.5C 536.833,167.5 544.167,167.5 551.5,167.5C 552.167,167.5 552.833,167.5 553.5,167.5C 559.833,167.5 566.167,167.5 572.5,167.5C 572.833,167.5 573.167,167.5 573.5,167.5C 575.167,167.5 576.833,167.5 578.5,167.5C 578.256,170.263 576.923,172.429 574.5,174C 571.589,175.761 568.589,177.261 565.5,178.5C 567.785,176.882 569.785,174.882 571.5,172.5C 572.689,171.571 574.022,171.238 575.5,171.5C 575.5,170.5 575.5,169.5 575.5,168.5C 557.155,168.167 538.821,168.5 520.5,169.5C 520.863,170.183 521.196,170.85 521.5,171.5C 521.5,172.167 521.5,172.833 521.5,173.5C 520.778,173.082 520.278,172.416 520,171.5C 519.722,172.416 519.222,173.082 518.5,173.5C 518.167,171.5 517.833,169.5 517.5,167.5C 518.959,167.567 520.292,167.234 521.5,166.5 Z"/></g>
<g><path style="opacity:1" fill="#be724d" d="M 565.5,178.5 C 564.391,179.29 563.058,179.79 561.5,180C 552.833,180.667 544.167,180.667 535.5,180C 529.942,178.603 525.275,175.77 521.5,171.5C 521.196,170.85 520.863,170.183 520.5,169.5C 538.821,168.5 557.155,168.167 575.5,168.5C 575.5,169.5 575.5,170.5 575.5,171.5C 574.022,171.238 572.689,171.571 571.5,172.5C 569.785,174.882 567.785,176.882 565.5,178.5 Z"/></g>
<g><path style="opacity:1" fill="#8a4639" d="M 305.5,178.5 C 306.457,185.732 307.29,193.066 308,200.5C 307.5,201.5 307,202.5 306.5,203.5C 303.729,204.217 301.063,204.551 298.5,204.5C 300.071,206.415 302.071,207.415 304.5,207.5C 303.354,214.909 299.354,216.576 292.5,212.5C 291.817,212.863 291.15,213.196 290.5,213.5C 289.211,212.363 288.211,211.03 287.5,209.5C 286.746,205.436 285.246,201.77 283,198.5C 282.228,198.645 281.561,198.978 281,199.5C 280.503,202.146 280.336,204.813 280.5,207.5C 279.167,207.5 277.833,207.5 276.5,207.5C 276.739,205.533 276.406,203.699 275.5,202C 276.665,198.634 278.499,196.468 281,195.5C 282.906,190.567 285.073,185.901 287.5,181.5C 291.533,181.409 293.2,179.576 292.5,176C 296.089,174.312 299.756,174.145 303.5,175.5C 303.285,177.179 303.952,178.179 305.5,178.5 Z"/></g>
<g><path style="opacity:1" fill="#888483" d="M 521.5,173.5 C 524.392,179.284 526.725,185.284 528.5,191.5C 526.17,188.173 524.337,184.507 523,180.5C 524.583,192.148 526.416,203.815 528.5,215.5C 527.833,215.5 527.167,215.5 526.5,215.5C 524.875,202.086 522.709,188.752 520,175.5C 516.786,186.393 513.286,197.06 509.5,207.5C 511.114,199.153 513.448,190.987 516.5,183C 516.333,182.5 516.167,182 516,181.5C 515.392,183.066 514.558,184.4 513.5,185.5C 515.122,181.524 516.789,177.524 518.5,173.5C 519.222,173.082 519.722,172.416 520,171.5C 520.278,172.416 520.778,173.082 521.5,173.5 Z"/></g>
<g><path style="opacity:1" fill="#fbf9f9" d="M 526.5,215.5 C 520.158,215.666 513.825,215.5 507.5,215C 508.867,212.699 509.534,210.199 509.5,207.5C 513.286,197.06 516.786,186.393 520,175.5C 522.709,188.752 524.875,202.086 526.5,215.5 Z"/></g>
<g><path style="opacity:1" fill="#291d25" d="M 303.5,171.5 C 303.5,171.833 303.5,172.167 303.5,172.5C 290.867,169.055 283.7,173.721 282,186.5C 277.357,187.573 273.191,186.573 269.5,183.5C 267.533,187.963 267.033,192.63 268,197.5C 269,198.167 270,198.833 271,199.5C 271.497,202.146 271.664,204.813 271.5,207.5C 271.5,208.5 271.5,209.5 271.5,210.5C 268.246,210.206 265.579,208.873 263.5,206.5C 263.217,205.711 262.717,205.044 262,204.5C 261.503,207.146 261.336,209.813 261.5,212.5C 261.138,216.259 259.805,219.593 257.5,222.5C 255.691,223.481 254.357,224.981 253.5,227C 249.848,227.499 246.182,227.665 242.5,227.5C 236.897,227.444 233.064,224.777 231,219.5C 227.107,203.069 233.107,192.069 249,186.5C 251.498,186.917 253.998,187.251 256.5,187.5C 255.589,176.157 260.255,167.99 270.5,163C 280.594,160.259 290.261,161.259 299.5,166C 301.464,167.451 302.797,169.284 303.5,171.5 Z"/></g>
<g><path style="opacity:1" fill="#888686" d="M 513.5,185.5 C 512.649,189.535 510.983,193.202 508.5,196.5C 509.376,192.418 511.043,188.751 513.5,185.5 Z"/></g>
<g><path style="opacity:1" fill="#351a1e" d="M 303.5,172.5 C 299.316,173.166 294.982,173.833 290.5,174.5C 287.028,179.949 283.695,185.449 280.5,191C 277.393,189.984 274.06,189.484 270.5,189.5C 270.695,194.399 271.695,199.066 273.5,203.5C 273.415,205.333 272.748,206.666 271.5,207.5C 271.664,204.813 271.497,202.146 271,199.5C 270,198.833 269,198.167 268,197.5C 267.033,192.63 267.533,187.963 269.5,183.5C 273.191,186.573 277.357,187.573 282,186.5C 283.7,173.721 290.867,169.055 303.5,172.5 Z"/></g>
<g><path style="opacity:1" fill="#898989" d="M 528.5,191.5 C 530.931,195.111 532.597,199.111 533.5,203.5C 531.069,199.889 529.403,195.889 528.5,191.5 Z"/></g>
<g><path style="opacity:1" fill="#85463d" d="M 303.5,171.5 C 304.612,173.599 305.279,175.933 305.5,178.5C 303.952,178.179 303.285,177.179 303.5,175.5C 299.756,174.145 296.089,174.312 292.5,176C 293.2,179.576 291.533,181.409 287.5,181.5C 285.073,185.901 282.906,190.567 281,195.5C 278.499,196.468 276.665,198.634 275.5,202C 276.406,203.699 276.739,205.533 276.5,207.5C 277.833,207.5 279.167,207.5 280.5,207.5C 280.336,204.813 280.503,202.146 281,199.5C 281.561,198.978 282.228,198.645 283,198.5C 285.246,201.77 286.746,205.436 287.5,209.5C 285.61,209.703 284.11,209.037 283,207.5C 284.067,211.429 286.234,214.762 289.5,217.5C 289.782,220.605 290.782,223.438 292.5,226C 292.612,227.662 291.946,228.829 290.5,229.5C 284.191,225.025 278.025,220.359 272,215.5C 271.506,213.866 271.34,212.199 271.5,210.5C 271.5,209.5 271.5,208.5 271.5,207.5C 272.748,206.666 273.415,205.333 273.5,203.5C 271.695,199.066 270.695,194.399 270.5,189.5C 274.06,189.484 277.393,189.984 280.5,191C 283.695,185.449 287.028,179.949 290.5,174.5C 294.982,173.833 299.316,173.166 303.5,172.5C 303.5,172.167 303.5,171.833 303.5,171.5 Z"/></g>
<g><path style="opacity:1" fill="#8c8a88" d="M 508.5,196.5 C 506.577,202.353 504.077,208.02 501,213.5C 502.388,207.386 504.888,201.719 508.5,196.5 Z"/></g>
<g><path style="opacity:1" fill="#7f787b" d="M 263.5,206.5 C 262.833,208.5 262.167,210.5 261.5,212.5C 261.336,209.813 261.503,207.146 262,204.5C 262.717,205.044 263.217,205.711 263.5,206.5 Z"/></g>
<g><path style="opacity:1" fill="#f9f8f8" d="M 528.5,191.5 C 529.403,195.889 531.069,199.889 533.5,203.5C 534.632,207.562 535.965,211.562 537.5,215.5C 534.5,215.5 531.5,215.5 528.5,215.5C 526.416,203.815 524.583,192.148 523,180.5C 524.337,184.507 526.17,188.173 528.5,191.5 Z"/></g>
<g><path style="opacity:1" fill="#8e8b8a" d="M 533.5,203.5 C 535.931,207.111 537.597,211.111 538.5,215.5C 538.167,215.5 537.833,215.5 537.5,215.5C 535.965,211.562 534.632,207.562 533.5,203.5 Z"/></g>
<g><path style="opacity:1" fill="#4c251e" d="M 287.5,209.5 C 288.211,211.03 289.211,212.363 290.5,213.5C 290.567,214.959 290.234,216.292 289.5,217.5C 286.234,214.762 284.067,211.429 283,207.5C 284.11,209.037 285.61,209.703 287.5,209.5 Z"/></g>
<g><path style="opacity:1" fill="#2b2029" d="M 705.5,227.5 C 705.632,230.57 705.299,233.57 704.5,236.5C 701.061,236.212 697.728,235.546 694.5,234.5C 693.152,233.814 691.985,232.814 691,231.5C 690,234.167 689,234.167 688,231.5C 687.667,232.167 687.333,232.833 687,233.5C 686.768,232.263 686.268,231.263 685.5,230.5C 684.599,229.71 683.932,228.71 683.5,227.5C 682.632,223.192 682.466,218.859 683,214.5C 685.67,213.776 687.17,212.109 687.5,209.5C 689.609,205.315 688.609,202.315 684.5,200.5C 683.817,200.863 683.15,201.196 682.5,201.5C 681.609,202.11 680.609,202.443 679.5,202.5C 677.757,199.25 675.423,196.416 672.5,194C 668.591,192.218 665.258,189.718 662.5,186.5C 661.311,185.571 659.978,185.238 658.5,185.5C 656.5,185.833 654.5,186.167 652.5,186.5C 649.729,196.291 648.896,206.291 650,216.5C 651.391,219.336 653.224,221.669 655.5,223.5C 657.142,225.081 659.142,225.747 661.5,225.5C 662.833,227.167 662.833,228.833 661.5,230.5C 659.827,231.343 658.66,232.676 658,234.5C 657.5,242.159 657.334,249.826 657.5,257.5C 657.362,267.854 657.695,278.188 658.5,288.5C 651.465,288.674 644.465,288.341 637.5,287.5C 638.714,281.549 639.714,275.549 640.5,269.5C 641.5,269.5 642.5,269.5 643.5,269.5C 643.451,275.424 644.618,281.09 647,286.5C 649.381,287.435 651.881,287.768 654.5,287.5C 654.855,273.763 654.188,260.096 652.5,246.5C 652.539,243.113 652.872,239.78 653.5,236.5C 650.357,235.757 647.357,235.424 644.5,235.5C 643.489,233.598 643.322,231.598 644,229.5C 645.908,226.785 647.241,223.785 648,220.5C 648.452,213.161 648.286,205.828 647.5,198.5C 647.058,186.097 653.058,178.931 665.5,177C 679.563,174.446 689.397,179.612 695,192.5C 696.812,204.76 700.312,216.427 705.5,227.5 Z"/></g>
<g><path style="opacity:1" fill="#e08164" d="M 679.5,202.5 C 680.609,202.443 681.609,202.11 682.5,201.5C 682.721,202.735 683.388,203.735 684.5,204.5C 682.5,205.167 680.5,205.833 678.5,206.5C 680.078,207.298 681.744,207.798 683.5,208C 682.069,208.465 680.903,209.299 680,210.5C 679.667,216.167 679.333,221.833 679,227.5C 676.31,230.449 673.143,231.449 669.5,230.5C 670.63,229.378 671.297,228.044 671.5,226.5C 671.414,225.504 671.748,224.671 672.5,224C 672,223.833 671.5,223.667 671,223.5C 668.032,225.078 664.865,225.745 661.5,225.5C 659.142,225.747 657.142,225.081 655.5,223.5C 655.5,222.833 655.5,222.167 655.5,221.5C 657.292,220.691 659.292,220.191 661.5,220C 662.167,219.333 662.833,218.667 663.5,218C 661.893,217.885 660.393,218.385 659,219.5C 658.5,219.333 658,219.167 657.5,219C 658.672,218.581 659.672,217.915 660.5,217C 658.975,215.991 657.308,215.491 655.5,215.5C 655.649,216.552 655.483,217.552 655,218.5C 653.78,215.789 652.947,212.956 652.5,210C 653.089,202.758 654.089,195.592 655.5,188.5C 657.512,187.986 659.512,187.82 661.5,188C 663.563,190.061 665.23,192.394 666.5,195C 664.715,196.163 662.715,196.83 660.5,197C 659.5,197.833 658.5,198.667 657.5,199.5C 659.655,201.829 662.322,202.662 665.5,202C 667.057,199.704 668.724,197.538 670.5,195.5C 672.216,199.52 675.216,201.854 679.5,202.5 Z"/></g>
<g><path style="opacity:1" fill="#d08777" d="M 655.5,188.5 C 654.089,195.592 653.089,202.758 652.5,210C 652.947,212.956 653.78,215.789 655,218.5C 655.483,217.552 655.649,216.552 655.5,215.5C 657.308,215.491 658.975,215.991 660.5,217C 659.672,217.915 658.672,218.581 657.5,219C 658,219.167 658.5,219.333 659,219.5C 660.393,218.385 661.893,217.885 663.5,218C 662.833,218.667 662.167,219.333 661.5,220C 659.292,220.191 657.292,220.691 655.5,221.5C 651.114,216.319 650.114,210.652 652.5,204.5C 652.013,203.554 651.68,202.554 651.5,201.5C 652.163,198.194 652.663,194.861 653,191.5C 653.377,190.058 654.21,189.058 655.5,188.5 Z"/></g>
<g><path style="opacity:1" fill="#d4806b" d="M 658.5,185.5 C 659.978,185.238 661.311,185.571 662.5,186.5C 665.258,189.718 668.591,192.218 672.5,194C 675.423,196.416 677.757,199.25 679.5,202.5C 675.216,201.854 672.216,199.52 670.5,195.5C 668.724,197.538 667.057,199.704 665.5,202C 662.322,202.662 659.655,201.829 657.5,199.5C 658.5,198.667 659.5,197.833 660.5,197C 662.715,196.83 664.715,196.163 666.5,195C 665.23,192.394 663.563,190.061 661.5,188C 659.512,187.82 657.512,187.986 655.5,188.5C 656.306,187.272 657.306,186.272 658.5,185.5 Z"/></g>
<g><path style="opacity:1" fill="#dabc9d" d="M 509.5,207.5 C 509.534,210.199 508.867,212.699 507.5,215C 513.825,215.5 520.158,215.666 526.5,215.5C 527.167,215.5 527.833,215.5 528.5,215.5C 531.5,215.5 534.5,215.5 537.5,215.5C 525.5,216.833 513.5,216.833 501.5,215.5C 503.167,215.5 504.833,215.5 506.5,215.5C 506.733,212.458 507.733,209.792 509.5,207.5 Z"/></g>
<g><path style="opacity:1" fill="#3a1a19" d="M 658.5,185.5 C 657.306,186.272 656.306,187.272 655.5,188.5C 654.21,189.058 653.377,190.058 653,191.5C 652.663,194.861 652.163,198.194 651.5,201.5C 651.68,202.554 652.013,203.554 652.5,204.5C 650.114,210.652 651.114,216.319 655.5,221.5C 655.5,222.167 655.5,222.833 655.5,223.5C 653.224,221.669 651.391,219.336 650,216.5C 648.896,206.291 649.729,196.291 652.5,186.5C 654.5,186.167 656.5,185.833 658.5,185.5 Z"/></g>
<g><path style="opacity:1" fill="#cf8e55" d="M 501.5,215.5 C 513.5,216.833 525.5,216.833 537.5,215.5C 537.833,215.5 538.167,215.5 538.5,215.5C 539.766,216.09 541.099,216.59 542.5,217C 541.5,219.333 539.833,221 537.5,222C 526.573,223.597 515.573,223.931 504.5,223C 501.268,221.77 498.601,219.77 496.5,217C 497.905,215.731 499.571,215.231 501.5,215.5 Z"/></g>
<g><path style="opacity:1" fill="#47201e" d="M 687.5,209.5 C 687.17,212.109 685.67,213.776 683,214.5C 682.466,218.859 682.632,223.192 683.5,227.5C 683.167,227.5 682.833,227.5 682.5,227.5C 678.886,219.951 680.552,213.951 687.5,209.5 Z"/></g>
<g><path style="opacity:1" fill="#423e4d" d="M 311.5,259.5 C 310.883,259.611 310.383,259.944 310,260.5C 309.88,269.495 310.047,278.495 310.5,287.5C 314.371,287.815 318.038,287.482 321.5,286.5C 325.258,286.848 328.924,287.515 332.5,288.5C 332.736,291.609 332.403,294.609 331.5,297.5C 331.167,297.5 330.833,297.5 330.5,297.5C 303.833,297.5 277.167,297.5 250.5,297.5C 250.833,296.833 251.167,296.167 251.5,295.5C 251.666,288.159 251.5,280.826 251,273.5C 244.88,262.132 243.213,250.132 246,237.5C 246.75,236.874 247.584,236.374 248.5,236C 247.402,235.23 247.402,234.397 248.5,233.5C 249.153,232.193 249.82,230.86 250.5,229.5C 247.694,228.832 245.028,228.166 242.5,227.5C 246.182,227.665 249.848,227.499 253.5,227C 254.357,224.981 255.691,223.481 257.5,222.5C 259.747,222.085 261.914,221.418 264,220.5C 265.107,220.585 266.107,220.919 267,221.5C 275.081,235.997 283.414,250.331 292,264.5C 292.609,271.189 292.443,277.856 291.5,284.5C 293.884,284.443 296.218,284.777 298.5,285.5C 300.029,285.471 301.196,284.804 302,283.5C 305.602,276.421 306.268,269.088 304,261.5C 300,254.833 296,248.167 292,241.5C 291.333,238.5 291.333,235.5 292,232.5C 292.388,231.572 293.055,230.905 294,230.5C 295.3,231.452 296.467,231.452 297.5,230.5C 294.294,224.485 295.127,223.485 300,227.5C 306.116,237.348 309.949,248.015 311.5,259.5 Z"/></g>
<g><path style="opacity:1" fill="#77464e" d="M 671.5,226.5 C 668.482,228.526 665.482,230.526 662.5,232.5C 662.672,231.508 662.338,230.842 661.5,230.5C 662.833,228.833 662.833,227.167 661.5,225.5C 664.865,225.745 668.032,225.078 671,223.5C 671.5,223.667 672,223.833 672.5,224C 671.748,224.671 671.414,225.504 671.5,226.5 Z"/></g>
<g><path style="opacity:1" fill="#d88670" d="M 687.5,209.5 C 680.552,213.951 678.886,219.951 682.5,227.5C 677.268,232.037 671.435,235.704 665,238.5C 664.228,238.355 663.561,238.022 663,237.5C 662.506,235.866 662.34,234.199 662.5,232.5C 665.482,230.526 668.482,228.526 671.5,226.5C 671.297,228.044 670.63,229.378 669.5,230.5C 673.143,231.449 676.31,230.449 679,227.5C 679.333,221.833 679.667,216.167 680,210.5C 680.903,209.299 682.069,208.465 683.5,208C 681.744,207.798 680.078,207.298 678.5,206.5C 680.5,205.833 682.5,205.167 684.5,204.5C 683.388,203.735 682.721,202.735 682.5,201.5C 683.15,201.196 683.817,200.863 684.5,200.5C 688.609,202.315 689.609,205.315 687.5,209.5 Z"/></g>
<g><path style="opacity:1" fill="#3c3846" d="M 694.5,234.5 C 697.728,235.546 701.061,236.212 704.5,236.5C 705.635,238.213 707.302,238.88 709.5,238.5C 713.338,239.346 715.838,241.679 717,245.5C 721.131,259.358 724.631,273.358 727.5,287.5C 725.031,288.317 722.365,288.817 719.5,289C 718.199,290.616 718.199,292.116 719.5,293.5C 719.5,294.167 719.833,294.5 720.5,294.5C 720.5,295.5 720.5,296.5 720.5,297.5C 703.423,297.818 686.423,297.485 669.5,296.5C 669.657,295.127 669.49,293.793 669,292.5C 667.624,291.295 666.458,289.962 665.5,288.5C 665.833,287.833 666.167,287.167 666.5,286.5C 668.833,286.5 671.167,286.5 673.5,286.5C 675.288,287.622 677.288,287.789 679.5,287C 687.496,285.616 694.996,283.116 702,279.5C 701.308,274.746 699.975,270.079 698,265.5C 697.503,262.854 697.336,260.187 697.5,257.5C 696.5,257.5 695.5,257.5 694.5,257.5C 693.909,265.232 692.909,272.898 691.5,280.5C 688.112,282.518 684.446,283.518 680.5,283.5C 681.953,272.431 684.786,261.764 689,251.5C 689.497,248.854 689.664,246.187 689.5,243.5C 690.833,243.5 692.167,243.5 693.5,243.5C 693.726,240.751 693.393,238.084 692.5,235.5C 692.957,234.702 693.624,234.369 694.5,234.5 Z"/></g>
<g><path style="opacity:1" fill="#b9b5b9" d="M 705.5,227.5 C 706.479,230.625 706.813,233.958 706.5,237.5C 707.791,237.263 708.791,237.596 709.5,238.5C 707.302,238.88 705.635,238.213 704.5,236.5C 705.299,233.57 705.632,230.57 705.5,227.5 Z"/></g>
<g><path style="opacity:1" fill="#f0edf1" d="M 682.5,227.5 C 682.833,227.5 683.167,227.5 683.5,227.5C 683.932,228.71 684.599,229.71 685.5,230.5C 682.984,241.577 680.151,252.577 677,263.5C 675.351,271.239 674.185,278.906 673.5,286.5C 671.167,286.5 668.833,286.5 666.5,286.5C 664.178,272.387 664.012,258.387 666,244.5C 665.193,240.603 663.526,239.937 661,242.5C 659.796,246.716 659.13,251.049 659,255.5C 658.722,256.416 658.222,257.082 657.5,257.5C 657.334,249.826 657.5,242.159 658,234.5C 658.66,232.676 659.827,231.343 661.5,230.5C 662.338,230.842 662.672,231.508 662.5,232.5C 662.34,234.199 662.506,235.866 663,237.5C 663.561,238.022 664.228,238.355 665,238.5C 671.435,235.704 677.268,232.037 682.5,227.5 Z"/></g>
<g><path style="opacity:1" fill="#575362" d="M 180.5,234.5 C 202.994,233.503 225.661,233.169 248.5,233.5C 247.402,234.397 247.402,235.23 248.5,236C 247.584,236.374 246.75,236.874 246,237.5C 243.213,250.132 244.88,262.132 251,273.5C 251.5,280.826 251.666,288.159 251.5,295.5C 236.424,296.14 221.59,295.474 207,293.5C 205.556,295.155 203.722,295.822 201.5,295.5C 200.321,286.737 198.655,278.07 196.5,269.5C 195.953,262.837 195.453,256.17 195,249.5C 194.578,247.574 193.411,246.574 191.5,246.5C 191.823,242.774 191.489,239.107 190.5,235.5C 187.916,234.607 185.249,234.274 182.5,234.5C 181.833,234.5 181.167,234.5 180.5,234.5 Z"/></g>
<g><path style="opacity:1" fill="#3d5168" d="M 511.5,246.5 C 524.833,246.5 538.167,246.5 551.5,246.5C 551.5,258.167 551.5,269.833 551.5,281.5C 538.167,281.5 524.833,281.5 511.5,281.5C 511.5,269.833 511.5,258.167 511.5,246.5 Z"/></g>
<g><path style="opacity:1" fill="#2c2834" d="M 685.5,230.5 C 686.268,231.263 686.768,232.263 687,233.5C 687.333,232.833 687.667,232.167 688,231.5C 689,234.167 690,234.167 691,231.5C 691.985,232.814 693.152,233.814 694.5,234.5C 693.624,234.369 692.957,234.702 692.5,235.5C 693.393,238.084 693.726,240.751 693.5,243.5C 692.167,243.5 690.833,243.5 689.5,243.5C 689.664,246.187 689.497,248.854 689,251.5C 684.786,261.764 681.953,272.431 680.5,283.5C 684.446,283.518 688.112,282.518 691.5,280.5C 692.909,272.898 693.909,265.232 694.5,257.5C 695.5,257.5 696.5,257.5 697.5,257.5C 697.336,260.187 697.503,262.854 698,265.5C 699.975,270.079 701.308,274.746 702,279.5C 694.996,283.116 687.496,285.616 679.5,287C 677.288,287.789 675.288,287.622 673.5,286.5C 674.185,278.906 675.351,271.239 677,263.5C 680.151,252.577 682.984,241.577 685.5,230.5 Z"/></g>
<g><path style="opacity:1" fill="#251f2a" d="M 620.5,285.5 C 621.835,288.207 623.169,290.874 624.5,293.5C 635.167,294.167 645.833,294.833 656.5,295.5C 656.5,295.833 656.5,296.167 656.5,296.5C 629.241,297.491 601.907,297.824 574.5,297.5C 574.5,296.833 574.167,296.5 573.5,296.5C 567.872,279.978 562.872,263.311 558.5,246.5C 574.519,245.799 590.519,245.299 606.5,245C 607.333,245.833 608.167,246.667 609,247.5C 612.564,260.282 616.397,272.949 620.5,285.5 Z"/></g>
<g><path style="opacity:1" fill="#403b49" d="M 644.5,235.5 C 647.357,235.424 650.357,235.757 653.5,236.5C 652.872,239.78 652.539,243.113 652.5,246.5C 654.188,260.096 654.855,273.763 654.5,287.5C 651.881,287.768 649.381,287.435 647,286.5C 644.618,281.09 643.451,275.424 643.5,269.5C 642.5,269.5 641.5,269.5 640.5,269.5C 639.714,275.549 638.714,281.549 637.5,287.5C 634.146,287.747 631.146,288.747 628.5,290.5C 626.368,290.554 625.035,291.554 624.5,293.5C 623.169,290.874 621.835,288.207 620.5,285.5C 623.389,282.744 625.556,279.411 627,275.5C 632.588,261.998 638.421,248.664 644.5,235.5 Z"/></g>
<g><path style="opacity:1" fill="#edf1f9" d="M 528.5,256.5 C 528.5,263.5 528.5,270.5 528.5,277.5C 526.167,277.5 523.833,277.5 521.5,277.5C 521.5,270.167 521.5,262.833 521.5,255.5C 524.059,255.198 526.393,255.532 528.5,256.5 Z"/></g>
<g><path style="opacity:1" fill="#dbe0ea" d="M 545.5,277.5 C 543.5,277.5 541.5,277.5 539.5,277.5C 539.5,270.167 539.5,262.833 539.5,255.5C 541.833,255.5 544.167,255.5 546.5,255.5C 546.825,263.019 546.492,270.352 545.5,277.5 Z"/></g>
<g><path style="opacity:1" fill="#f6eddc" d="M 746.5,249.5 C 747.18,254.048 748.18,258.548 749.5,263C 748.463,269.184 747.297,275.351 746,281.5C 745.5,272.84 745.334,264.173 745.5,255.5C 744.5,255.5 743.5,255.5 742.5,255.5C 743.209,254.596 744.209,254.263 745.5,254.5C 745.216,252.585 745.549,250.919 746.5,249.5 Z"/></g>
<g><path style="opacity:1" fill="#c5a98c" d="M 756.5,255.5 C 754.396,255.201 752.396,255.534 750.5,256.5C 751.738,259.384 753.072,262.217 754.5,265C 754.348,267.649 753.348,269.816 751.5,271.5C 749.689,279.08 748.355,286.746 747.5,294.5C 745.833,294.5 744.167,294.5 742.5,294.5C 742.5,292.833 742.5,291.167 742.5,289.5C 742.833,289.5 743.167,289.5 743.5,289.5C 744.544,281.45 744.877,271.45 744.5,259.5C 744.154,258.304 743.654,258.304 743,259.5C 742.51,258.207 742.343,256.873 742.5,255.5C 743.5,255.5 744.5,255.5 745.5,255.5C 745.334,264.173 745.5,272.84 746,281.5C 747.297,275.351 748.463,269.184 749.5,263C 748.18,258.548 747.18,254.048 746.5,249.5C 746.183,246.428 746.516,243.428 747.5,240.5C 750.164,242.726 753.164,244.392 756.5,245.5C 754.041,246.643 751.707,246.31 749.5,244.5C 747.64,251.309 750.307,253.976 757.5,252.5C 757.737,253.791 757.404,254.791 756.5,255.5 Z"/></g>
<g><path style="opacity:1" fill="#593232" d="M 180.5,234.5 C 181.167,234.5 181.833,234.5 182.5,234.5C 184.255,237.009 185.755,239.676 187,242.5C 191.171,269.862 195.671,297.195 200.5,324.5C 200.61,326.374 199.944,327.874 198.5,329C 196.047,329.959 193.714,331.126 191.5,332.5C 190.428,326.139 189.094,319.806 187.5,313.5C 186.117,302.594 184.117,291.927 181.5,281.5C 179.307,267.988 176.974,254.488 174.5,241C 174.609,237.059 176.609,234.892 180.5,234.5 Z"/></g>
<g><path style="opacity:1" fill="#d9c7af" d="M 742.5,255.5 C 742.343,256.873 742.51,258.207 743,259.5C 743.654,258.304 744.154,258.304 744.5,259.5C 744.877,271.45 744.544,281.45 743.5,289.5C 743.666,282.492 743.5,275.492 743,268.5C 740.906,273.642 738.74,278.642 736.5,283.5C 735.661,284.641 734.994,285.974 734.5,287.5C 733.675,288.386 732.675,288.719 731.5,288.5C 735.395,277.482 739.062,266.482 742.5,255.5 Z"/></g>
<g><path style="opacity:1" fill="#323a4a" d="M 468.5,297.5 C 454.088,297.816 439.755,297.482 425.5,296.5C 425.5,287.167 425.5,277.833 425.5,268.5C 439.833,268.5 454.167,268.5 468.5,268.5C 468.5,278.167 468.5,287.833 468.5,297.5 Z"/></g>
<g><path style="opacity:1" fill="#e3b16b" d="M 495.5,257.5 C 496.434,258.568 496.768,259.901 496.5,261.5C 496.666,268.841 496.5,276.174 496,283.5C 493.281,284.444 490.448,284.777 487.5,284.5C 487.334,276.826 487.5,269.159 488,261.5C 490.381,260.565 492.881,260.232 495.5,260.5C 495.5,259.5 495.5,258.5 495.5,257.5 Z"/></g>
<g><path style="opacity:1" fill="#e6e9f1" d="M 537.5,256.5 C 537.5,263.5 537.5,270.5 537.5,277.5C 535.05,277.702 532.717,277.369 530.5,276.5C 530.5,269.5 530.5,262.5 530.5,255.5C 533.059,255.198 535.393,255.532 537.5,256.5 Z"/></g>
<g><path style="opacity:1" fill="#d8b582" d="M 496.5,261.5 C 498.468,269.433 499.135,277.766 498.5,286.5C 492.167,286.5 485.833,286.5 479.5,286.5C 479.5,286.167 479.5,285.833 479.5,285.5C 482.385,285.806 485.052,285.473 487.5,284.5C 490.448,284.777 493.281,284.444 496,283.5C 496.5,276.174 496.666,268.841 496.5,261.5 Z"/></g>
<g><path style="opacity:1" fill="#decdb8" d="M 756.5,255.5 C 755.074,260.563 755.241,265.563 757,270.5C 760.194,275.554 762.861,280.888 765,286.5C 766.444,288.155 768.278,288.822 770.5,288.5C 764.69,289.49 758.69,289.823 752.5,289.5C 754.948,288.527 757.615,288.194 760.5,288.5C 758.629,283.085 756.462,277.752 754,272.5C 753.329,271.748 752.496,271.414 751.5,271.5C 753.348,269.816 754.348,267.649 754.5,265C 753.072,262.217 751.738,259.384 750.5,256.5C 752.396,255.534 754.396,255.201 756.5,255.5 Z"/></g>
<g><path style="opacity:1" fill="#59575d" d="M 365.5,273.5 C 365.5,274.167 365.167,274.5 364.5,274.5C 362.076,274.192 359.743,274.526 357.5,275.5C 358.193,276.518 358.859,277.518 359.5,278.5C 359.5,279.833 359.5,281.167 359.5,282.5C 358.5,282.5 357.5,282.5 356.5,282.5C 356.869,280.007 356.203,279.34 354.5,280.5C 354.232,277.881 354.565,275.381 355.5,273C 358.746,273.317 362.08,273.483 365.5,273.5 Z"/></g>
<g><path style="opacity:1" fill="#ad4041" d="M 666.5,286.5 C 666.167,287.167 665.833,287.833 665.5,288.5C 664.833,288.5 664.167,288.5 663.5,288.5C 661.833,288.5 660.167,288.5 658.5,288.5C 657.695,278.188 657.362,267.854 657.5,257.5C 658.222,257.082 658.722,256.416 659,255.5C 659.13,251.049 659.796,246.716 661,242.5C 663.526,239.937 665.193,240.603 666,244.5C 664.012,258.387 664.178,272.387 666.5,286.5 Z"/></g>
<g><path style="opacity:1" fill="#2e303d" d="M 829.5,211.5 C 832.353,213.015 834.019,215.348 834.5,218.5C 826.865,248.373 819.865,278.373 813.5,308.5C 815.352,318.225 817.518,327.892 820,337.5C 822.886,352.958 819.386,366.625 809.5,378.5C 809.772,376.389 810.105,374.223 810.5,372C 809.475,369.929 808.642,367.762 808,365.5C 807.292,364.619 806.458,363.953 805.5,363.5C 806.683,356.405 807.683,349.238 808.5,342C 807.863,330.421 805.363,319.255 801,308.5C 800.333,305.167 800.333,301.833 801,298.5C 807.535,272.559 813.868,246.559 820,220.5C 820.584,214.6 823.75,211.6 829.5,211.5 Z"/></g>
<g><path style="opacity:1" fill="#d4cfd8" d="M 364.5,274.5 C 363.415,276.587 361.749,277.92 359.5,278.5C 358.859,277.518 358.193,276.518 357.5,275.5C 359.743,274.526 362.076,274.192 364.5,274.5 Z"/></g>
<g><path style="opacity:1" fill="#d9d7e4" d="M 407.5,274.5 C 406.659,276.379 406.325,278.379 406.5,280.5C 392.151,280.833 377.818,280.499 363.5,279.5C 364.032,277.259 365.365,275.759 367.5,275C 380.829,274.5 394.163,274.333 407.5,274.5 Z"/></g>
<g><path style="opacity:1" fill="#fbfaf3" d="M 743.5,289.5 C 743.167,289.5 742.833,289.5 742.5,289.5C 740.369,288.686 738.036,288.186 735.5,288C 736.38,286.644 736.714,285.144 736.5,283.5C 738.74,278.642 740.906,273.642 743,268.5C 743.5,275.492 743.666,282.492 743.5,289.5 Z"/></g>
<g><path style="opacity:1" fill="#fbf9f1" d="M 751.5,271.5 C 752.496,271.414 753.329,271.748 754,272.5C 756.462,277.752 758.629,283.085 760.5,288.5C 757.615,288.194 754.948,288.527 752.5,289.5C 751.539,291.265 751.205,293.265 751.5,295.5C 750.041,295.567 748.708,295.234 747.5,294.5C 748.355,286.746 749.689,279.08 751.5,271.5 Z"/></g>
<g><path style="opacity:1" fill="#98989d" d="M 352.5,280.5 C 351.508,280.328 350.842,280.662 350.5,281.5C 348.076,281.808 345.743,281.474 343.5,280.5C 346.645,279.197 349.645,279.197 352.5,280.5 Z"/></g>
<g><path style="opacity:1" fill="#c58b51" d="M 485.5,255.5 C 487.5,255.5 489.5,255.5 491.5,255.5C 493.483,255.157 494.817,255.824 495.5,257.5C 495.5,258.5 495.5,259.5 495.5,260.5C 492.881,260.232 490.381,260.565 488,261.5C 487.5,269.159 487.334,276.826 487.5,284.5C 485.052,285.473 482.385,285.806 479.5,285.5C 479.334,275.476 479.668,265.476 480.5,255.5C 482.167,255.5 483.833,255.5 485.5,255.5 Z"/></g>
<g><path style="opacity:1" fill="#596c7d" d="M 528.5,256.5 C 529.133,263.74 529.799,270.407 530.5,276.5C 532.717,277.369 535.05,277.702 537.5,277.5C 537.5,270.5 537.5,263.5 537.5,256.5C 538.167,263.5 538.833,270.5 539.5,277.5C 541.5,277.5 543.5,277.5 545.5,277.5C 544.048,278.302 542.382,278.802 540.5,279C 541.5,279.333 542.5,279.667 543.5,280C 535.85,280.833 528.517,280 521.5,277.5C 523.833,277.5 526.167,277.5 528.5,277.5C 528.5,270.5 528.5,263.5 528.5,256.5 Z"/></g>
<g><path style="opacity:1" fill="#272330" d="M 311.5,259.5 C 313.967,267.292 316.133,275.292 318,283.5C 318.422,285.426 319.589,286.426 321.5,286.5C 318.038,287.482 314.371,287.815 310.5,287.5C 310.047,278.495 309.88,269.495 310,260.5C 310.383,259.944 310.883,259.611 311.5,259.5 Z"/></g>
<g><path style="opacity:1" fill="#6f6f74" d="M 407.5,280.5 C 409.604,280.201 411.604,280.534 413.5,281.5C 405.193,282.498 396.86,282.831 388.5,282.5C 394.833,281.833 401.167,281.167 407.5,280.5 Z"/></g>
<g><path style="opacity:1" fill="#35313f" d="M 365.5,273.5 C 382.863,273.148 396.863,273.481 407.5,274.5C 394.163,274.333 380.829,274.5 367.5,275C 365.365,275.759 364.032,277.259 363.5,279.5C 377.818,280.499 392.151,280.833 406.5,280.5C 406.833,280.5 407.167,280.5 407.5,280.5C 401.167,281.167 394.833,281.833 388.5,282.5C 384.767,282.87 381.101,283.537 377.5,284.5C 377.5,285.833 377.5,287.167 377.5,288.5C 387.506,288.334 397.506,288.5 407.5,289C 408.938,289.219 410.271,289.719 411.5,290.5C 411.167,290.833 410.833,291.167 410.5,291.5C 408.885,290.846 407.218,290.346 405.5,290C 395.5,289.333 385.5,289.333 375.5,290C 374.177,290.816 373.511,291.983 373.5,293.5C 373.5,294.167 373.5,294.833 373.5,295.5C 368.807,297.36 363.807,298.026 358.5,297.5C 358.6,294.222 359.1,290.889 360,287.5C 356.861,285.85 353.694,284.517 350.5,283.5C 350.5,282.833 350.5,282.167 350.5,281.5C 350.842,280.662 351.508,280.328 352.5,280.5C 353.167,280.5 353.833,280.5 354.5,280.5C 356.203,279.34 356.869,280.007 356.5,282.5C 357.5,282.5 358.5,282.5 359.5,282.5C 359.5,281.167 359.5,279.833 359.5,278.5C 361.749,277.92 363.415,276.587 364.5,274.5C 365.167,274.5 365.5,274.167 365.5,273.5 Z"/></g>
<g><path style="opacity:1" fill="#76696b" d="M 511.5,246.5 C 511.5,258.167 511.5,269.833 511.5,281.5C 511.5,286.833 511.5,292.167 511.5,297.5C 510.833,297.5 510.167,297.5 509.5,297.5C 510.153,280.402 510.82,263.402 511.5,246.5 Z"/></g>
<g><path style="opacity:1" fill="#884136" d="M 345.5,297.5 C 340.833,297.5 336.167,297.5 331.5,297.5C 332.403,294.609 332.736,291.609 332.5,288.5C 333.833,288.167 335.167,287.833 336.5,287.5C 341.725,286.062 347.058,285.562 352.5,286C 359.103,289.228 358.769,290.394 351.5,289.5C 351.5,291.5 351.5,293.5 351.5,295.5C 348.918,295.025 346.918,295.692 345.5,297.5 Z"/></g>
<g><path style="opacity:1" fill="#c27c6a" d="M 637.5,287.5 C 644.465,288.341 651.465,288.674 658.5,288.5C 660.167,288.5 661.833,288.5 663.5,288.5C 662.396,290.389 661.063,292.055 659.5,293.5C 659.5,292.5 659.5,291.5 659.5,290.5C 649.147,289.52 638.814,289.52 628.5,290.5C 631.146,288.747 634.146,287.747 637.5,287.5 Z"/></g>
<g><path style="opacity:1" fill="#b79071" d="M 736.5,283.5 C 736.714,285.144 736.38,286.644 735.5,288C 738.036,288.186 740.369,288.686 742.5,289.5C 738.818,289.335 735.152,289.501 731.5,290C 730.272,291.49 730.272,292.99 731.5,294.5C 730.167,294.5 728.833,294.5 727.5,294.5C 728.234,293.292 728.567,291.959 728.5,290.5C 725.5,290.5 722.5,290.5 719.5,290.5C 719.5,291.5 719.5,292.5 719.5,293.5C 718.199,292.116 718.199,290.616 719.5,289C 722.365,288.817 725.031,288.317 727.5,287.5C 728.708,288.234 730.041,288.567 731.5,288.5C 732.675,288.719 733.675,288.386 734.5,287.5C 734.994,285.974 735.661,284.641 736.5,283.5 Z"/></g>
<g><path style="opacity:1" fill="#2e2f3f" d="M 511.5,281.5 C 524.833,281.5 538.167,281.5 551.5,281.5C 551.5,286.833 551.5,292.167 551.5,297.5C 538.167,297.5 524.833,297.5 511.5,297.5C 511.5,292.167 511.5,286.833 511.5,281.5 Z"/></g>
<g><path style="opacity:1" fill="#b28565" d="M 770.5,288.5 C 770.833,288.5 771.167,288.5 771.5,288.5C 774.448,288.223 777.281,288.556 780,289.5C 780.966,292.34 780.133,294.34 777.5,295.5C 776.833,295.5 776.5,295.167 776.5,294.5C 777.234,293.292 777.567,291.959 777.5,290.5C 769.138,290.335 760.805,290.668 752.5,291.5C 752.5,290.833 752.5,290.167 752.5,289.5C 758.69,289.823 764.69,289.49 770.5,288.5 Z"/></g>
<g><path style="opacity:1" fill="#73433d" d="M 350.5,283.5 C 353.694,284.517 356.861,285.85 360,287.5C 359.1,290.889 358.6,294.222 358.5,297.5C 354.167,297.5 349.833,297.5 345.5,297.5C 346.918,295.692 348.918,295.025 351.5,295.5C 351.5,293.5 351.5,291.5 351.5,289.5C 358.769,290.394 359.103,289.228 352.5,286C 347.058,285.562 341.725,286.062 336.5,287.5C 339.102,286.339 341.769,285.172 344.5,284C 346.473,283.505 348.473,283.338 350.5,283.5 Z"/></g>
<g><path style="opacity:1" fill="#33252c" d="M 479.5,286.5 C 485.833,286.5 492.167,286.5 498.5,286.5C 500.098,288.698 501.431,291.031 502.5,293.5C 502.5,294.833 502.5,296.167 502.5,297.5C 493.5,297.5 484.5,297.5 475.5,297.5C 475.337,295.143 475.503,292.81 476,290.5C 477.011,289.663 478.178,289.33 479.5,289.5C 479.5,288.5 479.5,287.5 479.5,286.5 Z"/></g>
<g><path style="opacity:1" fill="#dd7f61" d="M 659.5,293.5 C 659.167,293.5 658.833,293.5 658.5,293.5C 647.167,293.5 635.833,293.5 624.5,293.5C 625.035,291.554 626.368,290.554 628.5,290.5C 638.814,289.52 649.147,289.52 659.5,290.5C 659.5,291.5 659.5,292.5 659.5,293.5 Z"/></g>
<g><path style="opacity:1" fill="#b2703d" d="M 727.5,294.5 C 725.5,294.5 723.5,294.5 721.5,294.5C 721.167,294.5 720.833,294.5 720.5,294.5C 719.833,294.5 719.5,294.167 719.5,293.5C 719.5,292.5 719.5,291.5 719.5,290.5C 722.5,290.5 725.5,290.5 728.5,290.5C 728.567,291.959 728.234,293.292 727.5,294.5 Z"/></g>
<g><path style="opacity:1" fill="#b06a43" d="M 742.5,289.5 C 742.5,291.167 742.5,292.833 742.5,294.5C 738.833,294.5 735.167,294.5 731.5,294.5C 730.272,292.99 730.272,291.49 731.5,290C 735.152,289.501 738.818,289.335 742.5,289.5 Z"/></g>
<g><path style="opacity:1" fill="#c3834a" d="M 776.5,294.5 C 768.5,294.5 760.5,294.5 752.5,294.5C 752.5,293.5 752.5,292.5 752.5,291.5C 760.805,290.668 769.138,290.335 777.5,290.5C 777.567,291.959 777.234,293.292 776.5,294.5 Z"/></g>
<g><path style="opacity:1" fill="#e5d8d9" d="M 181.5,281.5 C 184.117,291.927 186.117,302.594 187.5,313.5C 184.227,309.907 183.227,305.741 184.5,301C 183.137,297.33 182.137,293.497 181.5,289.5C 180.604,290.506 179.938,290.506 179.5,289.5C 180.169,286.803 180.836,284.137 181.5,281.5 Z"/></g>
<g><path style="opacity:1" fill="#6b5e66" d="M 373.5,293.5 C 421.5,294.167 421.5,294.833 373.5,295.5C 373.5,294.833 373.5,294.167 373.5,293.5 Z"/></g>
<g><path style="opacity:1" fill="#87564d" d="M 624.5,293.5 C 635.833,293.5 647.167,293.5 658.5,293.5C 658.167,294.5 657.5,295.167 656.5,295.5C 645.833,294.833 635.167,294.167 624.5,293.5 Z"/></g>
<g><path style="opacity:1" fill="#5f505b" d="M 191.5,246.5 C 193.411,246.574 194.578,247.574 195,249.5C 195.453,256.17 195.953,262.837 196.5,269.5C 198.655,278.07 200.321,286.737 201.5,295.5C 203.722,295.822 205.556,295.155 207,293.5C 221.59,295.474 236.424,296.14 251.5,295.5C 251.167,296.167 250.833,296.833 250.5,297.5C 233.625,297.061 216.959,297.561 200.5,299C 200,298.5 199.5,298 199,297.5C 198.88,290.929 197.713,284.596 195.5,278.5C 194.976,267.686 193.643,257.02 191.5,246.5 Z"/></g>
<g><path style="opacity:1" fill="#f1e7e6" d="M 663.5,288.5 C 664.167,288.5 664.833,288.5 665.5,288.5C 666.458,289.962 667.624,291.295 669,292.5C 669.49,293.793 669.657,295.127 669.5,296.5C 665.167,297.833 660.833,297.833 656.5,296.5C 656.5,296.167 656.5,295.833 656.5,295.5C 657.5,295.167 658.167,294.5 658.5,293.5C 658.833,293.5 659.167,293.5 659.5,293.5C 661.063,292.055 662.396,290.389 663.5,288.5 Z"/></g>
<g><path style="opacity:1" fill="#f4d0a2" d="M 752.5,289.5 C 752.5,290.167 752.5,290.833 752.5,291.5C 752.5,292.5 752.5,293.5 752.5,294.5C 760.5,294.5 768.5,294.5 776.5,294.5C 776.5,295.167 776.833,295.5 777.5,295.5C 777.5,296.167 777.5,296.833 777.5,297.5C 759.167,297.5 740.833,297.5 722.5,297.5C 721.596,296.791 721.263,295.791 721.5,294.5C 723.5,294.5 725.5,294.5 727.5,294.5C 728.833,294.5 730.167,294.5 731.5,294.5C 735.167,294.5 738.833,294.5 742.5,294.5C 744.167,294.5 745.833,294.5 747.5,294.5C 748.708,295.234 750.041,295.567 751.5,295.5C 751.205,293.265 751.539,291.265 752.5,289.5 Z"/></g>
<g><path style="opacity:1" fill="#585057" d="M 774.5,277.5 C 775.012,280.632 775.012,283.965 774.5,287.5C 776.833,287.5 779.167,287.5 781.5,287.5C 781.5,290.5 781.5,293.5 781.5,296.5C 787.667,296.101 793.667,296.768 799.5,298.5C 799.196,304.007 799.196,309.674 799.5,315.5C 795.693,314.774 793.026,316.107 791.5,319.5C 791.615,317.053 792.615,315.053 794.5,313.5C 795.496,313.586 796.329,313.252 797,312.5C 797.678,308.779 797.511,305.112 796.5,301.5C 796.586,300.504 796.252,299.671 795.5,299C 789.452,298.748 783.452,298.248 777.5,297.5C 777.5,296.833 777.5,296.167 777.5,295.5C 780.133,294.34 780.966,292.34 780,289.5C 777.281,288.556 774.448,288.223 771.5,288.5C 772.035,284.691 773.035,281.024 774.5,277.5 Z"/></g>
<g><path style="opacity:1" fill="#7e5d5c" d="M 720.5,294.5 C 720.833,294.5 721.167,294.5 721.5,294.5C 721.263,295.791 721.596,296.791 722.5,297.5C 673.167,298.833 623.833,298.833 574.5,297.5C 601.907,297.824 629.241,297.491 656.5,296.5C 660.833,297.833 665.167,297.833 669.5,296.5C 686.423,297.485 703.423,297.818 720.5,297.5C 720.5,296.5 720.5,295.5 720.5,294.5 Z"/></g>
<g><path style="opacity:1" fill="#916159" d="M 330.5,297.5 C 330.833,297.5 331.167,297.5 331.5,297.5C 336.167,297.5 340.833,297.5 345.5,297.5C 349.833,297.5 354.167,297.5 358.5,297.5C 358.804,298.15 359.137,298.817 359.5,299.5C 307.838,300.5 256.171,300.833 204.5,300.5C 205.263,299.732 206.263,299.232 207.5,299C 248.669,298.833 289.669,298.333 330.5,297.5 Z"/></g>
<g><path style="opacity:1" fill="#93655d" d="M 502.5,293.5 C 503.434,294.568 503.768,295.901 503.5,297.5C 505.5,297.5 507.5,297.5 509.5,297.5C 510.167,297.5 510.833,297.5 511.5,297.5C 524.833,297.5 538.167,297.5 551.5,297.5C 559.019,297.825 566.352,297.492 573.5,296.5C 574.167,296.5 574.5,296.833 574.5,297.5C 623.833,298.833 673.167,298.833 722.5,297.5C 740.833,297.5 759.167,297.5 777.5,297.5C 783.452,298.248 789.452,298.748 795.5,299C 796.252,299.671 796.586,300.504 796.5,301.5C 790.833,301.5 785.167,301.5 779.5,301.5C 643.527,300.556 507.527,300.056 371.5,300C 372.381,299.292 373.047,298.458 373.5,297.5C 390.91,297.819 408.244,297.485 425.5,296.5C 439.755,297.482 454.088,297.816 468.5,297.5C 470.833,297.5 473.167,297.5 475.5,297.5C 484.5,297.5 493.5,297.5 502.5,297.5C 502.5,296.167 502.5,294.833 502.5,293.5 Z"/></g>
<g><path style="opacity:1" fill="#804f4c" d="M 373.5,295.5 C 373.5,296.167 373.5,296.833 373.5,297.5C 373.047,298.458 372.381,299.292 371.5,300C 507.527,300.056 643.527,300.556 779.5,301.5C 587.833,301.5 396.167,301.5 204.5,301.5C 204.5,301.167 204.5,300.833 204.5,300.5C 256.171,300.833 307.838,300.5 359.5,299.5C 359.137,298.817 358.804,298.15 358.5,297.5C 363.807,298.026 368.807,297.36 373.5,295.5 Z"/></g>
<g><path style="opacity:1" fill="#61393a" d="M 204.5,301.5 C 396.167,301.5 587.833,301.5 779.5,301.5C 785.167,301.5 790.833,301.5 796.5,301.5C 797.511,305.112 797.678,308.779 797,312.5C 796.329,313.252 795.496,313.586 794.5,313.5C 601.373,314.164 408.373,314.831 215.5,315.5C 210.853,314.438 210.52,315.271 214.5,318C 215.793,318.49 217.127,318.657 218.5,318.5C 221.977,319.323 225.644,319.823 229.5,320C 228.944,320.383 228.611,320.883 228.5,321.5C 222.824,321.666 217.157,321.499 211.5,321C 209.845,319.556 209.178,317.722 209.5,315.5C 206.833,315.5 204.167,315.5 201.5,315.5C 201.174,311.116 201.508,306.783 202.5,302.5C 203.183,302.137 203.85,301.804 204.5,301.5 Z"/></g>
<g><path style="opacity:1" fill="#4d2a2e" d="M 794.5,313.5 C 792.615,315.053 791.615,317.053 791.5,319.5C 790.5,319.5 789.5,319.5 788.5,319.5C 786.585,319.784 784.919,319.451 783.5,318.5C 783.5,317.5 783.5,316.5 783.5,315.5C 594.167,315.5 404.833,315.5 215.5,315.5C 408.373,314.831 601.373,314.164 794.5,313.5 Z"/></g>
<g><path style="opacity:1" fill="#784f50" d="M 182.5,234.5 C 185.249,234.274 187.916,234.607 190.5,235.5C 191.489,239.107 191.823,242.774 191.5,246.5C 193.643,257.02 194.976,267.686 195.5,278.5C 197.713,284.596 198.88,290.929 199,297.5C 199.5,298 200,298.5 200.5,299C 216.959,297.561 233.625,297.061 250.5,297.5C 277.167,297.5 303.833,297.5 330.5,297.5C 289.669,298.333 248.669,298.833 207.5,299C 206.263,299.232 205.263,299.732 204.5,300.5C 204.5,300.833 204.5,301.167 204.5,301.5C 203.85,301.804 203.183,302.137 202.5,302.5C 201.508,306.783 201.174,311.116 201.5,315.5C 204.167,315.5 206.833,315.5 209.5,315.5C 209.178,317.722 209.845,319.556 211.5,321C 217.157,321.499 222.824,321.666 228.5,321.5C 229.338,321.842 229.672,322.508 229.5,323.5C 229.167,324.5 228.5,325.167 227.5,325.5C 220.546,325.073 213.879,326.239 207.5,329C 202.833,331.667 198.167,334.333 193.5,337C 191.21,338.777 189.543,340.944 188.5,343.5C 187.811,344.774 186.977,344.774 186,343.5C 185.333,342.167 185.333,340.833 186,339.5C 187.666,337.004 189.5,334.671 191.5,332.5C 193.714,331.126 196.047,329.959 198.5,329C 199.944,327.874 200.61,326.374 200.5,324.5C 195.671,297.195 191.171,269.862 187,242.5C 185.755,239.676 184.255,237.009 182.5,234.5 Z"/></g>
<g><path style="opacity:1" fill="#412328" d="M 215.5,315.5 C 404.833,315.5 594.167,315.5 783.5,315.5C 783.5,316.5 783.5,317.5 783.5,318.5C 595.151,318.565 406.818,318.565 218.5,318.5C 217.127,318.657 215.793,318.49 214.5,318C 210.52,315.271 210.853,314.438 215.5,315.5 Z"/></g>
<g><path style="opacity:1" fill="#593b41" d="M 218.5,318.5 C 406.818,318.565 595.151,318.565 783.5,318.5C 784.919,319.451 786.585,319.784 788.5,319.5C 788.082,320.222 787.416,320.722 786.5,321C 781.177,321.499 775.844,321.666 770.5,321.5C 590.528,320.504 410.528,320.17 230.5,320.5C 230.737,321.791 230.404,322.791 229.5,323.5C 229.672,322.508 229.338,321.842 228.5,321.5C 228.611,320.883 228.944,320.383 229.5,320C 225.644,319.823 221.977,319.323 218.5,318.5 Z"/></g>
<g><path style="opacity:1" fill="#3e262a" d="M 770.5,321.5 C 770.5,335.833 770.5,350.167 770.5,364.5C 770.5,370.5 770.5,376.5 770.5,382.5C 770.5,383.167 770.5,383.833 770.5,384.5C 769.833,398.672 769.167,413.006 768.5,427.5C 768.447,398.746 768.447,370.08 768.5,341.5C 765.091,341.249 761.758,341.583 758.5,342.5C 757.176,369.87 757.176,397.203 758.5,424.5C 757.919,426.724 756.586,427.557 754.5,427C 753.837,395.402 753.17,363.902 752.5,332.5C 752.5,331.833 752.167,331.5 751.5,331.5C 751.5,331.167 751.5,330.833 751.5,330.5C 586.167,329.167 420.833,329.167 255.5,330.5C 255.167,330.5 254.833,330.5 254.5,330.5C 253.833,357.003 253.167,383.67 252.5,410.5C 251.201,409.91 250.368,408.91 250,407.5C 249.183,385.303 249.349,363.136 250.5,341C 249.615,338.843 247.948,338.01 245.5,338.5C 245.235,359.504 244.735,380.504 244,401.5C 242.416,402.861 240.582,403.528 238.5,403.5C 237.833,403.167 237.167,402.833 236.5,402.5C 232.193,402.041 228.026,401.041 224,399.5C 222.621,394.964 222.121,390.297 222.5,385.5C 223.445,380.595 223.779,375.595 223.5,370.5C 223.795,368.265 223.461,366.265 222.5,364.5C 219.248,353.96 220.248,343.794 225.5,334C 225.167,333.5 224.833,333 224.5,332.5C 217.377,334.559 211.044,337.892 205.5,342.5C 203.589,343.075 201.922,344.075 200.5,345.5C 196.775,345.22 195.608,343.22 197,339.5C 197.5,339 198,338.5 198.5,338C 202.813,336.566 206.813,334.566 210.5,332C 215.866,331.348 221.199,330.515 226.5,329.5C 227.246,328.264 227.579,326.93 227.5,325.5C 228.5,325.167 229.167,324.5 229.5,323.5C 230.404,322.791 230.737,321.791 230.5,320.5C 410.528,320.17 590.528,320.504 770.5,321.5 Z"/></g>
<g><path style="opacity:1" fill="#44566a" d="M 829.5,211.5 C 823.75,211.6 820.584,214.6 820,220.5C 813.868,246.559 807.535,272.559 801,298.5C 800.333,301.833 800.333,305.167 801,308.5C 805.363,319.255 807.863,330.421 808.5,342C 807.683,349.238 806.683,356.405 805.5,363.5C 800.544,364.828 795.211,365.495 789.5,365.5C 783.133,365.437 776.8,365.104 770.5,364.5C 770.5,350.167 770.5,335.833 770.5,321.5C 775.844,321.666 781.177,321.499 786.5,321C 787.416,320.722 788.082,320.222 788.5,319.5C 789.5,319.5 790.5,319.5 791.5,319.5C 793.026,316.107 795.693,314.774 799.5,315.5C 799.196,309.674 799.196,304.007 799.5,298.5C 793.667,296.768 787.667,296.101 781.5,296.5C 781.5,293.5 781.5,290.5 781.5,287.5C 779.167,287.5 776.833,287.5 774.5,287.5C 775.012,283.965 775.012,280.632 774.5,277.5C 779.612,258.931 784.446,240.264 789,221.5C 789.6,216.577 792.1,213.077 796.5,211C 807.674,210.174 818.674,210.341 829.5,211.5 Z"/></g>
<g><path style="opacity:1" fill="#533538" d="M 255.5,330.5 C 420.833,329.167 586.167,329.167 751.5,330.5C 607.564,331.81 463.564,331.81 319.5,330.5C 298.167,330.5 276.833,330.5 255.5,330.5 Z"/></g>
<g><path style="opacity:1" fill="#5a3536" d="M 319.5,330.5 C 463.564,331.81 607.564,331.81 751.5,330.5C 751.5,330.833 751.5,331.167 751.5,331.5C 751.5,359.5 751.5,387.5 751.5,415.5C 750.167,415.5 748.833,415.5 747.5,415.5C 747.5,388.833 747.5,362.167 747.5,335.5C 744.833,335.5 742.167,335.5 739.5,335.5C 739.5,362.167 739.5,388.833 739.5,415.5C 738.167,415.5 736.833,415.5 735.5,415.5C 735.5,388.833 735.5,362.167 735.5,335.5C 575.5,335.5 415.5,335.5 255.5,335.5C 255.5,334.167 255.5,332.833 255.5,331.5C 277.007,331.831 298.34,331.497 319.5,330.5 Z"/></g>
<g><path style="opacity:1" fill="#593639" d="M 254.5,330.5 C 254.833,330.5 255.167,330.5 255.5,330.5C 276.833,330.5 298.167,330.5 319.5,330.5C 298.34,331.497 277.007,331.831 255.5,331.5C 255.5,332.833 255.5,334.167 255.5,335.5C 415.5,335.5 575.5,335.5 735.5,335.5C 735.5,362.167 735.5,388.833 735.5,415.5C 736.833,415.5 738.167,415.5 739.5,415.5C 739.5,388.833 739.5,362.167 739.5,335.5C 742.167,335.5 744.833,335.5 747.5,335.5C 747.5,362.167 747.5,388.833 747.5,415.5C 748.833,415.5 750.167,415.5 751.5,415.5C 751.5,387.5 751.5,359.5 751.5,331.5C 752.167,331.5 752.5,331.833 752.5,332.5C 752.5,363.5 752.5,394.5 752.5,425.5C 751.532,423.393 751.198,421.059 751.5,418.5C 586.167,418.5 420.833,418.5 255.5,418.5C 255.5,421.167 255.5,423.833 255.5,426.5C 254.833,426.5 254.167,426.5 253.5,426.5C 253.476,419.268 254.142,412.101 255.5,405C 254.553,380.179 254.22,355.346 254.5,330.5 Z"/></g>
<g><path style="opacity:1" fill="#59535f" d="M 222.5,364.5 C 217.489,364.666 212.489,364.499 207.5,364C 206.692,363.692 206.025,363.192 205.5,362.5C 205.368,355.696 205.368,349.03 205.5,342.5C 211.044,337.892 217.377,334.559 224.5,332.5C 224.833,333 225.167,333.5 225.5,334C 220.248,343.794 219.248,353.96 222.5,364.5 Z"/></g>
<g><path style="opacity:1" fill="#785151" d="M 205.5,342.5 C 205.368,349.03 205.368,355.696 205.5,362.5C 206.025,363.192 206.692,363.692 207.5,364C 212.489,364.499 217.489,364.666 222.5,364.5C 223.461,366.265 223.795,368.265 223.5,370.5C 214.833,370.5 206.167,370.5 197.5,370.5C 198.886,362.231 199.886,353.898 200.5,345.5C 201.922,344.075 203.589,343.075 205.5,342.5 Z"/></g>
<g><path style="opacity:1" fill="#354353" d="M 805.5,363.5 C 806.458,363.953 807.292,364.619 808,365.5C 808.642,367.762 809.475,369.929 810.5,372C 810.105,374.223 809.772,376.389 809.5,378.5C 808.657,380.173 807.324,381.34 805.5,382C 793.838,382.5 782.171,382.667 770.5,382.5C 770.5,376.5 770.5,370.5 770.5,364.5C 776.8,365.104 783.133,365.437 789.5,365.5C 795.211,365.495 800.544,364.828 805.5,363.5 Z"/></g>
<g><path style="opacity:1" fill="#5a3334" d="M 227.5,325.5 C 227.579,326.93 227.246,328.264 226.5,329.5C 221.199,330.515 215.866,331.348 210.5,332C 206.813,334.566 202.813,336.566 198.5,338C 198,338.5 197.5,339 197,339.5C 195.608,343.22 196.775,345.22 200.5,345.5C 199.886,353.898 198.886,362.231 197.5,370.5C 206.167,370.5 214.833,370.5 223.5,370.5C 223.779,375.595 223.445,380.595 222.5,385.5C 211.495,385.667 200.495,385.5 189.5,385C 187.714,384.215 186.214,383.049 185,381.5C 184.333,377.5 184.333,373.5 185,369.5C 187.148,361.574 188.981,353.574 190.5,345.5C 190.253,344.287 189.586,343.62 188.5,343.5C 189.543,340.944 191.21,338.777 193.5,337C 198.167,334.333 202.833,331.667 207.5,329C 213.879,326.239 220.546,325.073 227.5,325.5 Z"/></g>
<g><path style="opacity:1" fill="#e2d4d7" d="M 236.5,402.5 C 237.167,402.833 237.833,403.167 238.5,403.5C 239.952,404.302 241.618,404.802 243.5,405C 244.38,406.356 244.714,407.856 244.5,409.5C 241.833,409.5 239.167,409.5 236.5,409.5C 237.686,407.208 237.686,404.874 236.5,402.5 Z"/></g>
<g><path style="opacity:1" fill="#6d403f" d="M 236.5,409.5 C 239.167,409.5 241.833,409.5 244.5,409.5C 244.5,413.833 244.5,418.167 244.5,422.5C 241.721,422.721 239.054,422.388 236.5,421.5C 236.5,417.5 236.5,413.5 236.5,409.5 Z"/></g>
<g><path style="opacity:1" fill="#4b2d31" d="M 254.5,330.5 C 254.22,355.346 254.553,380.179 255.5,405C 254.142,412.101 253.476,419.268 253.5,426.5C 335.164,427.833 417.164,428.5 499.5,428.5C 583.514,428.492 667.514,428.159 751.5,427.5C 752.338,427.158 752.672,426.492 752.5,425.5C 752.5,394.5 752.5,363.5 752.5,332.5C 753.17,363.902 753.837,395.402 754.5,427C 756.586,427.557 757.919,426.724 758.5,424.5C 757.176,397.203 757.176,369.87 758.5,342.5C 761.758,341.583 765.091,341.249 768.5,341.5C 768.447,370.08 768.447,398.746 768.5,427.5C 769.167,413.006 769.833,398.672 770.5,384.5C 770.5,399.167 770.5,413.833 770.5,428.5C 774.309,429.035 777.976,430.035 781.5,431.5C 778.373,432.581 775.04,433.247 771.5,433.5C 593.646,432.831 415.646,432.164 237.5,431.5C 236.133,432.225 234.8,432.892 233.5,433.5C 233.5,433.167 233.5,432.833 233.5,432.5C 233.53,431.503 233.03,430.836 232,430.5C 229.747,431.377 227.581,432.377 225.5,433.5C 224.29,433.932 223.29,434.599 222.5,435.5C 216.613,438.026 210.78,440.693 205,443.5C 205.235,446.117 206.068,448.617 207.5,451C 206.422,456.545 203.089,458.545 197.5,457C 196.584,456.626 195.75,456.126 195,455.5C 193.526,450.695 194.859,447.028 199,444.5C 199.49,443.207 199.657,441.873 199.5,440.5C 199.953,439.542 200.619,438.708 201.5,438C 211.327,432.92 220.994,427.587 230.5,422C 232.473,421.505 234.473,421.338 236.5,421.5C 239.054,422.388 241.721,422.721 244.5,422.5C 244.5,418.167 244.5,413.833 244.5,409.5C 244.714,407.856 244.38,406.356 243.5,405C 241.618,404.802 239.952,404.302 238.5,403.5C 240.582,403.528 242.416,402.861 244,401.5C 244.735,380.504 245.235,359.504 245.5,338.5C 247.948,338.01 249.615,338.843 250.5,341C 249.349,363.136 249.183,385.303 250,407.5C 250.368,408.91 251.201,409.91 252.5,410.5C 253.167,383.67 253.833,357.003 254.5,330.5 Z"/></g>
<g><path style="opacity:1" fill="#5b3637" d="M 752.5,425.5 C 752.672,426.492 752.338,427.158 751.5,427.5C 586.334,426.5 421.001,426.167 255.5,426.5C 255.5,423.833 255.5,421.167 255.5,418.5C 420.833,418.5 586.167,418.5 751.5,418.5C 751.198,421.059 751.532,423.393 752.5,425.5 Z"/></g>
<g><path style="opacity:1" fill="#d1995d" d="M 522.5,387.5 C 520.971,391.368 518.637,394.701 515.5,397.5C 506.786,401.94 497.786,402.606 488.5,399.5C 487.473,397.806 486.139,396.473 484.5,395.5C 486.196,395.315 487.529,394.481 488.5,393C 487.177,392.184 486.511,391.017 486.5,389.5C 495.379,397.166 504.712,397.5 514.5,390.5C 516.928,388.957 519.594,387.957 522.5,387.5 Z"/></g>
<g><path style="opacity:1" fill="#613934" d="M 514.5,366.5 C 515.391,367.11 516.391,367.443 517.5,367.5C 520.737,375.599 519.737,383.265 514.5,390.5C 504.712,397.5 495.379,397.166 486.5,389.5C 482.183,382.352 481.516,375.019 484.5,367.5C 484.427,369.027 485.094,370.027 486.5,370.5C 488.338,375.665 491.338,379.999 495.5,383.5C 494.552,384.978 493.219,385.978 491.5,386.5C 492.99,388.28 494.99,388.946 497.5,388.5C 497.085,390.948 498.085,392.281 500.5,392.5C 503.145,391.892 505.812,391.392 508.5,391C 508.043,390.586 507.709,390.086 507.5,389.5C 516.884,387.095 516.551,386.095 506.5,386.5C 506.5,385.5 506.5,384.5 506.5,383.5C 507.5,383.5 508.5,383.5 509.5,383.5C 510.7,377.658 512.367,371.991 514.5,366.5 Z"/></g>
<g><path style="opacity:1" fill="#60352a" d="M 524.5,367.5 C 525.816,370.087 526.483,373.087 526.5,376.5C 526.442,381.547 525.942,386.547 525,391.5C 521.685,393.324 518.519,395.324 515.5,397.5C 518.637,394.701 520.971,391.368 522.5,387.5C 525.539,381.108 526.206,374.441 524.5,367.5 Z"/></g>
<g><path style="opacity:1" fill="#613b2a" d="M 476.5,370.5 C 475.635,380.063 478.301,388.396 484.5,395.5C 486.139,396.473 487.473,397.806 488.5,399.5C 484.003,398.432 481.003,395.766 479.5,391.5C 478.24,390.618 477.074,389.618 476,388.5C 475.181,382.319 475.347,376.319 476.5,370.5 Z"/></g>
<g><path style="opacity:1" fill="#eec47b" d="M 514.5,366.5 C 512.367,371.991 510.7,377.658 509.5,383.5C 508.5,383.5 507.5,383.5 506.5,383.5C 506.5,384.5 506.5,385.5 506.5,386.5C 516.551,386.095 516.884,387.095 507.5,389.5C 507.709,390.086 508.043,390.586 508.5,391C 505.812,391.392 503.145,391.892 500.5,392.5C 498.085,392.281 497.085,390.948 497.5,388.5C 494.99,388.946 492.99,388.28 491.5,386.5C 493.604,386.799 495.604,386.466 497.5,385.5C 497.145,384.478 496.478,383.811 495.5,383.5C 491.338,379.999 488.338,375.665 486.5,370.5C 486.5,369.167 486.5,367.833 486.5,366.5C 487.833,366.5 489.167,366.5 490.5,366.5C 490.5,364.833 490.5,363.167 490.5,361.5C 496.176,361.334 501.843,361.501 507.5,362C 509.107,363.049 509.773,364.549 509.5,366.5C 511.167,366.5 512.833,366.5 514.5,366.5 Z"/></g>
<g><path style="opacity:1" fill="#f2ca83" d="M 524.5,367.5 C 526.206,374.441 525.539,381.108 522.5,387.5C 519.594,387.957 516.928,388.957 514.5,390.5C 519.737,383.265 520.737,375.599 517.5,367.5C 509.883,356.126 500.216,353.96 488.5,361C 486.768,362.972 485.435,365.139 484.5,367.5C 481.516,375.019 482.183,382.352 486.5,389.5C 486.511,391.017 487.177,392.184 488.5,393C 487.529,394.481 486.196,395.315 484.5,395.5C 478.301,388.396 475.635,380.063 476.5,370.5C 483.092,353.373 495.092,347.873 512.5,354C 517.794,357.454 521.794,361.954 524.5,367.5 Z"/></g>
<g><path style="opacity:1" fill="#7c542a" d="M 495.5,383.5 C 496.478,383.811 497.145,384.478 497.5,385.5C 495.604,386.466 493.604,386.799 491.5,386.5C 493.219,385.978 494.552,384.978 495.5,383.5 Z"/></g>
<g><path style="opacity:1" fill="#643c2f" d="M 517.5,367.5 C 516.391,367.443 515.391,367.11 514.5,366.5C 512.833,366.5 511.167,366.5 509.5,366.5C 509.773,364.549 509.107,363.049 507.5,362C 501.843,361.501 496.176,361.334 490.5,361.5C 490.5,363.167 490.5,364.833 490.5,366.5C 489.167,366.5 487.833,366.5 486.5,366.5C 486.5,367.833 486.5,369.167 486.5,370.5C 485.094,370.027 484.427,369.027 484.5,367.5C 485.435,365.139 486.768,362.972 488.5,361C 500.216,353.96 509.883,356.126 517.5,367.5 Z"/></g>
<g><path style="opacity:1" fill="#6b494a" d="M 253.5,426.5 C 254.167,426.5 254.833,426.5 255.5,426.5C 421.001,426.167 586.334,426.5 751.5,427.5C 667.514,428.159 583.514,428.492 499.5,428.5C 417.164,428.5 335.164,427.833 253.5,426.5 Z"/></g>
<g><path style="opacity:1" fill="#4a2829" d="M 771.5,433.5 C 592.999,433.167 414.666,433.5 236.5,434.5C 235.209,434.737 234.209,434.404 233.5,433.5C 234.8,432.892 236.133,432.225 237.5,431.5C 415.646,432.164 593.646,432.831 771.5,433.5 Z"/></g>
<g><path style="opacity:1" fill="#f0e2df" d="M 233.5,432.5 C 230.997,434.604 228.33,434.937 225.5,433.5C 227.581,432.377 229.747,431.377 232,430.5C 233.03,430.836 233.53,431.503 233.5,432.5 Z"/></g>
<g><path style="opacity:1" fill="#61342f" d="M 781.5,431.5 C 782.492,431.328 783.158,431.662 783.5,432.5C 783.5,432.833 783.5,433.167 783.5,433.5C 601.181,434.493 418.848,434.826 236.5,434.5C 414.666,433.5 592.999,433.167 771.5,433.5C 775.04,433.247 778.373,432.581 781.5,431.5 Z"/></g>
<g><path style="opacity:1" fill="#a46a61" d="M 233.5,432.5 C 233.5,432.833 233.5,433.167 233.5,433.5C 234.209,434.404 235.209,434.737 236.5,434.5C 418.848,434.826 601.181,434.493 783.5,433.5C 784.66,434.265 785.66,435.265 786.5,436.5C 598.835,437.5 411.168,437.833 223.5,437.5C 223.672,436.508 223.338,435.842 222.5,435.5C 223.29,434.599 224.29,433.932 225.5,433.5C 228.33,434.937 230.997,434.604 233.5,432.5 Z"/></g>
<g><path style="opacity:1" fill="#653c3e" d="M 783.5,432.5 C 790.618,433.816 797.618,435.649 804.5,438C 806.113,440.228 806.78,442.728 806.5,445.5C 805.542,448.125 804.376,448.125 803,445.5C 802.23,446.598 801.397,446.598 800.5,445.5C 801.598,444.603 801.598,443.77 800.5,443C 797.361,441.982 794.195,441.149 791,440.5C 790.826,445.684 790.326,450.684 789.5,455.5C 789.666,450.821 789.499,446.155 789,441.5C 788.501,445.821 788.334,450.154 788.5,454.5C 787.167,454.5 785.833,454.5 784.5,454.5C 785.263,453.732 786.263,453.232 787.5,453C 786.594,451.301 786.261,449.467 786.5,447.5C 785.5,447.5 784.5,447.5 783.5,447.5C 623.5,447.5 463.5,447.5 303.5,447.5C 303.5,448.5 303.5,449.5 303.5,450.5C 276.833,450.5 250.167,450.5 223.5,450.5C 223.715,448.821 223.048,447.821 221.5,447.5C 221.034,443.838 221.701,440.505 223.5,437.5C 411.168,437.833 598.835,437.5 786.5,436.5C 785.66,435.265 784.66,434.265 783.5,433.5C 783.5,433.167 783.5,432.833 783.5,432.5 Z"/></g>
<g><path style="opacity:1" fill="#f5ecec" d="M 222.5,435.5 C 223.338,435.842 223.672,436.508 223.5,437.5C 221.701,440.505 221.034,443.838 221.5,447.5C 221.223,450.448 221.556,453.281 222.5,456C 411.667,456.833 600.667,456.666 789.5,455.5C 790.326,450.684 790.826,445.684 791,440.5C 794.195,441.149 797.361,441.982 800.5,443C 801.598,443.77 801.598,444.603 800.5,445.5C 796.527,449.213 796.527,453.047 800.5,457C 809.807,458.861 812.807,455.361 809.5,446.5C 811.129,444.94 812.296,445.273 813,447.5C 813.674,446.422 814.674,445.755 816,445.5C 845.244,447.174 874.41,449.674 903.5,453C 907.13,453.271 908.13,454.938 906.5,458C 871.089,463.307 835.423,466.307 799.5,467C 612.851,472.193 426.185,472.86 239.5,469C 203.174,466.73 166.841,464.73 130.5,463C 117.776,461.845 105.109,460.179 92.5,458C 91.6634,456.989 91.33,455.822 91.5,454.5C 98.0329,452.8 104.7,451.633 111.5,451C 138.189,449 164.856,447 191.5,445C 193.061,444.682 194.228,443.849 195,442.5C 195.333,443.167 195.667,443.833 196,444.5C 197.032,442.973 198.199,441.64 199.5,440.5C 199.657,441.873 199.49,443.207 199,444.5C 194.859,447.028 193.526,450.695 195,455.5C 195.75,456.126 196.584,456.626 197.5,457C 203.089,458.545 206.422,456.545 207.5,451C 206.068,448.617 205.235,446.117 205,443.5C 210.78,440.693 216.613,438.026 222.5,435.5 Z"/></g>
<g><path style="opacity:1" fill="#634445" d="M 789.5,455.5 C 600.667,456.666 411.667,456.833 222.5,456C 221.556,453.281 221.223,450.448 221.5,447.5C 223.048,447.821 223.715,448.821 223.5,450.5C 223.5,451.833 223.5,453.167 223.5,454.5C 410.5,454.5 597.5,454.5 784.5,454.5C 785.833,454.5 787.167,454.5 788.5,454.5C 788.334,450.154 788.501,445.821 789,441.5C 789.499,446.155 789.666,450.821 789.5,455.5 Z"/></g>
<g><path style="opacity:1" fill="#422d32" d="M 800.5,445.5 C 801.397,446.598 802.23,446.598 803,445.5C 804.376,448.125 805.542,448.125 806.5,445.5C 807.391,446.11 808.391,446.443 809.5,446.5C 812.807,455.361 809.807,458.861 800.5,457C 796.527,453.047 796.527,449.213 800.5,445.5 Z"/></g>
<g><path style="opacity:1" fill="#67393b" d="M 783.5,447.5 C 784.5,447.5 785.5,447.5 786.5,447.5C 786.261,449.467 786.594,451.301 787.5,453C 786.263,453.232 785.263,453.732 784.5,454.5C 597.5,454.5 410.5,454.5 223.5,454.5C 223.5,453.167 223.5,451.833 223.5,450.5C 250.167,450.5 276.833,450.5 303.5,450.5C 463.836,450.37 623.836,449.37 783.5,447.5 Z"/></g>
<g><path style="opacity:1" fill="#623b38" d="M 783.5,447.5 C 623.836,449.37 463.836,450.37 303.5,450.5C 303.5,449.5 303.5,448.5 303.5,447.5C 463.5,447.5 623.5,447.5 783.5,447.5 Z"/></g>
<g><path style="opacity:1" fill="#663a35" d="M 239.5,442.5 C 420.833,442.5 602.167,442.5 783.5,442.5C 783.5,443.5 783.5,444.5 783.5,445.5C 602.167,445.5 420.833,445.5 239.5,445.5C 239.5,444.5 239.5,443.5 239.5,442.5 Z"/></g>
</svg>
