<?xml version="1.0" encoding="utf-8"?>
<!-- Generator: Adobe Illustrator 27.5.0, SVG Export Plug-In . SVG Version: 6.00 Build 0)  -->
<svg version="1.1" xmlns="http://www.w3.org/2000/svg" xmlns:xlink="http://www.w3.org/1999/xlink" x="0px" y="0px"
	 viewBox="0 0 3710 3710" style="enable-background:new 0 0 3710 3710;" xml:space="preserve">
<g id="Background">
	<g>
		<g>
			<rect style="fill:#FFFFFF;" width="3710" height="3710"/>
		</g>
	</g>
</g>
<g id="Illustration">
	<g>
		<linearGradient id="SVGID_1_" gradientUnits="userSpaceOnUse" x1="3552.9475" y1="4015.1636" x2="1163.4934" y2="1047.6113">
			<stop  offset="0" style="stop-color:#B37CFF"/>
			<stop  offset="1" style="stop-color:#F895E7"/>
		</linearGradient>
		<path style="opacity:0.3;fill:url(#SVGID_1_);" d="M2895.594,2844.868c-54.885,57.78-106.816,95.042-147.846,124.482
			c-482.3,346.056-1052.99,245.182-1174.277,220.548c-179.104-36.377-525.307-106.693-775.606-401.039
			c-378.681-445.322-319.715-1146.913-25.984-1610.044c53.728-84.714,337.535-554.899,914.371-630.302
			c349.095-45.633,756.028,46.403,1050.717,293.294C3355.547,1360.054,3311.51,2407.004,2895.594,2844.868z"/>
		<g>
			<g>
				
					<linearGradient id="SVGID_00000134245089961338872260000016268091118005170876_" gradientUnits="userSpaceOnUse" x1="3612.1101" y1="101.7278" x2="2657.6196" y2="1181.6271">
					<stop  offset="0" style="stop-color:#A737D5"/>
					<stop  offset="1" style="stop-color:#EF497A"/>
				</linearGradient>
				<path style="fill:url(#SVGID_00000134245089961338872260000016268091118005170876_);" d="M2500.979,2006.593
					c0,0-8.006-336.57,147.016-426.651c155.02-90.081,449.77-146.4,460.818-629.683c6.469-282.935,13.469-406.64,18.162-460.58
					c1.83-21.042-16.868-38.025-37.623-34.116c-146.818,27.658-623.764,141.5-723.76,467.038
					C2247.046,1308.53,2500.979,2006.593,2500.979,2006.593z"/>
				
					<linearGradient id="SVGID_00000178198661813588104920000010664903178049335456_" gradientUnits="userSpaceOnUse" x1="3262.2517" y1="867.9858" x2="231.5651" y2="3034.7534">
					<stop  offset="0" style="stop-color:#CB236D"/>
					<stop  offset="1" style="stop-color:#4C246D"/>
				</linearGradient>
				<path style="fill:url(#SVGID_00000178198661813588104920000010664903178049335456_);" d="M2975.807,590.028
					c-161.162,143.734-347.516,398.112-446.844,652.492c-12.75,41.923-50.045,131.078-66.241,289.481
					c-14.465,132.111-7.274,271.713,10.266,364.123c1.109,5.842,6.744,9.679,12.586,8.57c10.046-1.906,8.709-12.71,8.619-12.37
					c-20.031-157.884-11.717-354.397,34.184-531.708c58.642-217.718,189.437-428.803,324.72-607.834l13.922-17.629
					c104.813-134.604,126.878-135.596,117.079-144.979C2981.784,587.958,2978.162,587.938,2975.807,590.028z"/>
			</g>
			<g>
				
					<linearGradient id="SVGID_00000176018282222696519240000008950220962538420912_" gradientUnits="userSpaceOnUse" x1="3212.1328" y1="1090.0244" x2="2529.3574" y2="1940.0093">
					<stop  offset="0" style="stop-color:#A737D5"/>
					<stop  offset="1" style="stop-color:#EF497A"/>
				</linearGradient>
				<path style="fill:url(#SVGID_00000176018282222696519240000008950220962538420912_);" d="M2251.855,2653.696
					c-20.974,10.284,198.558-265.779,267.327-699.356c32.405-204.313,32.829-460.3,149.214-558.948
					c96.864-82.102,426.479-30.268,534.33-10.57c13.477,2.461,18.013,19.485,7.523,28.296
					c-51.72,43.436-162.359,145.891-191.187,249.146c-37.997,136.098-167.389,222.664-283.227,246.092
					c-115.838,23.427-180.277,46.163-236.71,231.414C2442.692,2325.021,2311.45,2624.474,2251.855,2653.696z"/>
				
					<linearGradient id="SVGID_00000025434207259258887440000017208681441616696713_" gradientUnits="userSpaceOnUse" x1="2996.8088" y1="1507.3883" x2="1275.9366" y2="2845.0693">
					<stop  offset="0" style="stop-color:#CB236D"/>
					<stop  offset="1" style="stop-color:#4C246D"/>
				</linearGradient>
				<path style="fill:url(#SVGID_00000025434207259258887440000017208681441616696713_);" d="M3051.041,1442.326
					c-137.6,5.763-285.303,68.531-360.257,186.273l-7.075,11.235c-16.34,26.344-108.943,213.621-160.375,368.863
					c-0.64,1.935,0.408,4.024,2.344,4.665c3.287,1.088,4.934-2.529,4.62-2.21c35.833-87.7,87.299-198.89,128.289-282.039
					c43.958-90.732,74.719-152.179,174.984-211.036c111.598-63.386,218.214-69.911,217.894-69.846
					c1.627-0.166,2.812-1.62,2.646-3.247C3053.951,1443.42,3052.591,1442.264,3051.041,1442.326z"/>
			</g>
		</g>
		<g>
			
				<linearGradient id="SVGID_00000165197940262628123260000010123640644659663235_" gradientUnits="userSpaceOnUse" x1="1865.7379" y1="3057.843" x2="1742.6267" y2="-586.3073">
				<stop  offset="0" style="stop-color:#2B3582"/>
				<stop  offset="1" style="stop-color:#150E42"/>
			</linearGradient>
			<path style="fill:url(#SVGID_00000165197940262628123260000010123640644659663235_);" d="M999.598,1137.973
				c0-86.932,70.472-157.404,157.404-157.404h1338.572c73.848,0,134.741,57.872,138.496,131.625l98.806,1940.679
				c2.938,57.714-42.494,106.396-100.273,107.446l-1534.172,27.883c-54.291,0.987-98.833-42.753-98.833-97.053V1137.973z"/>
			
				<linearGradient id="SVGID_00000052070176565359310060000002881960990552917155_" gradientUnits="userSpaceOnUse" x1="704.8597" y1="2726.251" x2="2100.147" y2="3612.6702">
				<stop  offset="0" style="stop-color:#A737D5"/>
				<stop  offset="1" style="stop-color:#EF497A"/>
			</linearGradient>
			<path style="fill:url(#SVGID_00000052070176565359310060000002881960990552917155_);" d="M1322.655,3155.209
				c-0.016,0-0.032,0-0.048,0l-171.665-2.219c-57.401-0.745-104.099-48.052-104.099-105.454v-259.182
				c0-2.026,1.641-3.665,3.665-3.665c2.024,0,3.665,1.639,3.665,3.665v259.182c0,53.412,43.453,97.43,96.865,98.124l171.663,2.219
				c2.024,0.025,3.643,1.689,3.618,3.711C1326.291,3153.599,1324.655,3155.209,1322.655,3155.209z"/>
			
				<linearGradient id="SVGID_00000006685407588497185770000006928772266890097831_" gradientUnits="userSpaceOnUse" x1="821.9769" y1="2541.9001" x2="2217.2607" y2="3428.3174">
				<stop  offset="0" style="stop-color:#A737D5"/>
				<stop  offset="1" style="stop-color:#EF497A"/>
			</linearGradient>
			<path style="fill:url(#SVGID_00000006685407588497185770000006928772266890097831_);" d="M1050.506,2711.736
				c-2.024,0-3.665-1.639-3.665-3.665v-41.974c0-2.026,1.641-3.665,3.665-3.665c2.024,0,3.665,1.639,3.665,3.665v41.974
				C1054.171,2710.097,1052.53,2711.736,1050.506,2711.736z"/>
			<g>
				
					<linearGradient id="SVGID_00000123443506069679675510000013722159688762461828_" gradientUnits="userSpaceOnUse" x1="770.3201" y1="567.1588" x2="2988.3872" y2="3698.5493">
					<stop  offset="0" style="stop-color:#FDF53F"/>
					<stop  offset="1" style="stop-color:#D93C65"/>
				</linearGradient>
				<path style="fill:url(#SVGID_00000123443506069679675510000013722159688762461828_);" d="M1109.261,1010.439
					c-0.164-27.813,24.296-49.339,51.858-45.602c182.794,24.789,811.375,101.455,1331.078,61.561
					c23.701-1.819,44.269,16.138,45.53,39.874l103.603,1949.329c1.42,26.729-18.99,49.585-45.709,51.166
					c-218.577,12.935-1118.748,62.939-1439.825,29.309c-19.541-2.047-34.375-18.499-34.49-38.147L1109.261,1010.439z"/>
				<path style="opacity:0.6;fill:#FFFFFF;" d="M1130.793,1059.288c-0.158-26.766,23.381-47.482,49.905-43.885
					c175.911,23.855,780.822,97.635,1280.956,59.242c22.808-1.751,42.602,15.53,43.815,38.373l99.702,1875.926
					c1.367,25.722-18.275,47.718-43.988,49.24c-210.346,12.448-1076.621,60.569-1385.608,28.205
					c-18.806-1.969-33.08-17.803-33.191-36.711L1130.793,1059.288z"/>
				<path style="opacity:0.78;fill:#FFFFFF;" d="M1293.637,1203.92l18.683,402.18c0.621,13.376,11.427,24.012,24.813,24.39
					c74.484,2.101,306.579,7.762,437.629,0.93c14.824-0.773,26.552-12.765,27.043-27.601c2.499-75.424,7.968-294.95-9.22-386.719
					c-2.776-14.824-15.518-25.686-30.59-26.213l-440.252-15.396C1305.867,1174.935,1292.9,1188.052,1293.637,1203.92z"/>
				<g style="opacity:0.6;">
					<path style="fill:#FFFFFF;" d="M2395.8,1238.929c8.231,0,14.789-6.071,14.572-13.492c-0.217-7.421-7.128-13.612-15.358-13.759
						l-484.205-8.629c-8.23-0.147-12.727,6.086-9.992,13.85l2.787,7.913c2.734,7.764,11.707,14.116,19.938,14.116H2395.8z"/>
				</g>
				<g style="opacity:0.6;">
					<path style="fill:#FFFFFF;" d="M1910.809,1278.026c-8.23-0.147-12.727,6.086-9.992,13.85l2.787,7.913
						c2.734,7.764,11.707,14.116,19.938,14.116H2395.8c8.231,0,14.789-6.071,14.572-13.492c-0.217-7.42-7.128-13.612-15.358-13.758
						L1910.809,1278.026z"/>
				</g>
				<g style="opacity:0.6;">
					<path style="fill:#FFFFFF;" d="M1910.809,1354.091c-8.23-0.147-12.727,6.086-9.992,13.85l2.787,7.913
						c2.734,7.764,11.707,14.117,19.938,14.117H2395.8c8.231,0,14.789-6.071,14.572-13.492s-7.128-13.612-15.358-13.759
						L1910.809,1354.091z"/>
				</g>
				<g style="opacity:0.6;">
					<path style="fill:#FFFFFF;" d="M2442.692,1756.798c8.232,0,14.566-6.071,14.076-13.492s-7.625-13.545-15.857-13.61
						l-1132.439-8.926c-8.231-0.065-10.771,5.151-5.643,11.59l10.136,12.729c5.127,6.44,16.058,11.708,24.289,11.708H2442.692z"/>
				</g>
				<g style="opacity:0.6;">
					<path style="fill:#FFFFFF;" d="M1308.472,1795.746c-8.231-0.065-10.771,5.151-5.643,11.59l10.136,12.729
						c5.127,6.439,16.058,11.708,24.289,11.708h1105.438c8.232,0,14.566-6.071,14.076-13.492s-7.625-13.545-15.857-13.61
						L1308.472,1795.746z"/>
				</g>
				
					<linearGradient id="SVGID_00000147941325407466904490000015044683938113736074_" gradientUnits="userSpaceOnUse" x1="1143.9248" y1="1811.4418" x2="2432.5125" y2="2841.4895">
					<stop  offset="0" style="stop-color:#A737D5"/>
					<stop  offset="1" style="stop-color:#EF497A"/>
				</linearGradient>
				<path style="fill:url(#SVGID_00000147941325407466904490000015044683938113736074_);" d="M1304.085,1920.935
					c27.193-2.084,78.118-3.05,106.15-3.442c11.878-0.166,22.296,7.88,25.081,19.428c5.41,22.429,12.873,61.373,11.934,102.636
					c-0.281,12.357-10.404,22.222-22.764,22.089l-103.445-1.114c-12.721-0.137-23.283-9.862-24.466-22.529l-9.095-97.316
					C1286.539,1930.622,1294.005,1921.707,1304.085,1920.935z"/>
				<g style="opacity:0.6;">
					<path style="fill:#FFFFFF;" d="M1494.667,1960.866c-8.224-0.344-13.953,6.035-12.731,14.176l2.718,18.099
						c1.222,8.14,8.958,14.8,17.189,14.8h252.67c8.232,0,14.883-6.734,14.78-14.965l-0.071-5.679
						c-0.103-8.231-6.915-15.247-15.14-15.59L1494.667,1960.866z"/>
				</g>
				
					<linearGradient id="SVGID_00000120520420480248971380000013312017260944393869_" gradientUnits="userSpaceOnUse" x1="1363.6359" y1="1536.5841" x2="2652.2241" y2="2566.6321">
					<stop  offset="0" style="stop-color:#A737D5"/>
					<stop  offset="1" style="stop-color:#EF497A"/>
				</linearGradient>
				<path style="fill:url(#SVGID_00000120520420480248971380000013312017260944393869_);" d="M1867.643,1920.935
					c27.193-2.084,78.118-3.05,106.15-3.442c11.878-0.166,22.296,7.88,25.081,19.428c5.41,22.429,12.873,61.373,11.934,102.636
					c-0.281,12.357-10.404,22.222-22.764,22.089l-103.446-1.114c-12.721-0.137-23.283-9.862-24.466-22.529l-9.095-97.316
					C1850.097,1930.622,1857.562,1921.707,1867.643,1920.935z"/>
				<g style="opacity:0.6;">
					<path style="fill:#FFFFFF;" d="M2058.225,1960.866c-8.224-0.344-13.953,6.035-12.73,14.176l2.719,18.1
						c1.222,8.14,8.958,14.8,17.189,14.8h252.67c8.232,0,14.883-6.734,14.78-14.965l-0.071-5.679
						c-0.103-8.231-6.916-15.247-15.14-15.59L2058.225,1960.866z"/>
				</g>
				<g>
					<g style="opacity:0.6;">
						<path style="fill:#FFFFFF;" d="M1272.381,2253.86c3.546,10.479,15.759,17.748,29.662,17.656l1133.124-7.53
							c12.818-0.085,23.073-8.324,22.793-18.313c-0.273-9.712-10.422-17.486-22.884-17.531l-1133.153-4.028
							C1281.92,2224.042,1267.279,2238.785,1272.381,2253.86z"/>
					</g>
					<g style="opacity:0.6;">
						<path style="fill:#FFFFFF;" d="M1272.381,2458.445c3.546,10.479,15.759,17.748,29.662,17.656l1133.124-7.53
							c12.818-0.085,23.073-8.324,22.793-18.313c-0.273-9.712-10.422-17.486-22.884-17.53l-1133.153-4.029
							C1281.92,2428.627,1267.279,2443.37,1272.381,2458.445z"/>
					</g>
					<g style="opacity:0.6;">
						<path style="fill:#FFFFFF;" d="M1272.381,2663.03c3.546,10.479,15.759,17.749,29.662,17.656l1133.124-7.53
							c12.818-0.085,23.073-8.324,22.793-18.313c-0.273-9.712-10.422-17.486-22.884-17.53l-1133.153-4.029
							C1281.92,2633.212,1267.279,2647.954,1272.381,2663.03z"/>
					</g>
					<g style="opacity:0.6;">
						<path style="fill:#FFFFFF;" d="M1272.381,2867.614L1272.381,2867.614c3.546,10.479,15.759,17.749,29.662,17.656l1133.124-7.53
							c12.818-0.085,23.073-8.324,22.793-18.314c-0.273-9.711-10.422-17.486-22.884-17.53l-1133.153-4.028
							C1281.92,2837.797,1267.279,2852.539,1272.381,2867.614z"/>
					</g>
				</g>
			</g>
			
				<linearGradient id="SVGID_00000135673294443620294430000008856727632796574126_" gradientUnits="userSpaceOnUse" x1="2058.6506" y1="516.1617" x2="1442.9552" y2="1326.0946">
				<stop  offset="0" style="stop-color:#2B3582"/>
				<stop  offset="1" style="stop-color:#150E42"/>
			</linearGradient>
			<path style="fill:url(#SVGID_00000135673294443620294430000008856727632796574126_);" d="M1909.308,715.967
				c-48.351-33.637-90.393-32.971-119.989-24.238c-26.998,7.966-44.496,34.031-41.928,62.063l12.763,139.31l151.877,13.479
				C1912.032,906.581,2004.132,781.934,1909.308,715.967z M1842.517,828.356c-20.915,0-37.87-16.954-37.87-37.87
				c0-20.916,16.955-37.871,37.87-37.871c20.916,0,37.87,16.955,37.87,37.871C1880.388,811.402,1863.433,828.356,1842.517,828.356z"
				/>
			<path style="fill:#FFFFFF;" d="M1775.326,834.5c-1.874,0-3.471-1.428-3.645-3.332l-2.033-22.186
				c-0.186-2.015,1.3-3.798,3.315-3.984c2.056-0.193,3.801,1.299,3.983,3.318l2.033,22.186c0.186,2.015-1.299,3.797-3.314,3.983
				C1775.55,834.497,1775.437,834.5,1775.326,834.5z M1771.342,791.023c-1.873,0-3.471-1.428-3.645-3.332l-1.544-16.842
				c-2.448-26.703,14.355-51.566,39.95-59.121c18.127-5.351,36.804-6.116,55.508-2.28c1.982,0.404,3.26,2.344,2.854,4.327
				c-0.406,1.979-2.328,3.246-4.325,2.853c-17.521-3.586-35-2.874-51.963,2.13c-22.249,6.567-36.854,28.195-34.727,51.426
				l1.544,16.842c0.186,2.015-1.299,3.798-3.314,3.984C1771.566,791.019,1771.453,791.023,1771.342,791.023z"/>
			
				<linearGradient id="SVGID_00000106860352928285133390000006093346666702758542_" gradientUnits="userSpaceOnUse" x1="2126.1877" y1="567.5002" x2="1510.4915" y2="1377.4343">
				<stop  offset="0" style="stop-color:#2B3582"/>
				<stop  offset="1" style="stop-color:#150E42"/>
			</linearGradient>
			<path style="fill:url(#SVGID_00000106860352928285133390000006093346666702758542_);" d="M1552.869,983.131v-70.041
				c0-24.178,20.039-43.543,44.204-42.715l482.902,16.545c21.431,0.734,38.786,17.65,40.07,39.055l4.035,67.299L1552.869,983.131z"
				/>
			<path style="fill:#FFFFFF;" d="M1732.931,896.767h-20.767c-2.024,0-3.665-1.639-3.665-3.665c0-2.026,1.641-3.665,3.665-3.665
				h20.767c2.024,0,3.665,1.639,3.665,3.665C1736.596,895.128,1734.955,896.767,1732.931,896.767z"/>
			<path style="fill:#FFFFFF;" d="M1579.007,961.138c-2.024,0-3.665-1.639-3.665-3.665v-28.334c0-21.893,17.81-39.702,39.703-39.702
				h76.35c2.024,0,3.665,1.639,3.665,3.665c0,2.026-1.641,3.665-3.665,3.665h-76.35c-17.85,0-32.374,14.523-32.374,32.372v28.334
				C1582.672,959.499,1581.031,961.138,1579.007,961.138z"/>
			
				<linearGradient id="SVGID_00000168839466180875860260000004266953540570683835_" gradientUnits="userSpaceOnUse" x1="2048.5994" y1="617.043" x2="1623.4742" y2="1397.6591">
				<stop  offset="0" style="stop-color:#CE1567"/>
				<stop  offset="1" style="stop-color:#7A1DBC"/>
			</linearGradient>
			<path style="fill:url(#SVGID_00000168839466180875860260000004266953540570683835_);" d="M1356.107,1000.818
				c1.165-24.254,21.169-43.32,45.451-43.321l844.445-0.023c30.364-0.001,56.323,21.85,61.502,51.769l0.715,4.129
				c5.673,32.771-19.558,62.745-52.816,62.745h-866.351c-19.904,0-35.765-16.642-34.81-36.523L1356.107,1000.818z"/>
		</g>
		<g>
			<g>
				
					<linearGradient id="SVGID_00000101089809136814644740000016581390994481401482_" gradientUnits="userSpaceOnUse" x1="1247.9355" y1="2873.4207" x2="471.3005" y2="3941.2927">
					<stop  offset="0" style="stop-color:#233894"/>
					<stop  offset="0.9964" style="stop-color:#DD397A"/>
				</linearGradient>
				
					<rect x="508.674" y="2913.83" style="fill:url(#SVGID_00000101089809136814644740000016581390994481401482_);" width="1213.979" height="282.927"/>
				
					<linearGradient id="SVGID_00000168084579803289297730000012038728356609015449_" gradientUnits="userSpaceOnUse" x1="1815.0348" y1="2162.2505" x2="733.7822" y2="3642.8511">
					<stop  offset="0" style="stop-color:#233894"/>
					<stop  offset="0.9964" style="stop-color:#DD397A"/>
				</linearGradient>
				<path style="fill:url(#SVGID_00000168084579803289297730000012038728356609015449_);" d="M1738.871,3178.65H491.135
					c-4.271,0-7.733-3.462-7.733-7.733v-100.911h1260.636v103.477C1744.038,3176.336,1741.725,3178.65,1738.871,3178.65z"/>
				
					<linearGradient id="SVGID_00000178924903994667068240000003455797367208328096_" gradientUnits="userSpaceOnUse" x1="1738.9164" y1="2142.2844" x2="656.8188" y2="3624.042">
					<stop  offset="0" style="stop-color:#233894"/>
					<stop  offset="0.9964" style="stop-color:#DD397A"/>
				</linearGradient>
				<path style="fill:url(#SVGID_00000178924903994667068240000003455797367208328096_);" d="M1736.371,3055.294H492.969
					c-5.283,0-9.566-4.283-9.566-9.566v-99.077h1260.636v100.977C1744.038,3051.861,1740.606,3055.294,1736.371,3055.294z"/>
				
					<linearGradient id="SVGID_00000054249357882552543320000003087376303530669969_" gradientUnits="userSpaceOnUse" x1="1219.1628" y1="1579.0815" x2="1105.4888" y2="3035.5364">
					<stop  offset="0" style="stop-color:#233894"/>
					<stop  offset="0.9964" style="stop-color:#DD397A"/>
				</linearGradient>
				<path style="fill:url(#SVGID_00000054249357882552543320000003087376303530669969_);" d="M1744.038,2946.65H483.402v-32.842
					c0-4.363,3.537-7.9,7.9-7.9h1244.736c4.418,0,8,3.582,8,8V2946.65z"/>
			</g>
			<g>
				
					<linearGradient id="SVGID_00000176032069709941486190000004457937634685636238_" gradientUnits="userSpaceOnUse" x1="1422.5258" y1="-551.5627" x2="2514.6426" y2="741.6298" gradientTransform="matrix(0.4373 -0.8993 0.8993 0.4373 1589.6586 4924.9434)">
					<stop  offset="0" style="stop-color:#233894"/>
					<stop  offset="0.9964" style="stop-color:#DD397A"/>
				</linearGradient>
				<path style="fill:url(#SVGID_00000176032069709941486190000004457937634685636238_);" d="M2852.035,3040.576
					c40.847,19.863,55.253,74.436,32.177,121.891c-23.077,47.455-74.897,69.823-115.744,49.96
					c-40.847-19.863-55.253-74.436-32.177-121.891S2811.188,3020.713,2852.035,3040.576z"/>
				
					<linearGradient id="SVGID_00000076604527590040855550000001744067828637324689_" gradientUnits="userSpaceOnUse" x1="2647.1208" y1="2862.5115" x2="2568.011" y2="3398.0239" gradientTransform="matrix(0.9989 -0.0469 0.0469 0.9989 -40.006 301.738)">
					<stop  offset="0" style="stop-color:#2B3582"/>
					<stop  offset="1" style="stop-color:#150E42"/>
				</linearGradient>
				<path style="fill:url(#SVGID_00000076604527590040855550000001744067828637324689_);" d="M2785.913,3061.52l-41.803,85.966
					c-1.51,3.106-5.252,4.399-8.358,2.889l-52.294-25.43c-3.106-1.51-4.399-5.252-2.889-8.358l41.803-85.966
					c1.51-3.106,5.252-4.399,8.358-2.889l52.294,25.43C2786.13,3054.672,2787.423,3058.414,2785.913,3061.52z"/>
				
					<linearGradient id="SVGID_00000036214306843145549490000005519400177470079373_" gradientUnits="userSpaceOnUse" x1="3152.8442" y1="3140.0398" x2="1361.634" y2="2267.6731" gradientTransform="matrix(0.9989 -0.0469 0.0469 0.9989 -40.006 301.738)">
					<stop  offset="0" style="stop-color:#233894"/>
					<stop  offset="0.9964" style="stop-color:#DD397A"/>
				</linearGradient>
				<path style="fill:url(#SVGID_00000036214306843145549490000005519400177470079373_);" d="M2732.299,3019.987
					c-7.506,38.516-24.604,72.919-50.602,103.508c-14.048,16.529-36.585,23.929-59.001,19.428
					c-214.295-43.029-663.421-320.615-1099.586-563.111c-28.906-16.071-48.883-34.302-35.262-62.314l30.08-61.857
					c13.537-27.838,45.933-12.166,76.334,0.323c461.368,189.551,950.707,354.778,1118.696,507.655
					C2729.081,2978.292,2736.26,2999.662,2732.299,3019.987z"/>
				
					<linearGradient id="SVGID_00000180351842997883174910000001826801678862312876_" gradientUnits="userSpaceOnUse" x1="1438.0555" y1="2259.7725" x2="1254.8973" y2="2966.5217" gradientTransform="matrix(0.9989 -0.0469 0.0469 0.9989 -40.006 301.738)">
					<stop  offset="0" style="stop-color:#2B3582"/>
					<stop  offset="1" style="stop-color:#150E42"/>
				</linearGradient>
				<path style="fill:url(#SVGID_00000180351842997883174910000001826801678862312876_);" d="M1587.871,2392.446l-102.095,209.951
					c-1.449,2.98-5.04,4.221-8.02,2.772L1423.94,2579c-2.98-1.449-4.221-5.04-2.772-8.02l102.095-209.951
					c1.449-2.98,5.04-4.221,8.02-2.772l53.816,26.17C1588.079,2385.875,1589.32,2389.466,1587.871,2392.446z"/>
				
					<linearGradient id="SVGID_00000130645155606949343790000017858357712760663710_" gradientUnits="userSpaceOnUse" x1="1050.9302" y1="2202.1763" x2="1049.3046" y2="2540.2581">
					<stop  offset="0" style="stop-color:#2B3582"/>
					<stop  offset="1" style="stop-color:#150E42"/>
				</linearGradient>
				<path style="fill:url(#SVGID_00000130645155606949343790000017858357712760663710_);" d="M1133.946,2182.806l-102.095,209.951
					c-1.449,2.98-5.04,4.221-8.02,2.772l-53.816-26.17c-2.98-1.449-4.221-5.04-2.772-8.02l102.095-209.951
					c1.449-2.98,5.04-4.221,8.02-2.772l53.816,26.17C1134.154,2176.235,1135.395,2179.826,1133.946,2182.806z"/>
				
					<linearGradient id="SVGID_00000089558405069063670370000003664105609828521637_" gradientUnits="userSpaceOnUse" x1="2188.5586" y1="1312.3794" x2="116.2337" y2="3077.551" gradientTransform="matrix(0.9989 -0.0469 0.0469 0.9989 -40.006 301.738)">
					<stop  offset="0" style="stop-color:#233894"/>
					<stop  offset="0.9964" style="stop-color:#DD397A"/>
				</linearGradient>
				<polygon style="fill:url(#SVGID_00000089558405069063670370000003664105609828521637_);" points="1632.693,2187.332 
					1310.01,2850.905 860.448,2632.292 1183.131,1968.718 				"/>
				
					<linearGradient id="SVGID_00000172408676470994871550000002316803749729884575_" gradientUnits="userSpaceOnUse" x1="1764.3312" y1="-1592.8008" x2="1549.4576" y2="-220.7566" gradientTransform="matrix(0.4373 -0.8993 0.8993 0.4373 1589.6586 4924.9434)">
					<stop  offset="0" style="stop-color:#233894"/>
					<stop  offset="0.9964" style="stop-color:#DD397A"/>
				</linearGradient>
				<polygon style="fill:url(#SVGID_00000172408676470994871550000002316803749729884575_);" points="1327.028,2815.909 
					1286.447,2899.361 836.885,2680.748 877.466,2597.296 				"/>
				
					<linearGradient id="SVGID_00000142874356839641050140000007879340499778895033_" gradientUnits="userSpaceOnUse" x1="1049.7362" y1="1949.3298" x2="989.4935" y2="2541.7192" gradientTransform="matrix(0.9989 -0.0469 0.0469 0.9989 -40.006 301.738)">
					<stop  offset="0" style="stop-color:#A737D5"/>
					<stop  offset="1" style="stop-color:#EF497A"/>
				</linearGradient>
				<path style="fill:url(#SVGID_00000142874356839641050140000007879340499778895033_);" d="M1304.774,2861.673l-20.168,41.475
					c-6.167,12.681-20.61,19.042-34.127,15.028c-140.14-41.619-275.772-106.472-406.269-197.795
					c-11.427-7.996-15.349-23.131-9.25-35.673l20.253-41.648L1304.774,2861.673z"/>
				
					<linearGradient id="SVGID_00000021120754763032452570000007451066727630163351_" gradientUnits="userSpaceOnUse" x1="1597.3887" y1="2296.9749" x2="690.6342" y2="2537.7266" gradientTransform="matrix(0.9989 -0.0469 0.0469 0.9989 -40.006 301.738)">
					<stop  offset="0" style="stop-color:#233894"/>
					<stop  offset="0.9964" style="stop-color:#DD397A"/>
				</linearGradient>
				<path style="fill:url(#SVGID_00000021120754763032452570000007451066727630163351_);" d="M1350.154,2799.155l-16.788,34.522
					c-1.51,3.104-5.25,4.397-8.354,2.887l-470.625-228.856c-3.104-1.509-4.397-5.25-2.887-8.354l16.788-34.522
					c1.51-3.104,5.25-4.397,8.354-2.887l470.625,228.856C1350.37,2792.311,1351.663,2796.051,1350.154,2799.155z"/>
				
					<linearGradient id="SVGID_00000023977720363287871740000017191860293858181554_" gradientUnits="userSpaceOnUse" x1="1078.2313" y1="1945.9197" x2="1017.2303" y2="2545.7654" gradientTransform="matrix(0.9989 -0.0469 0.0469 0.9989 -40.006 301.738)">
					<stop  offset="0" style="stop-color:#A737D5"/>
					<stop  offset="1" style="stop-color:#EF497A"/>
				</linearGradient>
				<path style="fill:url(#SVGID_00000023977720363287871740000017191860293858181554_);" d="M1347.465,2804.683l-11.411,23.467
					c-1.367,2.812-4.755,3.983-7.568,2.615l-471.683-229.37c-2.812-1.367-3.983-4.755-2.616-7.567l11.411-23.467
					c1.367-2.812,4.756-3.983,7.568-2.615l471.683,229.37C1347.662,2798.483,1348.833,2801.871,1347.465,2804.683z"/>
				
					<linearGradient id="SVGID_00000125563947104975862400000005750216736231938690_" gradientUnits="userSpaceOnUse" x1="6490.3618" y1="-1585.9924" x2="6275.4878" y2="-213.9474" gradientTransform="matrix(-0.4373 0.8993 0.8993 0.4373 5523.7446 -3164.8772)">
					<stop  offset="0" style="stop-color:#233894"/>
					<stop  offset="0.9964" style="stop-color:#DD397A"/>
				</linearGradient>
				<polygon style="fill:url(#SVGID_00000125563947104975862400000005750216736231938690_);" points="1635.311,2181.948 
					1675.892,2098.496 1226.33,1879.883 1185.749,1963.334 				"/>
				
					<linearGradient id="SVGID_00000111166168336316985910000016553244733657374131_" gradientUnits="userSpaceOnUse" x1="1144.0963" y1="1394.9717" x2="1485.4685" y2="1876.9092" gradientTransform="matrix(0.9989 -0.0469 0.0469 0.9989 -40.006 301.738)">
					<stop  offset="0" style="stop-color:#A737D5"/>
					<stop  offset="1" style="stop-color:#EF497A"/>
				</linearGradient>
				<path style="fill:url(#SVGID_00000111166168336316985910000016553244733657374131_);" d="M1657.565,2136.184l20.168-41.475
					c6.167-12.681,2.251-27.969-9.254-36.123c-119.273-84.529-254.039-151.165-406.453-197.417
					c-13.346-4.05-27.672,2.21-33.771,14.753l-20.253,41.648L1657.565,2136.184z"/>
				
					<linearGradient id="SVGID_00000173848896407035124750000015157501685999744396_" gradientUnits="userSpaceOnUse" x1="1465.4734" y1="1523.6742" x2="1293.1466" y2="2036.15" gradientTransform="matrix(0.9989 -0.0469 0.0469 0.9989 -40.006 301.738)">
					<stop  offset="0" style="stop-color:#233894"/>
					<stop  offset="0.9964" style="stop-color:#DD397A"/>
				</linearGradient>
				<path style="fill:url(#SVGID_00000173848896407035124750000015157501685999744396_);" d="M1636.413,2210.484l16.788-34.522
					c1.51-3.104,0.217-6.844-2.887-8.354l-470.625-228.856c-3.104-1.51-6.844-0.217-8.354,2.887l-16.788,34.522
					c-1.51,3.104-0.217,6.844,2.887,8.354l470.625,228.856C1631.164,2214.881,1634.904,2213.588,1636.413,2210.484z"/>
				
					<linearGradient id="SVGID_00000047041580232018221290000018270209323753786798_" gradientUnits="userSpaceOnUse" x1="1075.4391" y1="1439.6606" x2="1419.0662" y2="1924.7814" gradientTransform="matrix(0.9989 -0.0469 0.0469 0.9989 -40.006 301.738)">
					<stop  offset="0" style="stop-color:#A737D5"/>
					<stop  offset="1" style="stop-color:#EF497A"/>
				</linearGradient>
				<path style="fill:url(#SVGID_00000047041580232018221290000018270209323753786798_);" d="M1639.101,2204.956l11.411-23.467
					c1.367-2.812,0.196-6.2-2.616-7.567l-471.683-229.37c-2.812-1.367-6.2-0.196-7.568,2.616l-11.411,23.467
					c-1.368,2.812-0.196,6.2,2.616,7.567l471.683,229.37C1634.346,2208.939,1637.734,2207.768,1639.101,2204.956z"/>
			</g>
		</g>
	</g>
</g>
</svg>
