<?xml version="1.0" encoding="UTF-8"?>
<!DOCTYPE svg PUBLIC "-//W3C//DTD SVG 1.1//EN" "http://www.w3.org/Graphics/SVG/1.1/DTD/svg11.dtd">
<svg xmlns="http://www.w3.org/2000/svg" version="1.1" width="626px" height="626px" style="shape-rendering:geometricPrecision; text-rendering:geometricPrecision; image-rendering:optimizeQuality; fill-rule:evenodd; clip-rule:evenodd" xmlns:xlink="http://www.w3.org/1999/xlink">
<g><path style="opacity:1" fill="#fefefe" d="M -0.5,-0.5 C 208.167,-0.5 416.833,-0.5 625.5,-0.5C 625.5,208.167 625.5,416.833 625.5,625.5C 416.833,625.5 208.167,625.5 -0.5,625.5C -0.5,416.833 -0.5,208.167 -0.5,-0.5 Z"/></g>
<g><path style="opacity:1" fill="#cce6fc" d="M 531.5,349.5 C 511.686,348.881 492.019,348.215 472.5,347.5C 472.167,333.151 472.501,318.818 473.5,304.5C 489.478,292.517 505.145,280.184 520.5,267.5C 452.502,266.333 384.502,266.167 316.5,267C 309.766,271.366 302.766,275.199 295.5,278.5C 295.334,273.489 295.501,268.489 296,263.5C 308.352,249.982 320.519,236.315 332.5,222.5C 361.007,238.073 388.673,236.573 415.5,218C 442.83,192.852 449.663,163.019 436,128.5C 416.854,96.0125 388.688,83.1792 351.5,90C 319.079,100.751 301.079,123.084 297.5,157C 297.449,175.178 302.782,191.512 313.5,206C 301.402,220.188 289.069,234.188 276.5,248C 269.494,248.607 262.494,249.273 255.5,250C 246.557,259.431 238.224,269.265 230.5,279.5C 224.809,276.322 219.809,272.155 215.5,267C 170.168,266.5 124.835,266.333 79.5,266.5C 96.5247,246.028 117.858,231.528 143.5,223C 170.527,207.898 190.193,186.231 202.5,158C 234.014,106.074 279.68,74.7405 339.5,64C 402.566,55.3036 457.899,71.3036 505.5,112C 555.458,158.878 573.958,216.044 561,283.5C 558.272,295.358 554.439,306.858 549.5,318C 544.866,325.621 540.699,333.454 537,341.5C 534.097,343.546 532.264,346.213 531.5,349.5 Z"/></g>
<g><path style="opacity:1" fill="#cde7fd" d="M 125.5,127.5 C 144.81,125.577 160.31,132.244 172,147.5C 176.196,159.407 176.529,171.407 173,183.5C 164.481,199.523 150.981,207.523 132.5,207.5C 104.257,203.986 91.0904,187.986 93,159.5C 94.0265,155.392 95.3599,151.392 97,147.5C 101.899,140.602 108.066,135.102 115.5,131C 119.028,130.054 122.361,128.887 125.5,127.5 Z"/></g>
<g><path style="opacity:1" fill="#10194b" d="M 295.5,278.5 C 295.5,279.833 294.833,280.5 293.5,280.5C 293.376,275.951 292.709,271.618 291.5,267.5C 286.029,262.199 280.362,257.033 274.5,252C 268.431,251.196 262.431,251.529 256.5,253C 248.5,262.524 240.167,271.69 231.5,280.5C 230.833,280.5 230.5,280.167 230.5,279.5C 238.224,269.265 246.557,259.431 255.5,250C 262.494,249.273 269.494,248.607 276.5,248C 289.069,234.188 301.402,220.188 313.5,206C 302.782,191.512 297.449,175.178 297.5,157C 301.079,123.084 319.079,100.751 351.5,90C 388.688,83.1792 416.854,96.0125 436,128.5C 449.663,163.019 442.83,192.852 415.5,218C 388.673,236.573 361.007,238.073 332.5,222.5C 320.519,236.315 308.352,249.982 296,263.5C 295.501,268.489 295.334,273.489 295.5,278.5 Z"/></g>
<g><path style="opacity:1" fill="#6998c1" d="M 399.5,97.5 C 421.783,108.303 435.283,125.97 440,150.5C 442.271,185.867 427.437,211.033 395.5,226C 358.577,237.251 329.743,226.751 309,194.5C 294.067,163.389 298.234,135.223 321.5,110C 326.792,105.528 332.459,101.695 338.5,98.5C 336.875,101.449 337.708,103.449 341,104.5C 350.732,100.297 360.899,98.4639 371.5,99C 373.602,97.2672 373.935,95.2672 372.5,93C 363.347,92.2843 354.347,93.1176 345.5,95.5C 353.121,91.742 361.287,90.0753 370,90.5C 380.651,89.9061 390.484,92.2394 399.5,97.5 Z"/></g>
<g><path style="opacity:1" fill="#a3c3dc" d="M 399.5,97.5 C 401.478,99.4192 403.478,101.252 405.5,103C 404.942,105.058 403.609,106.225 401.5,106.5C 395.151,103.578 388.485,101.578 381.5,100.5C 381.34,98.8008 381.506,97.1341 382,95.5C 382.893,94.9186 383.893,94.5852 385,94.5C 389.927,95.2363 394.76,96.2363 399.5,97.5 Z"/></g>
<g><path style="opacity:1" fill="#a2c3dd" d="M 338.5,98.5 C 340.604,97.0883 342.937,96.0883 345.5,95.5C 354.347,93.1176 363.347,92.2843 372.5,93C 373.935,95.2672 373.602,97.2672 371.5,99C 360.899,98.4639 350.732,100.297 341,104.5C 337.708,103.449 336.875,101.449 338.5,98.5 Z"/></g>
<g><path style="opacity:1" fill="#0e1748" d="M 359.5,102.5 C 384.992,100.036 405.158,109.036 420,129.5C 432.559,153.552 430.893,176.552 415,198.5C 394.667,218.639 371.167,223.473 344.5,213C 315.146,194.948 305.979,169.448 317,136.5C 326.018,118.593 340.185,107.259 359.5,102.5 Z"/></g>
<g><path style="opacity:1" fill="#e7f4fd" d="M 358.5,105.5 C 387.791,102.057 408.958,113.391 422,139.5C 430.843,166.294 424.343,188.461 402.5,206C 389.158,215.068 374.491,218.068 358.5,215C 328.386,205.551 313.886,185.051 315,153.5C 319.92,128.749 334.42,112.749 358.5,105.5 Z"/></g>
<g><path style="opacity:1" fill="#5682ab" d="M 321.5,230.5 C 321.5,229.167 321.5,227.833 321.5,226.5C 322.552,226.649 323.552,226.483 324.5,226C 319.65,222.309 314.983,218.476 310.5,214.5C 312.169,212.491 313.836,210.491 315.5,208.5C 319.301,213.312 323.801,217.312 329,220.5C 329.667,221.167 329.667,221.833 329,222.5C 326.715,225.432 324.215,228.098 321.5,230.5 Z"/></g>
<g><path style="opacity:1" fill="#6998c1" d="M 310.5,214.5 C 314.983,218.476 319.65,222.309 324.5,226C 323.552,226.483 322.552,226.649 321.5,226.5C 321.5,227.833 321.5,229.167 321.5,230.5C 312.376,241.461 303.043,252.295 293.5,263C 291.721,262.956 290.055,262.289 288.5,261C 285.631,257.796 282.465,254.963 279,252.5C 278.333,251.5 278.333,250.5 279,249.5C 289.337,237.664 299.837,225.998 310.5,214.5 Z"/></g>
<g><path style="opacity:1" fill="#6a99c1" d="M 291.5,267.5 C 291.184,273.11 289.85,278.444 287.5,283.5C 277.401,290.418 266.901,296.752 256,302.5C 249.023,297.354 242.523,291.688 236.5,285.5C 237.873,285.657 239.207,285.49 240.5,285C 246.333,278.5 252.167,272 258,265.5C 259.512,260.344 257.846,258.677 253,260.5C 247.362,266.808 241.695,273.141 236,279.5C 235.506,281.134 235.34,282.801 235.5,284.5C 233.227,284.043 231.894,282.71 231.5,280.5C 240.167,271.69 248.5,262.524 256.5,253C 262.431,251.529 268.431,251.196 274.5,252C 280.362,257.033 286.029,262.199 291.5,267.5 Z"/></g>
<g><path style="opacity:1" fill="#de7704" d="M 214.5,270.5 C 223.159,277.827 231.493,285.493 239.5,293.5C 241.091,295.437 242.758,297.437 244.5,299.5C 243.5,300.167 242.5,300.833 241.5,301.5C 201.171,302.667 160.837,302.833 120.5,302C 117.899,298.888 114.899,296.388 111.5,294.5C 102.893,287.23 94.5592,279.563 86.5,271.5C 86.3893,270.883 86.056,270.383 85.5,270C 128.571,269.173 171.571,269.339 214.5,270.5 Z"/></g>
<g><path style="opacity:1" fill="#a3c3dc" d="M 236.5,285.5 C 235.833,285.5 235.5,285.167 235.5,284.5C 235.34,282.801 235.506,281.134 236,279.5C 241.695,273.141 247.362,266.808 253,260.5C 257.846,258.677 259.512,260.344 258,265.5C 252.167,272 246.333,278.5 240.5,285C 239.207,285.49 237.873,285.657 236.5,285.5 Z"/></g>
<g><path style="opacity:1" fill="#cde6fd" d="M 79.5,266.5 C 79.3692,269.367 80.7026,271.033 83.5,271.5C 93.8178,282.817 104.818,293.484 116.5,303.5C 117.487,340.124 117.821,376.79 117.5,413.5C 116.883,413.611 116.383,413.944 116,414.5C 88.1093,398.398 70.1093,374.731 62,343.5C 57.9776,321.901 60.6443,301.235 70,281.5C 73.2198,276.361 76.3865,271.361 79.5,266.5 Z"/></g>
<g><path style="opacity:1" fill="#1c191a" d="M 83.5,271.5 C 84.5,271.5 85.5,271.5 86.5,271.5C 94.5592,279.563 102.893,287.23 111.5,294.5C 113.833,297.167 116.167,299.833 118.5,302.5C 118.5,303.167 118.167,303.5 117.5,303.5C 117.167,303.5 116.833,303.5 116.5,303.5C 104.818,293.484 93.8178,282.817 83.5,271.5 Z"/></g>
<g><path style="opacity:1" fill="#c56c0a" d="M 239.5,293.5 C 243.57,296.06 247.236,299.227 250.5,303C 206.429,303.827 162.429,303.661 118.5,302.5C 116.167,299.833 113.833,297.167 111.5,294.5C 114.899,296.388 117.899,298.888 120.5,302C 160.837,302.833 201.171,302.667 241.5,301.5C 242.5,300.833 243.5,300.167 244.5,299.5C 242.758,297.437 241.091,295.437 239.5,293.5 Z"/></g>
<g><path style="opacity:1" fill="#150b0a" d="M 79.5,266.5 C 124.835,266.333 170.168,266.5 215.5,267C 219.809,272.155 224.809,276.322 230.5,279.5C 230.5,280.167 230.833,280.5 231.5,280.5C 231.894,282.71 233.227,284.043 235.5,284.5C 235.5,285.167 235.833,285.5 236.5,285.5C 242.523,291.688 249.023,297.354 256,302.5C 266.901,296.752 277.401,290.418 287.5,283.5C 289.819,283.008 291.819,282.008 293.5,280.5C 294.833,280.5 295.5,279.833 295.5,278.5C 302.766,275.199 309.766,271.366 316.5,267C 384.502,266.167 452.502,266.333 520.5,267.5C 505.145,280.184 489.478,292.517 473.5,304.5C 472.501,318.818 472.167,333.151 472.5,347.5C 471.5,347.5 470.5,347.5 469.5,347.5C 469.5,333.833 469.5,320.167 469.5,306.5C 398.833,306.5 328.167,306.5 257.5,306.5C 256.501,381.665 256.167,456.998 256.5,532.5C 255.833,532.5 255.167,532.5 254.5,532.5C 254.833,456.998 254.499,381.665 253.5,306.5C 209.5,306.5 165.5,306.5 121.5,306.5C 121.5,381.5 121.5,456.5 121.5,531.5C 121.5,531.833 121.5,532.167 121.5,532.5C 120.5,532.5 119.5,532.5 118.5,532.5C 118.5,493.5 118.5,454.5 118.5,415.5C 118.827,378.094 118.493,340.761 117.5,303.5C 118.167,303.5 118.5,303.167 118.5,302.5C 162.429,303.661 206.429,303.827 250.5,303C 247.236,299.227 243.57,296.06 239.5,293.5C 231.493,285.493 223.159,277.827 214.5,270.5C 193.177,269.167 171.51,268.5 149.5,268.5C 127.833,268.833 106.167,269.167 84.5,269.5C 84.1373,270.183 83.8039,270.85 83.5,271.5C 80.7026,271.033 79.3692,269.367 79.5,266.5 Z"/></g>
<g><path style="opacity:1" fill="#c66a05" d="M 271.5,297.5 C 270.242,299.301 268.576,300.801 266.5,302C 334.5,302.667 402.5,302.667 470.5,302C 468.833,301.667 467.167,301.333 465.5,301C 468.146,300.503 470.813,300.336 473.5,300.5C 473.047,301.458 472.381,302.292 471.5,303C 401.5,303.667 331.5,303.667 261.5,303C 264.727,300.888 268.06,299.055 271.5,297.5 Z"/></g>
<g><path style="opacity:1" fill="#48698b" d="M 291.5,267.5 C 292.709,271.618 293.376,275.951 293.5,280.5C 291.819,282.008 289.819,283.008 287.5,283.5C 289.85,278.444 291.184,273.11 291.5,267.5 Z"/></g>
<g><path style="opacity:1" fill="#de7703" d="M 511.5,271.5 C 499.408,281.927 486.741,291.593 473.5,300.5C 470.813,300.336 468.146,300.503 465.5,301C 467.167,301.333 468.833,301.667 470.5,302C 402.5,302.667 334.5,302.667 266.5,302C 268.576,300.801 270.242,299.301 271.5,297.5C 283.33,289.415 295.663,282.081 308.5,275.5C 310.993,274.253 313.493,274.253 316,275.5C 316.5,275.167 317,274.833 317.5,274.5C 314.972,273.184 314.972,272.017 317.5,271C 382.335,270.168 447.001,270.335 511.5,271.5 Z"/></g>
<g><path style="opacity:1" fill="#cf7c22" d="M 318.5,269.5 C 383.669,269.168 448.669,269.501 513.5,270.5C 512.833,270.833 512.167,271.167 511.5,271.5C 447.001,270.335 382.335,270.168 317.5,271C 314.972,272.017 314.972,273.184 317.5,274.5C 317,274.833 316.5,275.167 316,275.5C 313.493,274.253 310.993,274.253 308.5,275.5C 311.494,273 314.827,271 318.5,269.5 Z"/></g>
<g><path style="opacity:1" fill="#68431f" d="M 318.5,269.5 C 383.668,268.168 449.001,268.168 514.5,269.5C 514.376,270.107 514.043,270.44 513.5,270.5C 448.669,269.501 383.669,269.168 318.5,269.5 Z"/></g>
<g><path style="opacity:1" fill="#68411e" d="M 214.5,270.5 C 171.571,269.339 128.571,269.173 85.5,270C 86.056,270.383 86.3893,270.883 86.5,271.5C 85.5,271.5 84.5,271.5 83.5,271.5C 83.8039,270.85 84.1373,270.183 84.5,269.5C 106.167,269.167 127.833,268.833 149.5,268.5C 171.51,268.5 193.177,269.167 214.5,270.5 Z"/></g>
<g><path style="opacity:1" fill="#de7702" d="M 338.5,342.5 C 331.876,346.079 328.043,351.746 327,359.5C 326.667,411.5 326.333,463.5 326,515.5C 323.11,519.367 319.277,521.867 314.5,523C 305.63,526.28 296.63,528.78 287.5,530.5C 277.833,530.5 268.167,530.5 258.5,530.5C 258.5,456.5 258.5,382.5 258.5,308.5C 319.833,308.5 381.167,308.5 442.5,308.5C 442.5,318.167 442.5,327.833 442.5,337.5C 410.832,337.333 379.165,337.5 347.5,338C 345.285,339.044 342.952,339.71 340.5,340C 339.619,340.708 338.953,341.542 338.5,342.5 Z"/></g>
<g><path style="opacity:1" fill="#cdd4dd" d="M 116.5,303.5 C 116.833,303.5 117.167,303.5 117.5,303.5C 118.493,340.761 118.827,378.094 118.5,415.5C 117.662,415.158 117.328,414.492 117.5,413.5C 117.821,376.79 117.487,340.124 116.5,303.5 Z"/></g>
<g><path style="opacity:1" fill="#fe8900" d="M 252.5,308.5 C 252.5,382.5 252.5,456.5 252.5,530.5C 209.167,530.5 165.833,530.5 122.5,530.5C 122.5,456.167 122.5,381.833 122.5,307.5C 166.003,307.168 209.337,307.501 252.5,308.5 Z"/></g>
<g><path style="opacity:1" fill="#f18d1a" d="M 252.5,308.5 C 252.833,308.5 253.167,308.5 253.5,308.5C 253.5,382.833 253.5,457.167 253.5,531.5C 209.833,531.5 166.167,531.5 122.5,531.5C 122.5,531.167 122.5,530.833 122.5,530.5C 165.833,530.5 209.167,530.5 252.5,530.5C 252.5,456.5 252.5,382.5 252.5,308.5 Z"/></g>
<g><path style="opacity:1" fill="#905c23" d="M 257.5,306.5 C 257.5,306.833 257.5,307.167 257.5,307.5C 257.5,382.167 257.5,456.833 257.5,531.5C 264.833,531.5 272.167,531.5 279.5,531.5C 279.5,531.833 279.5,532.167 279.5,532.5C 271.833,532.5 264.167,532.5 256.5,532.5C 256.167,456.998 256.501,381.665 257.5,306.5 Z"/></g>
<g><path style="opacity:1" fill="#d8790f" d="M 257.5,307.5 C 319.5,307.5 381.5,307.5 443.5,307.5C 443.5,317.833 443.5,328.167 443.5,338.5C 412.165,338.333 380.832,338.5 349.5,339C 345.66,339.86 341.993,341.027 338.5,342.5C 338.953,341.542 339.619,340.708 340.5,340C 342.952,339.71 345.285,339.044 347.5,338C 379.165,337.5 410.832,337.333 442.5,337.5C 442.5,327.833 442.5,318.167 442.5,308.5C 381.167,308.5 319.833,308.5 258.5,308.5C 258.5,382.5 258.5,456.5 258.5,530.5C 268.167,530.5 277.833,530.5 287.5,530.5C 287.5,530.833 287.5,531.167 287.5,531.5C 284.833,531.5 282.167,531.5 279.5,531.5C 272.167,531.5 264.833,531.5 257.5,531.5C 257.5,456.833 257.5,382.167 257.5,307.5 Z"/></g>
<g><path style="opacity:1" fill="#b1702a" d="M 257.5,307.5 C 257.5,307.167 257.5,306.833 257.5,306.5C 328.167,306.5 398.833,306.5 469.5,306.5C 469.5,320.167 469.5,333.833 469.5,347.5C 432.498,347.333 395.498,347.5 358.5,348C 357.263,348.232 356.263,348.732 355.5,349.5C 354.833,349.5 354.167,349.5 353.5,349.5C 353.804,348.85 354.137,348.183 354.5,347.5C 392.494,346.5 430.494,346.167 468.5,346.5C 468.5,333.5 468.5,320.5 468.5,307.5C 460.167,307.5 451.833,307.5 443.5,307.5C 381.5,307.5 319.5,307.5 257.5,307.5 Z"/></g>
<g><path style="opacity:1" fill="#6c5047" d="M 469.5,347.5 C 431.651,348.197 393.651,348.864 355.5,349.5C 356.263,348.732 357.263,348.232 358.5,348C 395.498,347.5 432.498,347.333 469.5,347.5 Z"/></g>
<g><path style="opacity:1" fill="#b66915" d="M 443.5,307.5 C 451.833,307.5 460.167,307.5 468.5,307.5C 468.5,320.5 468.5,333.5 468.5,346.5C 430.494,346.167 392.494,346.5 354.5,347.5C 354.137,348.183 353.804,348.85 353.5,349.5C 351.359,351.265 349.025,352.932 346.5,354.5C 344.374,357.655 342.541,360.988 341,364.5C 340.168,416.002 340.335,467.335 341.5,518.5C 342.004,522.5 343.337,526.166 345.5,529.5C 326.529,531.488 307.196,532.154 287.5,531.5C 287.5,531.167 287.5,530.833 287.5,530.5C 296.63,528.78 305.63,526.28 314.5,523C 319.277,521.867 323.11,519.367 326,515.5C 326.333,463.5 326.667,411.5 327,359.5C 328.043,351.746 331.876,346.079 338.5,342.5C 341.993,341.027 345.66,339.86 349.5,339C 380.832,338.5 412.165,338.333 443.5,338.5C 443.5,328.167 443.5,317.833 443.5,307.5 Z"/></g>
<g><path style="opacity:1" fill="#fcfdfd" d="M 534.5,354.5 C 535.647,402.478 535.814,450.478 535,498.5C 533.53,505.912 530.697,512.745 526.5,519C 524.833,520 523.167,521 521.5,522C 464.127,522.491 406.96,522.658 350,522.5C 348.691,520.109 347.691,520.109 347,522.5C 346.329,521.748 345.496,521.414 344.5,521.5C 343.505,469.572 343.171,417.572 343.5,365.5C 346.712,358.46 352.046,353.626 359.5,351C 414.833,350.333 470.167,350.333 525.5,351C 528.739,351.622 531.739,352.788 534.5,354.5 Z"/></g>
<g><path style="opacity:1" fill="#e8e8e9" d="M 534.5,354.5 C 539.042,357.237 541.875,361.237 543,366.5C 543.667,417.5 543.667,468.5 543,519.5C 542.209,520.745 541.709,522.078 541.5,523.5C 539.744,527.093 537.077,529.926 533.5,532C 472.763,532.829 412.096,532.662 351.5,531.5C 348.388,528.72 346.055,525.386 344.5,521.5C 345.496,521.414 346.329,521.748 347,522.5C 347.691,520.109 348.691,520.109 350,522.5C 406.96,522.658 464.127,522.491 521.5,522C 523.167,521 524.833,520 526.5,519C 530.697,512.745 533.53,505.912 535,498.5C 535.814,450.478 535.647,402.478 534.5,354.5 Z"/></g>
<g><path style="opacity:1" fill="#090b33" d="M 469.5,347.5 C 470.5,347.5 471.5,347.5 472.5,347.5C 492.019,348.215 511.686,348.881 531.5,349.5C 537.813,352.314 542.313,356.981 545,363.5C 545.667,415.833 545.667,468.167 545,520.5C 544.392,522.154 543.892,523.821 543.5,525.5C 542.5,525.167 541.833,524.5 541.5,523.5C 541.709,522.078 542.209,520.745 543,519.5C 543.667,468.5 543.667,417.5 543,366.5C 541.875,361.237 539.042,357.237 534.5,354.5C 531.739,352.788 528.739,351.622 525.5,351C 470.167,350.333 414.833,350.333 359.5,351C 352.046,353.626 346.712,358.46 343.5,365.5C 343.631,364.761 343.464,364.094 343,363.5C 342.667,364.5 342.333,365.5 342,366.5C 341.5,417.166 341.333,467.832 341.5,518.5C 340.335,467.335 340.168,416.002 341,364.5C 342.541,360.988 344.374,357.655 346.5,354.5C 349.025,352.932 351.359,351.265 353.5,349.5C 354.167,349.5 354.833,349.5 355.5,349.5C 393.651,348.864 431.651,348.197 469.5,347.5 Z"/></g>
<g><path style="opacity:1" fill="#241842" d="M 408.5,373.5 C 412.219,373.002 415.553,373.836 418.5,376C 426.375,384.21 434.542,392.044 443,399.5C 451.458,392.044 459.625,384.21 467.5,376C 472.677,372.663 477.511,373.163 482,377.5C 484,381.833 484,386.167 482,390.5C 473.833,398.667 465.667,406.833 457.5,415C 466,423.5 474.5,432 483,440.5C 484.801,452.37 479.968,456.87 468.5,454C 460.319,445.652 451.986,437.486 443.5,429.5C 435.014,437.486 426.681,445.652 418.5,454C 405.701,457.201 400.868,452.368 404,439.5C 412.348,431.319 420.514,422.986 428.5,414.5C 420.514,406.014 412.348,397.681 404,389.5C 402.632,386.262 402.299,382.928 403,379.5C 404.769,377.383 406.602,375.383 408.5,373.5 Z"/></g>
<g><path style="opacity:1" fill="#d0321d" d="M 425.5,386.5 C 426.5,389.5 428.5,391.5 431.5,392.5C 434.866,397.03 439.032,400.696 444,403.5C 446.368,401.628 448.535,399.628 450.5,397.5C 455.44,394.23 459.773,390.23 463.5,385.5C 463.328,384.508 463.662,383.842 464.5,383.5C 467.225,382.287 469.559,380.454 471.5,378C 473.134,377.506 474.801,377.34 476.5,377.5C 478.113,377.944 479.28,378.944 480,380.5C 480.652,383.594 480.318,386.594 479,389.5C 470.683,397.497 462.35,405.497 454,413.5C 453.308,414.437 453.475,415.103 454.5,415.5C 456.5,419.5 459.5,422.5 463.5,424.5C 463.5,425.833 464.167,426.5 465.5,426.5C 466.08,428.749 467.413,430.415 469.5,431.5C 473.257,434.284 476.59,437.617 479.5,441.5C 480.833,444.167 480.833,446.833 479.5,449.5C 479.119,450.931 478.119,451.764 476.5,452C 474.5,452.667 472.5,452.667 470.5,452C 467.572,449.911 465.239,447.411 463.5,444.5C 459.5,439.833 455.167,435.5 450.5,431.5C 448.176,429.194 445.509,427.194 442.5,425.5C 440.337,426.832 438.67,428.666 437.5,431C 430.64,436.526 424.307,442.86 418.5,450C 415.376,452.208 412.043,452.708 408.5,451.5C 407.37,450.378 406.703,449.044 406.5,447.5C 406.34,445.801 406.506,444.134 407,442.5C 410.038,439.631 412.871,436.631 415.5,433.5C 416.122,431.878 417.122,430.545 418.5,429.5C 423.44,426.23 427.773,422.23 431.5,417.5C 431.66,415.801 431.494,414.134 431,412.5C 422.206,404.217 413.873,395.551 406,386.5C 405.131,377.479 408.964,374.979 417.5,379C 420.062,381.733 422.729,384.233 425.5,386.5 Z"/></g>
<g><path style="opacity:1" fill="#a8393b" d="M 463.5,385.5 C 459.773,390.23 455.44,394.23 450.5,397.5C 454.227,392.77 458.56,388.77 463.5,385.5 Z"/></g>
<g><path style="opacity:1" fill="#822a3b" d="M 425.5,386.5 C 427.833,388.167 429.833,390.167 431.5,392.5C 428.5,391.5 426.5,389.5 425.5,386.5 Z"/></g>
<g><path style="opacity:1" fill="#a03943" d="M 476.5,377.5 C 474.801,377.34 473.134,377.506 471.5,378C 469.559,380.454 467.225,382.287 464.5,383.5C 466.294,381.203 468.294,379.037 470.5,377C 472.712,376.211 474.712,376.378 476.5,377.5 Z"/></g>
<g><path style="opacity:1" fill="#d78727" d="M 253.5,306.5 C 253.5,307.167 253.5,307.833 253.5,308.5C 253.167,308.5 252.833,308.5 252.5,308.5C 209.337,307.501 166.003,307.168 122.5,307.5C 122.5,381.833 122.5,456.167 122.5,530.5C 122.5,530.833 122.5,531.167 122.5,531.5C 122.167,531.5 121.833,531.5 121.5,531.5C 121.5,456.5 121.5,381.5 121.5,306.5C 165.5,306.5 209.5,306.5 253.5,306.5 Z"/></g>
<g><path style="opacity:1" fill="#84283a" d="M 454.5,415.5 C 457.833,418.167 460.833,421.167 463.5,424.5C 459.5,422.5 456.5,419.5 454.5,415.5 Z"/></g>
<g><path style="opacity:1" fill="#aa393e" d="M 431.5,417.5 C 427.773,422.23 423.44,426.23 418.5,429.5C 422.227,424.77 426.56,420.77 431.5,417.5 Z"/></g>
<g><path style="opacity:1" fill="#842d41" d="M 465.5,426.5 C 467.587,427.585 468.92,429.251 469.5,431.5C 467.413,430.415 466.08,428.749 465.5,426.5 Z"/></g>
<g><path style="opacity:1" fill="#792838" d="M 450.5,431.5 C 455.167,435.5 459.5,439.833 463.5,444.5C 458.167,441.167 453.833,436.833 450.5,431.5 Z"/></g>
<g><path style="opacity:1" fill="#a83839" d="M 415.5,433.5 C 412.871,436.631 410.038,439.631 407,442.5C 406.506,444.134 406.34,445.801 406.5,447.5C 405.378,445.712 405.211,443.712 406,441.5C 408.766,438.223 411.933,435.557 415.5,433.5 Z"/></g>
<g><path style="opacity:1" fill="#823445" d="M 479.5,441.5 C 480.993,442.312 481.66,443.645 481.5,445.5C 481.66,447.355 480.993,448.688 479.5,449.5C 480.833,446.833 480.833,444.167 479.5,441.5 Z"/></g>
<g><path style="opacity:1" fill="#6697cf" d="M 403.5,471.5 C 415.171,471.333 426.838,471.5 438.5,472C 439.833,473.667 439.833,475.333 438.5,477C 426.833,477.667 415.167,477.667 403.5,477C 402.248,475.172 402.248,473.339 403.5,471.5 Z"/></g>
<g><path style="opacity:1" fill="#6997cf" d="M 442.5,471.5 C 448.842,471.334 455.175,471.5 461.5,472C 462.833,473.667 462.833,475.333 461.5,477C 455.175,477.5 448.842,477.666 442.5,477.5C 442.5,475.5 442.5,473.5 442.5,471.5 Z"/></g>
<g><path style="opacity:1" fill="#df4023" d="M 378.5,471.5 C 388.876,471.769 391.543,476.269 386.5,485C 377.303,488.476 373.47,485.309 375,475.5C 376.376,474.295 377.542,472.962 378.5,471.5 Z"/></g>
<g><path style="opacity:1" fill="#95b0d2" d="M 434.5,486.5 C 436.857,486.337 439.19,486.503 441.5,487C 442.38,488.356 442.714,489.856 442.5,491.5C 439.5,491.5 436.5,491.5 433.5,491.5C 433.366,489.708 433.699,488.042 434.5,486.5 Z"/></g>
<g><path style="opacity:1" fill="#8eadd4" d="M 445.5,486.5 C 454.839,486.334 464.173,486.5 473.5,487C 474.38,488.356 474.714,489.856 474.5,491.5C 464.828,491.666 455.161,491.5 445.5,491C 444.272,489.51 444.272,488.01 445.5,486.5 Z"/></g>
<g><path style="opacity:1" fill="#8fadd5" d="M 492.5,486.5 C 498.842,486.334 505.175,486.5 511.5,487C 512.833,488.333 512.833,489.667 511.5,491C 504.842,491.5 498.175,491.666 491.5,491.5C 491.366,489.708 491.699,488.042 492.5,486.5 Z"/></g>
<g><path style="opacity:1" fill="#8faed5" d="M 421.5,486.5 C 424.518,486.335 427.518,486.502 430.5,487C 431.38,488.356 431.714,489.856 431.5,491.5C 427.833,491.5 424.167,491.5 420.5,491.5C 420.366,489.708 420.699,488.042 421.5,486.5 Z"/></g>
<g><path style="opacity:1" fill="#8facd0" d="M 403.5,486.5 C 407.5,486.5 411.5,486.5 415.5,486.5C 415.5,488.167 415.5,489.833 415.5,491.5C 411.167,491.5 406.833,491.5 402.5,491.5C 402.366,489.708 402.699,488.042 403.5,486.5 Z"/></g>
<g><path style="opacity:1" fill="#95b0d1" d="M 479.5,486.5 C 482.518,486.335 485.518,486.502 488.5,487C 489.38,488.356 489.714,489.856 489.5,491.5C 486.167,491.5 482.833,491.5 479.5,491.5C 479.5,489.833 479.5,488.167 479.5,486.5 Z"/></g>
<g><path style="opacity:1" fill="#97b2d1" d="M 403.5,500.5 C 405.857,500.337 408.19,500.503 410.5,501C 411.554,502.388 411.72,503.888 411,505.5C 408.599,506.602 406.099,506.769 403.5,506C 402.248,504.172 402.248,502.339 403.5,500.5 Z"/></g>
<g><path style="opacity:1" fill="#9cb5d4" d="M 415.5,500.5 C 421.842,500.334 428.175,500.5 434.5,501C 435.833,502.667 435.833,504.333 434.5,506C 428.167,506.667 421.833,506.667 415.5,506C 414.248,504.172 414.248,502.339 415.5,500.5 Z"/></g>
<g><path style="opacity:1" fill="#96b1d3" d="M 439.5,500.5 C 450.838,500.333 462.172,500.5 473.5,501C 474.406,502.699 474.739,504.533 474.5,506.5C 462.829,506.667 451.162,506.5 439.5,506C 438.248,504.172 438.248,502.339 439.5,500.5 Z"/></g>
<g><path style="opacity:1" fill="#aa7330" d="M 253.5,306.5 C 254.499,381.665 254.833,456.998 254.5,532.5C 254.167,532.5 253.833,532.5 253.5,532.5C 209.5,532.5 165.5,532.5 121.5,532.5C 121.5,532.167 121.5,531.833 121.5,531.5C 121.833,531.5 122.167,531.5 122.5,531.5C 166.167,531.5 209.833,531.5 253.5,531.5C 253.5,457.167 253.5,382.833 253.5,308.5C 253.5,307.833 253.5,307.167 253.5,306.5 Z"/></g>
<g><path style="opacity:1" fill="#8f6c45" d="M 345.5,529.5 C 346.627,530.122 347.627,530.955 348.5,532C 325.502,532.5 302.502,532.667 279.5,532.5C 279.5,532.167 279.5,531.833 279.5,531.5C 282.167,531.5 284.833,531.5 287.5,531.5C 307.196,532.154 326.529,531.488 345.5,529.5 Z"/></g>
<g><path style="opacity:1" fill="#2b2f51" d="M 541.5,523.5 C 541.833,524.5 542.5,525.167 543.5,525.5C 541.856,527.481 540.19,529.481 538.5,531.5C 551.994,532.167 565.327,532.833 578.5,533.5C 578.167,533.5 577.833,533.5 577.5,533.5C 563.753,534.138 550.253,533.471 537,531.5C 536.25,532.126 535.416,532.626 534.5,533C 504,533.167 473.5,533.333 443,533.5C 412.159,533.5 381.659,532.833 351.5,531.5C 412.096,532.662 472.763,532.829 533.5,532C 537.077,529.926 539.744,527.093 541.5,523.5 Z"/></g>
<g><path style="opacity:1" fill="#1d112c" d="M 121.5,532.5 C 165.5,532.5 209.5,532.5 253.5,532.5C 253.5,532.833 253.5,533.167 253.5,533.5C 210.002,534.665 166.335,534.831 122.5,534C 121.944,533.617 121.611,533.117 121.5,532.5 Z"/></g>
<g><path style="opacity:1" fill="#111542" d="M 343.5,365.5 C 343.171,417.572 343.505,469.572 344.5,521.5C 346.055,525.386 348.388,528.72 351.5,531.5C 381.659,532.833 412.159,533.5 443,533.5C 473.5,533.333 504,533.167 534.5,533C 535.416,532.626 536.25,532.126 537,531.5C 550.253,533.471 563.753,534.138 577.5,533.5C 577.5,534.167 577.833,534.5 578.5,534.5C 578.5,536.5 577.5,537.5 575.5,537.5C 560.676,536.504 545.676,536.171 530.5,536.5C 485.338,535.167 439.838,534.5 394,534.5C 348.5,534.667 303,534.833 257.5,535C 258.056,535.383 258.389,535.883 258.5,536.5C 257.167,536.5 255.833,536.5 254.5,536.5C 257.338,534.694 257.005,533.694 253.5,533.5C 253.5,533.167 253.5,532.833 253.5,532.5C 253.833,532.5 254.167,532.5 254.5,532.5C 255.167,532.5 255.833,532.5 256.5,532.5C 264.167,532.5 271.833,532.5 279.5,532.5C 302.502,532.667 325.502,532.5 348.5,532C 347.627,530.955 346.627,530.122 345.5,529.5C 343.337,526.166 342.004,522.5 341.5,518.5C 341.333,467.832 341.5,417.166 342,366.5C 342.333,365.5 342.667,364.5 343,363.5C 343.464,364.094 343.631,364.761 343.5,365.5 Z"/></g>
<g><path style="opacity:1" fill="#011150" d="M 118.5,532.5 C 119.5,532.5 120.5,532.5 121.5,532.5C 121.611,533.117 121.944,533.617 122.5,534C 166.335,534.831 210.002,534.665 253.5,533.5C 257.005,533.694 257.338,534.694 254.5,536.5C 185.159,537.163 116.159,536.497 47.5,534.5C 71.1667,533.833 94.8333,533.167 118.5,532.5 Z"/></g>
<g><path style="opacity:1" fill="#080816" d="M 118.5,532.5 C 94.8333,533.167 71.1667,533.833 47.5,534.5C 45.4482,535.053 45.1148,536.053 46.5,537.5C 223.666,538.666 401,538.833 578.5,538C 579.791,536.708 579.791,535.542 578.5,534.5C 577.833,534.5 577.5,534.167 577.5,533.5C 577.833,533.5 578.167,533.5 578.5,533.5C 580.745,534.828 581.078,536.661 579.5,539C 401.5,539.667 223.5,539.667 45.5,539C 44.1667,537 44.1667,535 45.5,533C 69.8311,532.5 94.1644,532.333 118.5,532.5 Z"/></g>
<g><path style="opacity:1" fill="#222b48" d="M 578.5,534.5 C 579.791,535.542 579.791,536.708 578.5,538C 401,538.833 223.666,538.666 46.5,537.5C 222.833,537.5 399.167,537.5 575.5,537.5C 577.5,537.5 578.5,536.5 578.5,534.5 Z"/></g>
<g><path style="opacity:1" fill="#031340" d="M 47.5,534.5 C 116.159,536.497 185.159,537.163 254.5,536.5C 255.833,536.5 257.167,536.5 258.5,536.5C 349.167,536.5 439.833,536.5 530.5,536.5C 545.676,536.171 560.676,536.504 575.5,537.5C 399.167,537.5 222.833,537.5 46.5,537.5C 45.1148,536.053 45.4482,535.053 47.5,534.5 Z"/></g>
<g><path style="opacity:1" fill="#02124f" d="M 530.5,536.5 C 439.833,536.5 349.167,536.5 258.5,536.5C 258.389,535.883 258.056,535.383 257.5,535C 303,534.833 348.5,534.667 394,534.5C 439.838,534.5 485.338,535.167 530.5,536.5 Z"/></g>
<g><path style="opacity:1" fill="#181f4c" d="M 202.5,561.5 C 202.67,562.822 202.337,563.989 201.5,565C 185.661,565.169 169.995,565.669 154.5,566.5C 151.963,564.368 151.963,562.201 154.5,560C 170.167,559.333 185.833,559.333 201.5,560C 202.056,560.383 202.389,560.883 202.5,561.5 Z"/></g>
<g><path style="opacity:1" fill="#161c4d" d="M 471.5,561.5 C 470.596,562.209 470.263,563.209 470.5,564.5C 454.833,564.5 439.167,564.5 423.5,564.5C 423.737,563.209 423.404,562.209 422.5,561.5C 422.611,560.883 422.944,560.383 423.5,560C 439.167,559.333 454.833,559.333 470.5,560C 471.056,560.383 471.389,560.883 471.5,561.5 Z"/></g>
<g><path style="opacity:1" fill="#24294a" d="M 221.5,560.5 C 281.332,559.335 341.332,559.168 401.5,560C 403.787,561.427 404.12,563.261 402.5,565.5C 341.837,566.5 281.17,566.833 220.5,566.5C 220.205,564.265 220.539,562.265 221.5,560.5 Z"/></g>
<g><path style="opacity:1" fill="#031142" d="M 221.5,560.5 C 280.837,560.167 340.17,560.5 399.5,561.5C 399.833,562.167 400.167,562.833 400.5,563.5C 341.167,564.833 281.833,564.833 222.5,563.5C 222.709,562.914 223.043,562.414 223.5,562C 222.584,561.722 221.918,561.222 221.5,560.5 Z"/></g>
<g><path style="opacity:1" fill="#151c3b" d="M 422.5,561.5 C 423.404,562.209 423.737,563.209 423.5,564.5C 439.167,564.5 454.833,564.5 470.5,564.5C 470.263,563.209 470.596,562.209 471.5,561.5C 472.801,562.884 472.801,564.384 471.5,566C 455.167,566.667 438.833,566.667 422.5,566C 421.199,564.384 421.199,562.884 422.5,561.5 Z"/></g>
<g><path style="opacity:1" fill="#01021a" d="M 202.5,561.5 C 203.801,562.884 203.801,564.384 202.5,566C 186.503,566.5 170.503,566.667 154.5,566.5C 169.995,565.669 185.661,565.169 201.5,565C 202.337,563.989 202.67,562.822 202.5,561.5 Z"/></g>
</svg>
