<?xml version="1.0" encoding="UTF-8"?>
<!DOCTYPE svg PUBLIC "-//W3C//DTD SVG 1.1//EN" "http://www.w3.org/Graphics/SVG/1.1/DTD/svg11.dtd">
<svg xmlns="http://www.w3.org/2000/svg" version="1.1" width="512px" height="512px" style="shape-rendering:geometricPrecision; text-rendering:geometricPrecision; image-rendering:optimizeQuality; fill-rule:evenodd; clip-rule:evenodd" xmlns:xlink="http://www.w3.org/1999/xlink">
<g><path style="opacity:0.972" fill="#020101" d="M 311.5,-0.5 C 325.833,-0.5 340.167,-0.5 354.5,-0.5C 383.249,7.76635 398.915,26.933 401.5,57C 399.607,79.1199 398.274,101.287 397.5,123.5C 415.79,123.62 426.123,132.787 428.5,151C 426.717,161.58 424.551,172.08 422,182.5C 416.351,196.904 405.851,204.904 390.5,206.5C 383.24,239.268 363.906,261.768 332.5,274C 293.21,285.565 259.71,276.398 232,246.5C 222.328,234.82 216.161,221.487 213.5,206.5C 199.277,204.775 189.11,197.441 183,184.5C 178.532,171.167 176.532,157.5 177,143.5C 182.26,129.414 192.427,122.748 207.5,123.5C 205.587,104.888 204.754,86.2215 205,67.5C 208.722,45.5533 220.889,30.3866 241.5,22C 252.696,19.0275 264.029,16.6941 275.5,15C 286.487,7.33619 298.487,2.16952 311.5,-0.5 Z"/></g>
<g><path style="opacity:1" fill="#fc9537" d="M 349.5,15.5 C 348.957,15.56 348.624,15.8933 348.5,16.5C 351.891,22.9085 353.224,29.7419 352.5,37C 351.103,63.8506 349.436,90.6839 347.5,117.5C 347.676,119.785 348.343,121.785 349.5,123.5C 331.046,121.602 314.712,114.769 300.5,103C 290.833,93.3333 281.167,83.6667 271.5,74C 267.549,71.8993 263.716,72.066 260,74.5C 248.256,98.3224 236.256,121.989 224,145.5C 222.521,122.331 221.021,99.1646 219.5,76C 220.68,57.9638 229.347,44.9638 245.5,37C 256.64,33.772 267.973,31.4386 279.5,30C 288.696,23.737 298.696,19.0704 309.5,16C 322.958,14.256 336.292,14.0893 349.5,15.5 Z"/></g>
<g><path style="opacity:1" fill="#fb840a" d="M 349.5,15.5 C 371.903,19.9445 383.903,33.6112 385.5,56.5C 384.04,86.19 382.207,115.857 380,145.5C 376.293,138.586 372.46,131.752 368.5,125C 362.285,123.584 355.952,123.084 349.5,123.5C 348.343,121.785 347.676,119.785 347.5,117.5C 349.436,90.6839 351.103,63.8506 352.5,37C 353.224,29.7419 351.891,22.9085 348.5,16.5C 348.624,15.8933 348.957,15.56 349.5,15.5 Z"/></g>
<g><path style="opacity:0.906" fill="#000000" d="M 89.5,30.5 C 92.1873,30.3359 94.854,30.5026 97.5,31C 99.3333,31.5 100.5,32.6667 101,34.5C 101.667,42.1667 101.667,49.8333 101,57.5C 97.6234,61.749 93.4567,62.5823 88.5,60C 87.283,58.3523 86.4497,56.519 86,54.5C 85.3333,48.8333 85.3333,43.1667 86,37.5C 86.1328,34.5958 87.2995,32.2624 89.5,30.5 Z"/></g>
<g><path style="opacity:0.898" fill="#000000" d="M 35.5,48.5 C 37.9892,48.2978 40.3225,48.7978 42.5,50C 46.7139,54.5455 50.5473,59.3788 54,64.5C 56.694,71.4421 54.3607,75.7754 47,77.5C 45.1072,76.8037 43.2738,75.9704 41.5,75C 38.6974,70.5639 35.5307,66.3972 32,62.5C 29.133,56.6297 30.2997,51.9631 35.5,48.5 Z"/></g>
<g><path style="opacity:0.888" fill="#000000" d="M 147.5,48.5 C 155.696,48.529 158.863,52.529 157,60.5C 153.667,65.1667 150.333,69.8333 147,74.5C 141.709,78.52 137.043,77.8533 133,72.5C 132.333,70.5 132.333,68.5 133,66.5C 136.969,59.7087 141.802,53.7087 147.5,48.5 Z"/></g>
<g><path style="opacity:0.965" fill="#020100" d="M 47.5,123.5 C 50.1553,124.001 52.322,125.334 54,127.5C 54.2871,142.073 59.9538,154.073 71,163.5C 75.3412,170.179 79.1746,177.179 82.5,184.5C 83.6888,185.429 85.0222,185.762 86.5,185.5C 86.8321,174.48 86.4988,163.48 85.5,152.5C 73.473,146.442 68.973,136.775 72,123.5C 80.1682,108.172 92.0015,104.505 107.5,112.5C 116.874,120.715 119.041,130.715 114,142.5C 111.252,147.081 107.419,150.415 102.5,152.5C 101.501,163.48 101.168,174.48 101.5,185.5C 102.978,185.762 104.311,185.429 105.5,184.5C 110.437,172.281 117.603,161.614 127,152.5C 137.858,131.777 134.358,113.944 116.5,99C 112.593,96.8786 108.593,95.0453 104.5,93.5C 94.1137,91.3363 84.1137,92.5029 74.5,97C 70.7829,100.385 66.7829,103.385 62.5,106C 59.8078,106.43 57.1411,106.263 54.5,105.5C 52.6529,102.406 52.1529,99.0723 53,95.5C 68.7622,78.6961 87.9288,73.1961 110.5,79C 141.468,92.164 153.301,115.331 146,148.5C 142.571,158.358 136.905,166.692 129,173.5C 126.707,177.252 124.54,181.086 122.5,185C 131.174,185.222 134.34,189.389 132,197.5C 130.786,199.049 129.286,200.215 127.5,201C 124.183,201.498 120.85,201.665 117.5,201.5C 119.424,215.323 114.257,225.323 102,231.5C 101.667,235.833 101.333,240.167 101,244.5C 96.2626,248.432 91.5959,248.432 87,244.5C 86.1013,239.849 85.2679,235.182 84.5,230.5C 73.1877,224.206 68.521,214.539 70.5,201.5C 62.6012,203.551 57.2678,200.885 54.5,193.5C 55.5147,187.318 59.1814,184.485 65.5,185C 63.4599,181.086 61.2933,177.252 59,173.5C 45.0497,161.317 38.7164,145.983 40,127.5C 41.7155,124.603 44.2155,123.269 47.5,123.5 Z"/></g>
<g><path style="opacity:0.996" fill="#f9e402" d="M 104.5,93.5 C 107.54,97.9719 109.206,102.972 109.5,108.5C 109.415,110.333 108.748,111.666 107.5,112.5C 92.0015,104.505 80.1682,108.172 72,123.5C 68.973,136.775 73.473,146.442 85.5,152.5C 86.4988,163.48 86.8321,174.48 86.5,185.5C 85.0222,185.762 83.6888,185.429 82.5,184.5C 79.1746,177.179 75.3412,170.179 71,163.5C 59.9538,154.073 54.2871,142.073 54,127.5C 52.322,125.334 50.1553,124.001 47.5,123.5C 48.6643,117.001 50.9977,111.001 54.5,105.5C 57.1411,106.263 59.8078,106.43 62.5,106C 66.7829,103.385 70.7829,100.385 74.5,97C 84.1137,92.5029 94.1137,91.3363 104.5,93.5 Z"/></g>
<g><path style="opacity:1" fill="#fdece4" d="M 346.5,138.5 C 345.625,152.159 344.792,165.826 344,179.5C 342.455,187.681 340.288,195.681 337.5,203.5C 335.473,203.338 333.473,203.505 331.5,204C 318.643,216.612 303.643,219.945 286.5,214C 281.277,211.443 276.61,208.109 272.5,204C 262.562,203.38 259.729,207.547 264,216.5C 278.799,229.659 295.966,234.326 315.5,230.5C 304.471,241.003 290.804,247.503 274.5,250C 269.845,250.499 265.179,250.666 260.5,250.5C 237.44,234.551 226.107,212.384 226.5,184C 226.667,180.5 226.833,177 227,173.5C 240.411,146.344 254.078,119.344 268,92.5C 281.991,109.169 298.824,122.003 318.5,131C 327.662,134.329 336.996,136.829 346.5,138.5 Z"/></g>
<g><path style="opacity:1" fill="#eed401" d="M 104.5,93.5 C 108.593,95.0453 112.593,96.8786 116.5,99C 134.358,113.944 137.858,131.777 127,152.5C 117.603,161.614 110.437,172.281 105.5,184.5C 104.311,185.429 102.978,185.762 101.5,185.5C 101.168,174.48 101.501,163.48 102.5,152.5C 107.419,150.415 111.252,147.081 114,142.5C 119.041,130.715 116.874,120.715 107.5,112.5C 108.748,111.666 109.415,110.333 109.5,108.5C 109.206,102.972 107.54,97.9719 104.5,93.5 Z"/></g>
<g><path style="opacity:1" fill="#f1dd02" d="M 90.5,123.5 C 99.7784,122.376 103.278,126.376 101,135.5C 95.1857,141.205 90.1857,140.538 86,133.5C 85.4379,129.232 86.9379,125.898 90.5,123.5 Z"/></g>
<g><path style="opacity:1" fill="#fdddcd" d="M 346.5,138.5 C 351.099,138.2 355.599,138.533 360,139.5C 365.667,150.833 371.333,162.167 377,173.5C 380.886,212.577 365.386,240.744 330.5,258C 305.707,267.449 282.373,264.949 260.5,250.5C 265.179,250.666 269.845,250.499 274.5,250C 290.804,247.503 304.471,241.003 315.5,230.5C 325.227,227.715 333.727,222.715 341,215.5C 343.749,210.295 342.582,206.295 337.5,203.5C 340.288,195.681 342.455,187.681 344,179.5C 344.792,165.826 345.625,152.159 346.5,138.5 Z"/></g>
<g><path style="opacity:1" fill="#f6d7c7" d="M 200.5,138.5 C 203.545,138.508 206.545,138.841 209.5,139.5C 209.896,153.343 210.563,167.177 211.5,181C 211.167,184.167 210.833,187.333 210.5,190.5C 203.144,187.456 198.311,182.123 196,174.5C 193.748,165.584 192.414,156.584 192,147.5C 193.688,143.315 196.521,140.315 200.5,138.5 Z"/></g>
<g><path style="opacity:1" fill="#f6c7b8" d="M 397.5,138.5 C 406.349,138.191 411.349,142.357 412.5,151C 411.258,159.21 409.758,167.377 408,175.5C 405.701,182.966 400.867,187.966 393.5,190.5C 393.167,187.833 392.833,185.167 392.5,182.5C 393.476,169.176 394.309,155.842 395,142.5C 395.48,140.867 396.313,139.534 397.5,138.5 Z"/></g>
<g><path style="opacity:1" fill="#090808" d="M 315.5,154.5 C 320.023,154.345 323.189,156.345 325,160.5C 325.667,168.167 325.667,175.833 325,183.5C 320.56,198.146 310.727,203.646 295.5,200C 289.925,194.885 290.258,190.219 296.5,186C 300.167,185.667 303.833,185.333 307.5,185C 308.308,184.692 308.975,184.192 309.5,183.5C 310.304,175.215 310.804,166.882 311,158.5C 312.397,156.93 313.897,155.596 315.5,154.5 Z"/></g>
<g><path style="opacity:1" fill="#626f82" d="M 101.5,210.5 C 101.5,207.5 101.5,204.5 101.5,201.5C 96.5,201.5 91.5,201.5 86.5,201.5C 86.5,204.5 86.5,207.5 86.5,210.5C 85.5206,207.375 85.1872,204.042 85.5,200.5C 91.1667,200.5 96.8333,200.5 102.5,200.5C 102.813,204.042 102.479,207.375 101.5,210.5 Z"/></g>
<g><path style="opacity:1" fill="#b0c7e9" d="M 101.5,210.5 C 100.874,214.74 98.3744,216.74 94,216.5C 89.6256,216.74 87.1256,214.74 86.5,210.5C 86.5,207.5 86.5,204.5 86.5,201.5C 91.5,201.5 96.5,201.5 101.5,201.5C 101.5,204.5 101.5,207.5 101.5,210.5 Z"/></g>
<g><path style="opacity:1" fill="#060605" d="M 337.5,203.5 C 342.582,206.295 343.749,210.295 341,215.5C 333.727,222.715 325.227,227.715 315.5,230.5C 295.966,234.326 278.799,229.659 264,216.5C 259.729,207.547 262.562,203.38 272.5,204C 276.61,208.109 281.277,211.443 286.5,214C 303.643,219.945 318.643,216.612 331.5,204C 333.473,203.505 335.473,203.338 337.5,203.5 Z"/></g>
<g><path style="opacity:0.992" fill="#010102" d="M 448.5,315.5 C 446.084,317.036 443.417,318.036 440.5,318.5C 434.674,315.779 428.674,313.446 422.5,311.5C 420.436,311.313 418.436,310.813 416.5,310C 403.167,309.333 389.833,309.333 376.5,310C 390.461,337.422 404.295,364.922 418,392.5C 418.5,417.831 418.667,443.164 418.5,468.5C 418.5,477.833 418.5,487.167 418.5,496.5C 434.167,496.5 449.833,496.5 465.5,496.5C 465.667,450.165 465.5,403.832 465,357.5C 463.028,350.584 460.861,343.751 458.5,337C 458.548,334.078 459.548,331.578 461.5,329.5C 465.357,328.003 468.857,328.67 472,331.5C 475.865,339.095 478.532,347.095 480,355.5C 480.667,406.167 480.667,456.833 480,507.5C 479.338,508.984 478.504,510.317 477.5,511.5C 367.833,511.5 258.167,511.5 148.5,511.5C 135.858,507.691 127.692,499.357 124,486.5C 123.667,451.833 123.333,417.167 123,382.5C 119.249,380.709 115.749,378.543 112.5,376C 97.3333,360.833 82.1667,345.667 67,330.5C 60.0605,318.347 59.7272,306.013 66,293.5C 73.1355,285.364 80.6355,277.53 88.5,270C 102.796,262.488 115.129,264.988 125.5,277.5C 137.019,263.593 150.019,262.093 164.5,273C 171.5,280 178.5,287 185.5,294C 263.5,294.333 341.5,294.667 419.5,295C 429.19,296.562 438.19,299.895 446.5,305C 449.026,308.249 449.693,311.749 448.5,315.5 Z"/></g>
<g><path style="opacity:1" fill="#fcebe3" d="M 185.5,328.5 C 185.5,353.167 185.5,377.833 185.5,402.5C 170.167,402.5 154.833,402.5 139.5,402.5C 139.5,397.5 139.5,392.5 139.5,387.5C 143.702,387.817 147.702,387.483 151.5,386.5C 155.926,384.641 157.426,381.308 156,376.5C 155.626,375.584 155.126,374.75 154.5,374C 142.837,373.753 132.17,370.419 122.5,364C 108.333,349.833 94.1667,335.667 80,321.5C 75.8788,315.335 75.5455,309.002 79,302.5C 85.1349,295.364 91.6349,288.531 98.5,282C 101.167,281.333 103.833,281.333 106.5,282C 119.138,293.637 131.471,305.637 143.5,318C 151.171,319.326 154.671,316.159 154,308.5C 149.7,303.199 145.034,298.199 140,293.5C 137.266,284.895 140.433,281.062 149.5,282C 159.637,291.136 169.47,300.636 179,310.5C 182.601,316.026 184.768,322.026 185.5,328.5 Z"/></g>
<g><path style="opacity:1" fill="#0065c2" d="M 202.5,360.5 C 201.833,349.5 201.167,338.5 200.5,327.5C 200.149,321.282 198.482,315.448 195.5,310C 206.182,309.168 216.849,309.334 227.5,310.5C 219.153,327.193 210.82,343.86 202.5,360.5 Z"/></g>
<g><path style="opacity:1" fill="#eff8fc" d="M 260.5,368.5 C 258.627,362.216 256.961,355.883 255.5,349.5C 259.241,346.444 260.407,342.444 259,337.5C 256.266,328.464 253.432,319.464 250.5,310.5C 255.802,309.337 261.136,309.171 266.5,310C 270.461,317.422 274.294,324.922 278,332.5C 277.442,350.535 276.108,368.535 274,386.5C 272.845,380.017 270.345,374.184 266.5,369C 264.527,368.505 262.527,368.338 260.5,368.5 Z"/></g>
<g><path style="opacity:1" fill="#e1384e" d="M 283.5,309.5 C 295.851,309.168 308.185,309.501 320.5,310.5C 318.167,315.167 315.833,319.833 313.5,324.5C 305.833,325.833 298.167,325.833 290.5,324.5C 287.882,319.599 285.548,314.599 283.5,309.5 Z"/></g>
<g><path style="opacity:1" fill="#eef7fb" d="M 337.5,309.5 C 342.833,309.5 348.167,309.5 353.5,309.5C 345.979,335.565 338.146,361.565 330,387.5C 328.002,369.525 326.668,351.525 326,333.5C 330.117,325.6 333.951,317.6 337.5,309.5 Z"/></g>
<g><path style="opacity:1" fill="#0066c4" d="M 422.5,311.5 C 426.729,318.638 429.896,326.304 432,334.5C 432.667,371.167 432.667,407.833 432,444.5C 429.798,453.915 425.298,461.915 418.5,468.5C 418.667,443.164 418.5,417.831 418,392.5C 404.295,364.922 390.461,337.422 376.5,310C 389.833,309.333 403.167,309.333 416.5,310C 418.436,310.813 420.436,311.313 422.5,311.5 Z"/></g>
<g><path style="opacity:1" fill="#0054a2" d="M 422.5,311.5 C 428.674,313.446 434.674,315.779 440.5,318.5C 443.417,318.036 446.084,317.036 448.5,315.5C 453.54,319.539 457.873,324.206 461.5,329.5C 459.548,331.578 458.548,334.078 458.5,337C 460.861,343.751 463.028,350.584 465,357.5C 465.5,403.832 465.667,450.165 465.5,496.5C 449.833,496.5 434.167,496.5 418.5,496.5C 418.5,487.167 418.5,477.833 418.5,468.5C 425.298,461.915 429.798,453.915 432,444.5C 432.667,407.833 432.667,371.167 432,334.5C 429.896,326.304 426.729,318.638 422.5,311.5 Z"/></g>
<g><path style="opacity:1" fill="#0571ca" d="M 255.5,349.5 C 256.961,355.883 258.627,362.216 260.5,368.5C 256.058,370.39 254.558,373.723 256,378.5C 266.934,413.803 277.768,449.136 288.5,484.5C 288.167,485.167 287.833,485.833 287.5,486.5C 269.5,475.5 251.5,464.5 233.5,453.5C 238.099,440.204 242.599,426.87 247,413.5C 248.538,408.88 247.038,405.713 242.5,404C 230.596,399.691 218.596,395.691 206.5,392C 205.572,391.612 204.905,390.945 204.5,390C 215.275,367.616 226.442,345.449 238,323.5C 241.299,331.34 244.299,339.34 247,347.5C 249.565,349.179 252.398,349.846 255.5,349.5 Z"/></g>
<g><path style="opacity:1" fill="#0470ca" d="M 365.5,322.5 C 377.148,343.792 388.314,365.459 399,387.5C 399.49,388.793 399.657,390.127 399.5,391.5C 387.426,395.024 375.426,398.858 363.5,403C 357.845,404.875 356.011,408.708 358,414.5C 362.841,427.682 366.841,441.015 370,454.5C 351.833,465.249 333.833,476.249 316,487.5C 315.83,485.155 316.163,482.821 317,480.5C 333.274,427.846 349.441,375.179 365.5,322.5 Z"/></g>
<g><path style="opacity:1" fill="#060505" d="M 122.5,325.5 C 124.199,325.34 125.866,325.506 127.5,326C 131.548,329.716 135.882,333.05 140.5,336C 152.1,335.601 162.267,339.101 171,346.5C 173.732,355.106 170.566,358.939 161.5,358C 154.976,352.248 147.31,349.915 138.5,351C 130.023,348.528 123.19,343.695 118,336.5C 116.393,331.438 117.893,327.772 122.5,325.5 Z"/></g>
<g><path style="opacity:1" fill="#00417d" d="M 200.5,327.5 C 201.167,338.5 201.833,349.5 202.5,360.5C 202.013,361.473 201.513,362.473 201,363.5C 200.5,351.505 200.333,339.505 200.5,327.5 Z"/></g>
<g><path style="opacity:1" fill="#c52d41" d="M 293.5,340.5 C 299.5,340.5 305.5,340.5 311.5,340.5C 313.057,364.182 314.89,387.849 317,411.5C 317.667,417.833 317.667,424.167 317,430.5C 312.153,446.225 307.153,461.892 302,477.5C 297,461.167 292,444.833 287,428.5C 288.065,399.052 290.232,369.719 293.5,340.5 Z"/></g>
<g><path style="opacity:1" fill="#9e938e" d="M 185.5,328.5 C 186.498,353.328 186.831,378.328 186.5,403.5C 170.5,403.5 154.5,403.5 138.5,403.5C 138.5,397.833 138.5,392.167 138.5,386.5C 142.833,386.5 147.167,386.5 151.5,386.5C 147.702,387.483 143.702,387.817 139.5,387.5C 139.5,392.5 139.5,397.5 139.5,402.5C 154.833,402.5 170.167,402.5 185.5,402.5C 185.5,377.833 185.5,353.167 185.5,328.5 Z"/></g>
<g><path style="opacity:1" fill="#003f7a" d="M 202.5,406.5 C 201.833,431.833 201.167,457.167 200.5,482.5C 200.167,456.825 200.5,431.158 201.5,405.5C 202.107,405.624 202.44,405.957 202.5,406.5 Z"/></g>
<g><path style="opacity:1" fill="#0065c3" d="M 202.5,406.5 C 212.071,409.245 221.404,412.579 230.5,416.5C 226.235,428.796 222.068,441.13 218,453.5C 216.431,458.625 217.931,462.459 222.5,465C 232.861,471.178 243.194,477.345 253.5,483.5C 236.008,484.497 218.341,484.83 200.5,484.5C 200.5,483.833 200.5,483.167 200.5,482.5C 201.167,457.167 201.833,431.833 202.5,406.5 Z"/></g>
<g><path style="opacity:1" fill="#0066c3" d="M 401.5,406.5 C 402.498,430.994 402.831,455.661 402.5,480.5C 399.521,481.317 396.521,482.151 393.5,483C 379.66,483.827 365.994,483.661 352.5,482.5C 362.806,476.345 373.139,470.178 383.5,464C 386.792,461.588 387.959,458.421 387,454.5C 382.362,441.594 378.362,428.594 375,415.5C 383.692,412.07 392.526,409.07 401.5,406.5 Z"/></g>
<g><path style="opacity:1" fill="#eff7fb" d="M 138.5,418.5 C 154.167,418.5 169.833,418.5 185.5,418.5C 185.5,423.833 185.5,429.167 185.5,434.5C 169.833,434.5 154.167,434.5 138.5,434.5C 138.5,429.167 138.5,423.833 138.5,418.5 Z"/></g>
<g><path style="opacity:1" fill="#0472cc" d="M 138.5,449.5 C 154.167,449.5 169.833,449.5 185.5,449.5C 185.667,461.171 185.5,472.838 185,484.5C 180.626,494.106 173.126,498.106 162.5,496.5C 154.259,498.032 147.426,495.698 142,489.5C 140.438,487.043 139.438,484.376 139,481.5C 138.5,470.839 138.333,460.172 138.5,449.5 Z"/></g>
<g><path style="opacity:1" fill="#0054a2" d="M 401.5,406.5 C 401.56,405.957 401.893,405.624 402.5,405.5C 403.5,435.826 403.833,466.159 403.5,496.5C 379.164,496.667 354.831,496.5 330.5,496C 337.719,491.275 345.052,486.775 352.5,482.5C 365.994,483.661 379.66,483.827 393.5,483C 396.521,482.151 399.521,481.317 402.5,480.5C 402.831,455.661 402.498,430.994 401.5,406.5 Z"/></g>
<g><path style="opacity:1" fill="#0054a1" d="M 253.5,483.5 C 260.472,487.655 267.472,491.822 274.5,496C 248.494,496.833 222.494,496.667 196.5,495.5C 198.234,491.963 199.568,488.296 200.5,484.5C 218.341,484.83 236.008,484.497 253.5,483.5 Z"/></g>
</svg>
