<?xml version="1.0" encoding="UTF-8"?>
<!DOCTYPE svg PUBLIC "-//W3C//DTD SVG 1.1//EN" "http://www.w3.org/Graphics/SVG/1.1/DTD/svg11.dtd">
<svg xmlns="http://www.w3.org/2000/svg" version="1.1" width="512px" height="512px" style="shape-rendering:geometricPrecision; text-rendering:geometricPrecision; image-rendering:optimizeQuality; fill-rule:evenodd; clip-rule:evenodd" xmlns:xlink="http://www.w3.org/1999/xlink">
<g><path style="opacity:0.985" fill="#2a8cff" d="M 266.5,87.5 C 266.5,93.1667 266.5,98.8333 266.5,104.5C 257.928,103.727 249.262,104.06 240.5,105.5C 241.045,99.5368 240.379,93.8701 238.5,88.5C 241.482,88.0371 244.482,87.7038 247.5,87.5C 247.333,70.1635 247.5,52.8301 248,35.5C 249.529,32.484 252.029,31.1506 255.5,31.5C 258.971,31.1506 261.471,32.484 263,35.5C 263.5,52.8301 263.667,70.1635 263.5,87.5C 264.5,87.5 265.5,87.5 266.5,87.5 Z"/></g>
<g><path style="opacity:0.958" fill="#3380ff" d="M 321.5,76.5 C 320.833,83.1667 320.167,89.8333 319.5,96.5C 308.258,87.0392 295.591,79.8725 281.5,75C 276.795,64.3869 280.128,59.7202 291.5,61C 302.566,64.3646 312.566,69.5313 321.5,76.5 Z"/></g>
<g><path style="opacity:0.955" fill="#2198ff" d="M 186.5,101.5 C 186.825,93.9809 186.492,86.6476 185.5,79.5C 195.426,71.0318 206.759,64.8651 219.5,61C 230.872,59.7202 234.205,64.3869 229.5,75C 213.195,80.8101 198.862,89.6434 186.5,101.5 Z"/></g>
<g><path style="opacity:0.967" fill="#1aa0ff" d="M 185.5,79.5 C 186.492,86.6476 186.825,93.9809 186.5,101.5C 175.84,113.304 167.84,126.804 162.5,142C 158.219,144.109 154.052,143.942 150,141.5C 149.015,139.634 148.515,137.634 148.5,135.5C 154.454,112.559 166.788,93.8923 185.5,79.5 Z"/></g>
<g><path style="opacity:0.961" fill="#2f86ff" d="M 266.5,87.5 C 275.236,88.9678 283.569,91.6344 291.5,95.5C 291.207,102.255 291.54,108.922 292.5,115.5C 284.292,110.656 275.625,106.989 266.5,104.5C 266.5,98.8333 266.5,93.1667 266.5,87.5 Z"/></g>
<g><path style="opacity:0.952" fill="#357fff" d="M 291.5,95.5 C 304.036,101.704 314.036,110.704 321.5,122.5C 320.167,152.833 320.167,183.167 321.5,213.5C 313.953,224.386 304.287,232.72 292.5,238.5C 291.51,232.355 291.177,226.022 291.5,219.5C 317.817,198.58 324.983,172.247 313,140.5C 308.05,130.585 301.216,122.252 292.5,115.5C 291.54,108.922 291.207,102.255 291.5,95.5 Z"/></g>
<g><path style="opacity:0.956" fill="#2296ff" d="M 238.5,88.5 C 240.379,93.8701 241.045,99.5368 240.5,105.5C 222.388,111.228 208.388,122.228 198.5,138.5C 198.826,129.651 198.493,120.984 197.5,112.5C 208.509,100.155 222.175,92.1553 238.5,88.5 Z"/></g>
<g><path style="opacity:0.963" fill="#3b76ff" d="M 321.5,76.5 C 342.326,91.1376 355.992,110.804 362.5,135.5C 362.849,138.971 361.516,141.471 358.5,143C 355.036,143.817 351.702,143.483 348.5,142C 342.218,124.584 332.551,109.418 319.5,96.5C 320.167,89.8333 320.833,83.1667 321.5,76.5 Z"/></g>
<g><path style="opacity:0.965" fill="#1f9aff" d="M 197.5,112.5 C 198.493,120.984 198.826,129.651 198.5,138.5C 186.105,169.241 192.105,195.574 216.5,217.5C 215.833,223.833 215.167,230.167 214.5,236.5C 202.095,229.096 192.428,219.096 185.5,206.5C 186.833,180.167 186.833,153.833 185.5,127.5C 188.771,121.898 192.771,116.898 197.5,112.5 Z"/></g>
<g><path style="opacity:0.97" fill="#1b9eff" d="M 185.5,127.5 C 186.833,153.833 186.833,180.167 185.5,206.5C 179.788,197.029 176.455,186.696 175.5,175.5C 171.167,175.5 166.833,175.5 162.5,175.5C 162.5,170.167 162.5,164.833 162.5,159.5C 166.833,159.5 171.167,159.5 175.5,159.5C 176.626,148.124 179.959,137.457 185.5,127.5 Z"/></g>
<g><path style="opacity:0.966" fill="#397aff" d="M 321.5,122.5 C 329.686,133.375 334.352,145.709 335.5,159.5C 338.833,159.5 342.167,159.5 345.5,159.5C 345.5,164.833 345.5,170.167 345.5,175.5C 342.167,175.5 338.833,175.5 335.5,175.5C 334.182,189.46 329.515,202.127 321.5,213.5C 320.167,183.167 320.167,152.833 321.5,122.5 Z"/></g>
<g><path style="opacity:0.964" fill="#2f86ff" d="M 269.5,138.5 C 278.492,142.824 284.159,149.824 286.5,159.5C 290.846,159.334 295.179,159.501 299.5,160C 302.516,161.529 303.849,164.029 303.5,167.5C 303.849,170.971 302.516,173.471 299.5,175C 295.179,175.499 290.846,175.666 286.5,175.5C 283.675,186.325 277.008,193.659 266.5,197.5C 266.823,191.31 266.49,185.31 265.5,179.5C 271.74,172.098 272.073,164.432 266.5,156.5C 266.5,150.5 266.5,144.5 266.5,138.5C 267.5,138.5 268.5,138.5 269.5,138.5 Z"/></g>
<g><path style="opacity:0.973" fill="#288eff" d="M 269.5,138.5 C 268.5,138.5 267.5,138.5 266.5,138.5C 266.5,144.5 266.5,150.5 266.5,156.5C 258.118,150.655 250.285,151.321 243,158.5C 237.386,174.884 243.219,182.717 260.5,182C 262.193,181.153 263.86,180.32 265.5,179.5C 266.49,185.31 266.823,191.31 266.5,197.5C 265.791,198.404 264.791,198.737 263.5,198.5C 263.666,202.846 263.499,207.179 263,211.5C 261.471,214.516 258.971,215.849 255.5,215.5C 252.029,215.849 249.529,214.516 248,211.5C 247.501,207.179 247.334,202.846 247.5,198.5C 239.851,197.007 233.851,193.007 229.5,186.5C 229.829,173.989 229.495,161.655 228.5,149.5C 232.997,142.423 239.33,138.09 247.5,136.5C 247.334,132.154 247.501,127.821 248,123.5C 249.529,120.484 252.029,119.151 255.5,119.5C 258.971,119.151 261.471,120.484 263,123.5C 263.499,127.821 263.666,132.154 263.5,136.5C 265.786,136.595 267.786,137.262 269.5,138.5 Z"/></g>
<g><path style="opacity:0.973" fill="#2495ff" d="M 228.5,149.5 C 229.495,161.655 229.829,173.989 229.5,186.5C 226.512,183.519 224.846,179.852 224.5,175.5C 220.154,175.666 215.821,175.499 211.5,175C 208.484,173.471 207.151,170.971 207.5,167.5C 207.151,164.029 208.484,161.529 211.5,160C 215.821,159.501 220.154,159.334 224.5,159.5C 224.862,155.741 226.195,152.407 228.5,149.5 Z"/></g>
<g><path style="opacity:0.944" fill="#07b8ff" d="M 82.5,155.5 C 81.5084,162.648 81.175,169.981 81.5,177.5C 74.6826,167.148 66.3493,165.814 56.5,173.5C 55.8333,167.167 55.1667,160.833 54.5,154.5C 60.7665,151.64 67.4332,150.807 74.5,152C 77.4757,152.705 80.1423,153.871 82.5,155.5 Z"/></g>
<g><path style="opacity:0.971" fill="#4c61ff" d="M 451.5,152.5 C 451.822,158.358 451.489,164.025 450.5,169.5C 441.215,166.235 434.381,168.902 430,177.5C 429.667,215.5 429.333,253.5 429,291.5C 428.881,295.005 427.714,298.005 425.5,300.5C 425.5,252.5 425.5,204.5 425.5,156.5C 433.676,151.619 442.343,150.285 451.5,152.5 Z"/></g>
<g><path style="opacity:0.944" fill="#02bdff" d="M 54.5,154.5 C 55.1667,160.833 55.8333,167.167 56.5,173.5C 55.6799,175.14 54.8466,176.807 54,178.5C 53.3333,221.167 53.3333,263.833 54,306.5C 54.662,308.813 55.162,311.146 55.5,313.5C 55.5,323.5 55.5,333.5 55.5,343.5C 45.6909,333.887 39.5242,322.221 37,308.5C 36.3333,264.5 36.3333,220.5 37,176.5C 39.2885,166.213 45.1218,158.88 54.5,154.5 Z"/></g>
<g><path style="opacity:0.971" fill="#535aff" d="M 451.5,152.5 C 463.509,155.676 471.009,163.343 474,175.5C 474.167,197.667 474.333,219.833 474.5,242C 474.642,265.873 474.142,289.706 473,313.5C 468.454,326.857 461.288,338.524 451.5,348.5C 451.826,339.651 451.493,330.984 450.5,322.5C 453.487,317.523 455.653,312.189 457,306.5C 457.667,263.833 457.667,221.167 457,178.5C 455.389,175.062 453.223,172.062 450.5,169.5C 451.489,164.025 451.822,158.358 451.5,152.5 Z"/></g>
<g><path style="opacity:0.951" fill="#0ab2ff" d="M 82.5,155.5 C 90.7574,159.641 95.924,166.307 98,175.5C 98.1668,205.506 98.6668,235.506 99.5,265.5C 102.782,263.963 106.116,262.63 109.5,261.5C 110.455,267.409 110.789,273.409 110.5,279.5C 105.542,281.476 101.542,284.643 98.5,289C 101.957,294.29 105.957,299.123 110.5,303.5C 110.5,311.167 110.5,318.833 110.5,326.5C 102.202,318.702 94.035,310.702 86,302.5C 83.8159,299.134 82.4825,295.467 82,291.5C 81.5,253.501 81.3333,215.501 81.5,177.5C 81.175,169.981 81.5084,162.648 82.5,155.5 Z"/></g>
<g><path style="opacity:1" fill="#14a6ff" d="M 162.5,159.5 C 162.5,164.833 162.5,170.167 162.5,175.5C 149.496,175.667 136.496,175.5 123.5,175C 120.484,173.471 119.151,170.971 119.5,167.5C 119.151,164.029 120.484,161.529 123.5,160C 136.496,159.5 149.496,159.333 162.5,159.5 Z"/></g>
<g><path style="opacity:1" fill="#4071ff" d="M 345.5,159.5 C 359.504,159.333 373.504,159.5 387.5,160C 390.516,161.529 391.849,164.029 391.5,167.5C 391.849,170.971 390.516,173.471 387.5,175C 373.504,175.5 359.504,175.667 345.5,175.5C 345.5,170.167 345.5,164.833 345.5,159.5 Z"/></g>
<g><path style="opacity:0.977" fill="#4966ff" d="M 425.5,156.5 C 425.5,204.5 425.5,252.5 425.5,300.5C 416.888,310.78 407.555,320.447 397.5,329.5C 396.508,322.352 396.175,315.019 396.5,307.5C 402.182,301.817 407.516,295.817 412.5,289.5C 409.036,284.377 404.37,280.71 398.5,278.5C 397.27,275.769 396.604,272.769 396.5,269.5C 396.503,266.645 396.836,263.978 397.5,261.5C 402.442,261.813 407.109,263.147 411.5,265.5C 412.333,235.172 412.833,204.839 413,174.5C 414.96,166.896 419.126,160.896 425.5,156.5 Z"/></g>
<g><path style="opacity:0.965" fill="#1aa0ff" d="M 187.5,234.5 C 186.833,241.5 186.167,248.5 185.5,255.5C 166.788,241.108 154.454,222.441 148.5,199.5C 148.151,196.029 149.484,193.529 152.5,192C 155.964,191.183 159.298,191.517 162.5,193C 167.927,208.706 176.261,222.539 187.5,234.5 Z"/></g>
<g><path style="opacity:0.963" fill="#3a77ff" d="M 320.5,259.5 C 320.5,252.167 320.5,244.833 320.5,237.5C 332.973,224.737 342.307,209.904 348.5,193C 352.781,190.891 356.948,191.058 361,193.5C 361.985,195.366 362.485,197.366 362.5,199.5C 355.897,224.716 341.897,244.716 320.5,259.5 Z"/></g>
<g><path style="opacity:0.963" fill="#2492ff" d="M 216.5,217.5 C 223.74,223.12 231.74,227.12 240.5,229.5C 240.214,235.259 240.548,240.925 241.5,246.5C 231.693,245.123 222.693,241.789 214.5,236.5C 215.167,230.167 215.833,223.833 216.5,217.5 Z"/></g>
<g><path style="opacity:0.958" fill="#2f87ff" d="M 291.5,219.5 C 291.177,226.022 291.51,232.355 292.5,238.5C 284.47,243.067 275.804,246.067 266.5,247.5C 266.5,241.833 266.5,236.167 266.5,230.5C 275.397,228.221 283.73,224.554 291.5,219.5 Z"/></g>
<g><path style="opacity:0.987" fill="#2a8cff" d="M 240.5,229.5 C 249.262,230.94 257.928,231.273 266.5,230.5C 266.5,236.167 266.5,241.833 266.5,247.5C 265.5,247.5 264.5,247.5 263.5,247.5C 263.667,264.837 263.5,282.17 263,299.5C 261.471,302.516 258.971,303.849 255.5,303.5C 252.029,303.849 249.529,302.516 248,299.5C 247.5,282.17 247.333,264.837 247.5,247.5C 245.379,247.675 243.379,247.341 241.5,246.5C 240.548,240.925 240.214,235.259 240.5,229.5 Z"/></g>
<g><path style="opacity:0.961" fill="#3380ff" d="M 320.5,237.5 C 320.5,244.833 320.5,252.167 320.5,259.5C 311.697,265.902 302.03,270.735 291.5,274C 280.128,275.28 276.795,270.613 281.5,260C 296.098,255.042 309.098,247.542 320.5,237.5 Z"/></g>
<g><path style="opacity:0.961" fill="#2197ff" d="M 187.5,234.5 C 199.549,246.015 213.549,254.515 229.5,260C 234.205,270.613 230.872,275.28 219.5,274C 206.759,270.135 195.426,263.968 185.5,255.5C 186.167,248.5 186.833,241.5 187.5,234.5 Z"/></g>
<g><path style="opacity:0.953" fill="#11abff" d="M 137.5,263.5 C 135.55,268.735 134.883,274.402 135.5,280.5C 127.296,276.946 118.963,276.613 110.5,279.5C 110.789,273.409 110.455,267.409 109.5,261.5C 116.464,260.447 123.464,260.28 130.5,261C 133.104,261.39 135.438,262.224 137.5,263.5 Z"/></g>
<g><path style="opacity:0.954" fill="#436dff" d="M 397.5,261.5 C 396.836,263.978 396.503,266.645 396.5,269.5C 396.604,272.769 397.27,275.769 398.5,278.5C 388.906,276.285 379.906,277.618 371.5,282.5C 371.823,276.31 371.49,270.31 370.5,264.5C 379.195,260.578 388.195,259.578 397.5,261.5 Z"/></g>
<g><path style="opacity:0.96" fill="#16a5ff" d="M 137.5,263.5 C 146.799,266.462 154.465,271.795 160.5,279.5C 160.5,286.833 160.5,294.167 160.5,301.5C 152.459,294.124 144.126,287.124 135.5,280.5C 134.883,274.402 135.55,268.735 137.5,263.5 Z"/></g>
<g><path style="opacity:0.96" fill="#3e73ff" d="M 370.5,264.5 C 371.49,270.31 371.823,276.31 371.5,282.5C 363.16,290.84 354.493,298.84 345.5,306.5C 345.825,298.981 345.492,291.648 344.5,284.5C 349.271,280.231 353.938,275.731 358.5,271C 362.155,268.173 366.155,266.007 370.5,264.5 Z"/></g>
<g><path style="opacity:0.961" fill="#1a9fff" d="M 160.5,279.5 C 170.105,286.805 179.105,294.805 187.5,303.5C 186.833,310.5 186.167,317.5 185.5,324.5C 176.841,317.173 168.507,309.507 160.5,301.5C 160.5,294.167 160.5,286.833 160.5,279.5 Z"/></g>
<g><path style="opacity:0.965" fill="#3978ff" d="M 344.5,284.5 C 345.492,291.648 345.825,298.981 345.5,306.5C 337.493,314.507 329.159,322.173 320.5,329.5C 320.5,321.833 320.5,314.167 320.5,306.5C 328.174,298.826 336.174,291.493 344.5,284.5 Z"/></g>
<g><path style="opacity:0.972" fill="#10abff" d="M 110.5,303.5 C 119.167,311.5 127.5,319.833 135.5,328.5C 135.5,336.167 135.5,343.833 135.5,351.5C 126.833,343.5 118.5,335.167 110.5,326.5C 110.5,318.833 110.5,311.167 110.5,303.5 Z"/></g>
<g><path style="opacity:0.98" fill="#3380ff" d="M 320.5,306.5 C 320.5,314.167 320.5,321.833 320.5,329.5C 308.481,338.353 300.647,350.02 297,364.5C 295.567,397.474 295.067,430.474 295.5,463.5C 303.833,463.5 312.167,463.5 320.5,463.5C 320.5,468.833 320.5,474.167 320.5,479.5C 310.833,479.5 301.167,479.5 291.5,479.5C 291.5,431.5 291.5,383.5 291.5,335.5C 292.75,333.068 294.25,330.734 296,328.5C 304.037,320.959 312.204,313.626 320.5,306.5 Z"/></g>
<g><path style="opacity:0.973" fill="#07b8ff" d="M 55.5,313.5 C 63.9964,326.481 72.9964,339.147 82.5,351.5C 81.8596,360.266 81.1929,368.932 80.5,377.5C 72.1667,366.167 63.8333,354.833 55.5,343.5C 55.5,333.5 55.5,323.5 55.5,313.5 Z"/></g>
<g><path style="opacity:0.954" fill="#2098ff" d="M 187.5,303.5 C 197.854,312.188 207.521,321.522 216.5,331.5C 215.833,342.833 215.167,354.167 214.5,365.5C 212.893,358.85 210.393,352.517 207,346.5C 200.301,338.635 193.135,331.302 185.5,324.5C 186.167,317.5 186.833,310.5 187.5,303.5 Z"/></g>
<g><path style="opacity:0.96" fill="#436dff" d="M 396.5,307.5 C 396.175,315.019 396.508,322.352 397.5,329.5C 389.5,338.167 381.167,346.5 372.5,354.5C 371.508,347.352 371.175,340.019 371.5,332.5C 379.5,323.833 387.833,315.5 396.5,307.5 Z"/></g>
<g><path style="opacity:0.967" fill="#4e61ff" d="M 450.5,322.5 C 451.493,330.984 451.826,339.651 451.5,348.5C 441.984,362.2 431.984,375.533 421.5,388.5C 420.507,380.016 420.174,371.349 420.5,362.5C 430.147,348.86 440.147,335.527 450.5,322.5 Z"/></g>
<g><path style="opacity:0.955" fill="#15a5ff" d="M 135.5,328.5 C 144.798,337.298 153.965,346.298 163,355.5C 164.5,364.667 160.667,368.5 151.5,367C 145.663,362.33 140.33,357.163 135.5,351.5C 135.5,343.833 135.5,336.167 135.5,328.5 Z"/></g>
<g><path style="opacity:0.993" fill="#2493ff" d="M 216.5,331.5 C 224.478,340.224 229.311,350.557 231,362.5C 231.667,400.167 231.667,437.833 231,475.5C 230.5,477.333 229.333,478.5 227.5,479C 223.514,479.499 219.514,479.666 215.5,479.5C 215.5,474.167 215.5,468.833 215.5,463.5C 215.774,430.819 215.441,398.152 214.5,365.5C 215.167,354.167 215.833,342.833 216.5,331.5 Z"/></g>
<g><path style="opacity:0.977" fill="#3f72ff" d="M 371.5,332.5 C 371.175,340.019 371.508,347.352 372.5,354.5C 368.669,359.164 364.336,363.33 359.5,367C 350.333,368.5 346.5,364.667 348,355.5C 355.702,347.631 363.535,339.964 371.5,332.5 Z"/></g>
<g><path style="opacity:0.991" fill="#3084ff" d="M 291.5,335.5 C 291.5,383.5 291.5,431.5 291.5,479.5C 288.813,479.664 286.146,479.497 283.5,479C 281.667,478.5 280.5,477.333 280,475.5C 279.333,437.5 279.333,399.5 280,361.5C 281.829,351.811 285.662,343.144 291.5,335.5 Z"/></g>
<g><path style="opacity:0.958" fill="#0bb1ff" d="M 82.5,351.5 C 92.2122,363.88 101.546,376.547 110.5,389.5C 110.827,398.682 110.493,407.682 109.5,416.5C 100.077,403.322 90.4104,390.322 80.5,377.5C 81.1929,368.932 81.8596,360.266 82.5,351.5 Z"/></g>
<g><path style="opacity:0.961" fill="#10abff" d="M 110.5,389.5 C 118.838,397.694 125.005,407.36 129,418.5C 131.227,433.407 132.06,448.407 131.5,463.5C 132.833,463.5 134.167,463.5 135.5,463.5C 135.5,468.833 135.5,474.167 135.5,479.5C 129.824,479.666 124.157,479.499 118.5,479C 116.951,477.786 115.785,476.286 115,474.5C 114.667,459.5 114.333,444.5 114,429.5C 113.261,424.863 111.761,420.529 109.5,416.5C 110.493,407.682 110.827,398.682 110.5,389.5 Z"/></g>
<g><path style="opacity:0.957" fill="#4669ff" d="M 420.5,362.5 C 420.174,371.349 420.507,380.016 421.5,388.5C 413.525,399.096 406.025,410.096 399,421.5C 398.333,424.167 397.667,426.833 397,429.5C 396.667,444.5 396.333,459.5 396,474.5C 394.924,477.079 393.091,478.746 390.5,479.5C 389.842,454.736 389.176,430.069 388.5,405.5C 398.438,390.623 409.105,376.289 420.5,362.5 Z"/></g>
<g><path style="opacity:0.966" fill="#436dff" d="M 388.5,405.5 C 389.176,430.069 389.842,454.736 390.5,479.5C 384.167,479.5 377.833,479.5 371.5,479.5C 371.5,474.167 371.5,468.833 371.5,463.5C 374.167,463.5 376.833,463.5 379.5,463.5C 379.143,450.125 379.643,436.792 381,423.5C 381.869,416.702 384.369,410.702 388.5,405.5 Z"/></g>
<g><path style="opacity:1" fill="#15a5ff" d="M 135.5,463.5 C 143.833,463.5 152.167,463.5 160.5,463.5C 160.5,468.833 160.5,474.167 160.5,479.5C 152.167,479.5 143.833,479.5 135.5,479.5C 135.5,474.167 135.5,468.833 135.5,463.5 Z"/></g>
<g><path style="opacity:1" fill="#1a9fff" d="M 160.5,463.5 C 169.167,463.5 177.833,463.5 186.5,463.5C 186.5,468.833 186.5,474.167 186.5,479.5C 177.833,479.5 169.167,479.5 160.5,479.5C 160.5,474.167 160.5,468.833 160.5,463.5 Z"/></g>
<g><path style="opacity:1" fill="#2098ff" d="M 186.5,463.5 C 196.167,463.5 205.833,463.5 215.5,463.5C 215.5,468.833 215.5,474.167 215.5,479.5C 205.833,479.5 196.167,479.5 186.5,479.5C 186.5,474.167 186.5,468.833 186.5,463.5 Z"/></g>
<g><path style="opacity:1" fill="#3979ff" d="M 320.5,463.5 C 328.833,463.5 337.167,463.5 345.5,463.5C 345.5,468.833 345.5,474.167 345.5,479.5C 337.167,479.5 328.833,479.5 320.5,479.5C 320.5,474.167 320.5,468.833 320.5,463.5 Z"/></g>
<g><path style="opacity:1" fill="#3e72ff" d="M 345.5,463.5 C 354.167,463.5 362.833,463.5 371.5,463.5C 371.5,468.833 371.5,474.167 371.5,479.5C 362.833,479.5 354.167,479.5 345.5,479.5C 345.5,474.167 345.5,468.833 345.5,463.5 Z"/></g>
</svg>
