<?xml version="1.0" encoding="UTF-8"?>
<!DOCTYPE svg PUBLIC "-//W3C//DTD SVG 1.1//EN" "http://www.w3.org/Graphics/SVG/1.1/DTD/svg11.dtd">
<svg xmlns="http://www.w3.org/2000/svg" version="1.1" width="512px" height="512px" style="shape-rendering:geometricPrecision; text-rendering:geometricPrecision; image-rendering:optimizeQuality; fill-rule:evenodd; clip-rule:evenodd" xmlns:xlink="http://www.w3.org/1999/xlink">
<g><path style="opacity:0.943" fill="#000000" d="M 76.5,-0.5 C 197.833,-0.5 319.167,-0.5 440.5,-0.5C 452.998,4.17362 460.165,13.1736 462,26.5C 462.667,172.167 462.667,317.833 462,463.5C 459.994,480.422 450.494,489.588 433.5,491C 397.5,491.667 361.5,491.667 325.5,491C 317.579,487.395 316.579,482.395 322.5,476C 359.5,475.667 396.5,475.333 433.5,475C 440.833,473.667 445.167,469.333 446.5,462C 377.167,461.5 307.834,461.333 238.5,461.5C 238.5,466.167 238.5,470.833 238.5,475.5C 257.503,475.333 276.503,475.5 295.5,476C 299.749,479.377 300.582,483.543 298,488.5C 296.352,489.717 294.519,490.55 292.5,491C 274.503,491.5 256.503,491.667 238.5,491.5C 237.278,501.049 232.278,507.716 223.5,511.5C 218.833,511.5 214.167,511.5 209.5,511.5C 200.132,505.393 190.632,499.393 181,493.5C 171.583,499.774 162.083,505.774 152.5,511.5C 148.167,511.5 143.833,511.5 139.5,511.5C 130.531,508.102 125.198,501.602 123.5,492C 109.833,491.667 96.1667,491.333 82.5,491C 67.1511,488.991 57.3178,480.491 53,465.5C 50.5478,458.025 49.2145,450.359 49,442.5C 48.0129,388.109 48.3462,333.775 50,279.5C 54.6667,274.167 59.3333,274.167 64,279.5C 64.3333,318.167 64.6667,356.833 65,395.5C 67.6692,392.836 70.8359,391.002 74.5,390C 81.771,388.7 89.1044,388.2 96.5,388.5C 96.5,263.833 96.5,139.167 96.5,14.5C 89.162,13.8586 82.162,15.0253 75.5,18C 70.2185,24.1584 67.0519,31.3251 66,39.5C 64.6927,110.476 64.0261,181.476 64,252.5C 63.5,254.333 62.3333,255.5 60.5,256C 54.2984,257.82 50.4651,255.653 49,249.5C 48.3333,182.167 48.3333,114.833 49,47.5C 49.5006,35.4972 52.5006,24.1639 58,13.5C 62.526,6.50541 68.6926,1.83875 76.5,-0.5 Z M 112.5,14.5 C 219.167,14.3333 325.834,14.5 432.5,15C 440.333,16.1667 444.833,20.6667 446,28.5C 446.667,144.167 446.667,259.833 446,375.5C 445.407,382.094 441.907,386.261 435.5,388C 327.834,388.5 220.167,388.667 112.5,388.5C 112.5,263.833 112.5,139.167 112.5,14.5 Z M 201.5,116.5 C 207.974,125.429 213.974,134.762 219.5,144.5C 208.167,145.833 196.833,145.833 185.5,144.5C 190.845,135.139 196.179,125.806 201.5,116.5 Z M 359.5,116.5 C 365.974,125.429 371.974,134.762 377.5,144.5C 366.167,145.833 354.833,145.833 343.5,144.5C 348.845,135.139 354.179,125.806 359.5,116.5 Z M 173.5,161.5 C 192.833,161.5 212.167,161.5 231.5,161.5C 230.326,166.851 227.659,171.351 223.5,175C 209.5,175.667 195.5,175.667 181.5,175C 177.341,171.351 174.674,166.851 173.5,161.5 Z M 331.5,161.5 C 350.833,161.5 370.167,161.5 389.5,161.5C 388.326,166.851 385.659,171.351 381.5,175C 367.5,175.667 353.5,175.667 339.5,175C 335.341,171.351 332.674,166.851 331.5,161.5 Z M 242.5,218.5 C 267.169,218.333 291.836,218.5 316.5,219C 319.299,222.339 318.966,225.339 315.5,228C 291.167,228.667 266.833,228.667 242.5,228C 238.581,224.84 238.581,221.673 242.5,218.5 Z M 254.5,290.5 C 258.865,299.905 262.865,309.571 266.5,319.5C 258.855,320.665 251.188,320.831 243.5,320C 247.872,310.423 251.539,300.59 254.5,290.5 Z M 444.5,401.5 C 446.45,406.735 447.117,412.402 446.5,418.5C 329.5,418.333 212.5,418.5 95.5,419C 79.8509,425.138 75.3509,435.971 82,451.5C 85.011,455.52 88.8443,458.353 93.5,460C 103.443,461.365 113.443,461.865 123.5,461.5C 123.5,466.167 123.5,470.833 123.5,475.5C 110.163,475.667 96.8292,475.5 83.5,475C 78.849,474.258 75.0157,472.092 72,468.5C 62.0068,449.482 62.0068,430.482 72,411.5C 74.3649,408.131 77.5315,405.964 81.5,405C 200.5,404.667 319.5,404.333 438.5,404C 440.852,403.76 442.852,402.927 444.5,401.5 Z M 98.5,434.5 C 106.833,434.5 115.167,434.5 123.5,434.5C 123.5,438.167 123.5,441.833 123.5,445.5C 115.493,445.666 107.493,445.5 99.5,445C 93.1784,441.897 92.845,438.397 98.5,434.5 Z M 139.5,434.5 C 167.167,434.5 194.833,434.5 222.5,434.5C 222.667,453.836 222.5,473.17 222,492.5C 218.974,495.864 215.474,496.364 211.5,494C 202.196,486.524 192.196,480.357 181.5,475.5C 179.366,475.515 177.366,476.015 175.5,477C 165.719,483.636 155.886,490.136 146,496.5C 143.097,495.931 141.097,494.265 140,491.5C 139.5,472.503 139.333,453.503 139.5,434.5 Z M 238.5,434.5 C 307.833,434.5 377.167,434.5 446.5,434.5C 446.5,438.167 446.5,441.833 446.5,445.5C 377.167,445.5 307.833,445.5 238.5,445.5C 238.5,441.833 238.5,438.167 238.5,434.5 Z"/></g>
<g><path style="opacity:0.933" fill="#000000" d="M 275.5,17.5 C 288.024,16.6672 296.524,22.0006 301,33.5C 302.139,39.4361 302.805,45.4361 303,51.5C 315.664,55.4161 326.497,62.2494 335.5,72C 345.901,79.6893 357.568,83.356 370.5,83C 373.722,81.0096 374.222,78.5096 372,75.5C 362.106,74.3226 359.106,69.3226 363,60.5C 378.83,56.3478 387.663,62.5145 389.5,79C 387.995,90.8403 381.328,97.8403 369.5,100C 378.667,115.167 387.833,130.333 397,145.5C 404.967,149.37 407.967,155.703 406,164.5C 403.482,174.375 398.316,182.541 390.5,189C 388.285,190.044 385.952,190.71 383.5,191C 368.167,191.667 352.833,191.667 337.5,191C 331.396,189.918 326.563,186.751 323,181.5C 319.53,176.226 316.864,170.56 315,164.5C 314.233,160.406 314.566,156.406 316,152.5C 319.333,149.167 322.667,145.833 326,142.5C 334.081,128.003 342.414,113.669 351,99.5C 351.483,98.552 351.649,97.552 351.5,96.5C 336.838,93.3381 324.505,86.1714 314.5,75C 310.903,72.4003 307.07,70.2336 303,68.5C 302.667,79.8333 302.333,91.1667 302,102.5C 297.862,109.527 292.862,110.194 287,104.5C 286.667,82.8333 286.333,61.1667 286,39.5C 282.529,32.6686 278.195,32.0019 273,37.5C 272.5,92.499 272.333,147.499 272.5,202.5C 277.167,202.5 281.833,202.5 286.5,202.5C 286.333,178.831 286.5,155.164 287,131.5C 290.42,127.247 294.587,126.413 299.5,129C 300.46,130.419 301.293,131.919 302,133.5C 302.5,156.498 302.667,179.498 302.5,202.5C 308.176,202.334 313.843,202.501 319.5,203C 329.681,206.018 334.681,212.851 334.5,223.5C 334.325,234.347 328.991,241.181 318.5,244C 292.167,244.667 265.833,244.667 239.5,244C 226.04,238.913 221.206,229.413 225,215.5C 227.482,209.172 231.982,205.006 238.5,203C 244.491,202.501 250.491,202.334 256.5,202.5C 256.833,158.495 256.5,114.495 255.5,70.5C 247.643,76.858 239.643,83.0247 231.5,89C 224.592,92.678 217.592,95.8446 210.5,98.5C 219.585,113.001 228.418,127.667 237,142.5C 239.023,145.52 241.69,147.854 245,149.5C 249.3,156.239 249.634,163.239 246,170.5C 237.876,189.953 223.376,196.953 202.5,191.5C 176.132,196.95 160.799,186.45 156.5,160C 156.786,153.256 159.953,148.423 166,145.5C 174.96,130.415 183.793,115.249 192.5,100C 174.272,94.05 169.438,82.55 178,65.5C 184.234,58.6375 191.567,56.9708 200,60.5C 204.107,69.0793 201.274,73.9126 191.5,75C 188.491,80.0244 189.991,82.8578 196,83.5C 207.628,82.6252 218.128,78.7919 227.5,72C 235.649,63.5165 245.149,57.0165 256,52.5C 256.333,46.5 256.667,40.5 257,34.5C 260.215,25.4451 266.382,19.7785 275.5,17.5 Z M 201.5,116.5 C 196.179,125.806 190.845,135.139 185.5,144.5C 196.833,145.833 208.167,145.833 219.5,144.5C 213.974,134.762 207.974,125.429 201.5,116.5 Z M 359.5,116.5 C 354.179,125.806 348.845,135.139 343.5,144.5C 354.833,145.833 366.167,145.833 377.5,144.5C 371.974,134.762 365.974,125.429 359.5,116.5 Z M 173.5,161.5 C 174.674,166.851 177.341,171.351 181.5,175C 195.5,175.667 209.5,175.667 223.5,175C 227.659,171.351 230.326,166.851 231.5,161.5C 212.167,161.5 192.833,161.5 173.5,161.5 Z M 331.5,161.5 C 332.674,166.851 335.341,171.351 339.5,175C 353.5,175.667 367.5,175.667 381.5,175C 385.659,171.351 388.326,166.851 389.5,161.5C 370.167,161.5 350.833,161.5 331.5,161.5 Z M 242.5,218.5 C 238.581,221.673 238.581,224.84 242.5,228C 266.833,228.667 291.167,228.667 315.5,228C 318.966,225.339 319.299,222.339 316.5,219C 291.836,218.5 267.169,218.333 242.5,218.5 Z"/></g>
<g><path style="opacity:0.928" fill="#000000" d="M 171.5,262.5 C 175.888,261.943 179.055,263.61 181,267.5C 181.5,291.498 181.667,315.498 181.5,339.5C 188.841,339.334 196.174,339.5 203.5,340C 208.069,342.541 209.569,346.375 208,351.5C 206.786,353.049 205.286,354.215 203.5,355C 192.5,355.667 181.5,355.667 170.5,355C 169.069,354.535 167.903,353.701 167,352.5C 165.359,324.562 165.025,296.562 166,268.5C 167.021,265.65 168.854,263.65 171.5,262.5 Z"/></g>
<g><path style="opacity:0.93" fill="#000000" d="M 252.5,262.5 C 259.668,262.161 264.168,265.495 266,272.5C 274.803,296.578 283.803,320.578 293,344.5C 294.167,352.667 290.667,356.167 282.5,355C 281.069,354.535 279.903,353.701 279,352.5C 276.829,347.316 274.662,342.15 272.5,337C 260.819,336.167 249.152,336.334 237.5,337.5C 235.569,342.127 233.735,346.794 232,351.5C 227.7,356.446 223.033,356.779 218,352.5C 216.424,349.718 216.257,346.884 217.5,344C 227,318.833 236.5,293.667 246,268.5C 247.494,265.686 249.66,263.686 252.5,262.5 Z M 254.5,290.5 C 251.539,300.59 247.872,310.423 243.5,320C 251.188,320.831 258.855,320.665 266.5,319.5C 262.865,309.571 258.865,299.905 254.5,290.5 Z"/></g>
<g><path style="opacity:0.93" fill="#000000" d="M 302.5,262.5 C 306.888,261.943 310.055,263.61 312,267.5C 315.415,284.578 319.082,301.578 323,318.5C 328.488,301.547 333.822,284.547 339,267.5C 342.855,261.665 347.522,260.998 353,265.5C 358.865,283.428 364.531,301.428 370,319.5C 373.668,301.826 377.335,284.159 381,266.5C 388.003,260.403 393.169,261.736 396.5,270.5C 391.272,296.14 386.105,321.807 381,347.5C 378.852,353.995 374.352,356.495 367.5,355C 365.714,354.215 364.214,353.049 363,351.5C 357.632,334.014 351.966,316.68 346,299.5C 340.733,317.301 335.066,334.968 329,352.5C 323.319,356.78 317.985,356.447 313,351.5C 307.249,324.745 301.749,297.912 296.5,271C 296.469,266.557 298.469,263.724 302.5,262.5 Z"/></g>
</svg>
