<?xml version="1.0" encoding="UTF-8"?>
<!DOCTYPE svg PUBLIC "-//W3C//DTD SVG 1.1//EN" "http://www.w3.org/Graphics/SVG/1.1/DTD/svg11.dtd">
<svg xmlns="http://www.w3.org/2000/svg" version="1.1" width="512px" height="512px" style="shape-rendering:geometricPrecision; text-rendering:geometricPrecision; image-rendering:optimizeQuality; fill-rule:evenodd; clip-rule:evenodd" xmlns:xlink="http://www.w3.org/1999/xlink">
<g><path style="opacity:0.978" fill="#020000" d="M 385.5,99.5 C 382.681,101.097 379.681,101.597 376.5,101C 374.317,98.6496 371.984,96.483 369.5,94.5C 330.5,134.167 291.167,173.5 251.5,212.5C 256.854,218.521 262.521,224.188 268.5,229.5C 274.13,235.631 279.964,241.631 286,247.5C 325,208.5 364,169.5 403,130.5C 402.735,127.18 401.069,124.513 398,122.5C 397.153,118.928 397.653,115.594 399.5,112.5C 403.222,109.835 406.889,110.002 410.5,113C 414.964,118.47 420.297,122.803 426.5,126C 430.104,128.708 432.604,132.208 434,136.5C 437.187,143.033 439.354,149.866 440.5,157C 440.383,164.734 437.216,170.901 431,175.5C 433.782,180.468 437.616,184.802 442.5,188.5C 458.929,179.066 472.762,182.066 484,197.5C 488.929,207.348 488.596,217.014 483,226.5C 453.833,255.667 424.667,284.833 395.5,314C 427.167,314.333 458.833,314.667 490.5,315C 500.725,317.065 507.725,322.899 511.5,332.5C 511.5,337.167 511.5,341.833 511.5,346.5C 506.083,359.469 496.249,365.469 482,364.5C 473.63,378.638 469.297,393.972 469,410.5C 467.688,413.238 465.522,414.572 462.5,414.5C 459.383,414.358 456.883,413.024 455,410.5C 454.501,406.179 454.334,401.846 454.5,397.5C 422.5,397.5 390.5,397.5 358.5,397.5C 352.425,396.24 350.259,392.573 352,386.5C 353.167,385.333 354.333,384.167 355.5,383C 379.498,382.5 403.498,382.333 427.5,382.5C 437.5,382.5 447.5,382.5 457.5,382.5C 458.851,375.965 461.184,369.798 464.5,364C 454.506,363.5 444.506,363.334 434.5,363.5C 354.167,363.5 273.833,363.5 193.5,363.5C 187.824,363.334 182.157,363.501 176.5,364C 171.329,370.003 165.996,375.837 160.5,381.5C 159.957,381.56 159.624,381.893 159.5,382.5C 206.162,383.5 252.829,383.833 299.5,383.5C 304.473,385.812 305.64,389.479 303,394.5C 301.512,396.16 299.679,397.16 297.5,397.5C 249.167,397.5 200.833,397.5 152.5,397.5C 152.177,404.022 152.51,410.355 153.5,416.5C 154.025,428.556 157.192,439.89 163,450.5C 164.011,451.337 165.178,451.67 166.5,451.5C 265.836,451.833 365.169,451.5 464.5,450.5C 464.376,449.893 464.043,449.56 463.5,449.5C 461.69,445.69 461.19,441.69 462,437.5C 463.397,435.93 464.897,434.596 466.5,433.5C 469.862,433.07 472.695,434.07 475,436.5C 477.167,440.833 479.333,445.167 481.5,449.5C 495.695,448.916 505.695,454.916 511.5,467.5C 511.5,472.5 511.5,477.5 511.5,482.5C 508.281,490.881 502.281,496.381 493.5,499C 383.833,499.667 274.167,499.667 164.5,499C 151.442,495.069 145.109,486.235 145.5,472.5C 132.617,475.386 122.784,471.386 116,460.5C 112.451,454.07 109.451,447.404 107,440.5C 91.5,457.333 76,474.167 60.5,491C 46.1437,501.085 31.1437,502.085 15.5,494C 7.58049,488.261 2.24715,480.761 -0.5,471.5C -0.5,465.833 -0.5,460.167 -0.5,454.5C 2.76164,444.858 8.42831,436.692 16.5,430C 50.8333,398.333 85.1667,366.667 119.5,335C 123.444,331.97 127.444,331.803 131.5,334.5C 133.832,337.685 133.999,341.019 132,344.5C 94.3333,379.5 56.6667,414.5 19,449.5C 13.7051,457.234 13.2051,465.234 17.5,473.5C 22.8525,481.84 30.5192,485.34 40.5,484C 44.7939,482.855 48.4606,480.688 51.5,477.5C 97.8506,427.65 144.017,377.65 190,327.5C 190.667,326.5 190.667,325.5 190,324.5C 185.964,320.296 181.798,316.296 177.5,312.5C 176.188,310.521 174.521,308.855 172.5,307.5C 167.009,312.823 161.342,317.989 155.5,323C 151.643,323.758 147.977,323.258 144.5,321.5C 142.895,317.576 143.395,313.909 146,310.5C 151.833,305.333 157.667,300.167 163.5,295C 159.121,274.699 167.288,263.199 188,260.5C 191.205,260.393 194.205,261.06 197,262.5C 209.405,248.018 221.572,233.351 233.5,218.5C 230.413,216.872 227.58,214.872 225,212.5C 221.725,205.616 218.725,198.616 216,191.5C 215.333,187.167 215.333,182.833 216,178.5C 218.851,173.719 221.518,169.053 224,164.5C 220.318,160.651 216.485,156.984 212.5,153.5C 194.523,163.456 180.356,159.456 170,141.5C 166.648,131.627 167.982,122.293 174,113.5C 206.167,81.3333 238.333,49.1667 270.5,17C 285.789,7.93815 299.289,10.1048 311,23.5C 316.961,33.898 316.961,44.2314 311,54.5C 310.333,55.5 310.333,56.5 311,57.5C 314.667,61.1667 318.333,64.8333 322,68.5C 329.645,59.3956 339.145,56.5623 350.5,60C 356.167,62.3333 361.833,64.6667 367.5,67C 371.194,69.6867 373.694,73.1867 375,77.5C 378.333,80.8333 381.667,84.1667 385,87.5C 388.03,91.4438 388.197,95.4438 385.5,99.5 Z M 278.5,265.5 C 279.496,265.414 280.329,265.748 281,266.5C 282.061,269.562 283.894,272.062 286.5,274C 293.606,277.553 300.939,280.553 308.5,283C 318.654,284.949 326.821,281.782 333,273.5C 337.167,277.667 341.333,281.833 345.5,286C 339.149,294.784 338.149,304.117 342.5,314C 307.835,314.5 273.168,314.667 238.5,314.5C 238.77,310.15 238.103,305.983 236.5,302C 250.693,289.968 264.693,277.802 278.5,265.5 Z"/></g>
<g><path style="opacity:1" fill="#843d2f" d="M 284.5,26.5 C 297.73,27.5311 302.23,34.1978 298,46.5C 266.5,78 235,109.5 203.5,141C 194.297,145.651 187.797,143.151 184,133.5C 183.159,129.88 183.826,126.546 186,123.5C 218.423,90.5755 251.257,58.2421 284.5,26.5 Z"/></g>
<g><path style="opacity:1" fill="#b95c4e" d="M 297.5,67.5 C 302.573,71.0656 307.24,75.2323 311.5,80C 286.667,104.833 261.833,129.667 237,154.5C 233,150.5 229,146.5 225,142.5C 224.333,141.833 224.333,141.167 225,140.5C 249.368,116.299 273.535,91.9653 297.5,67.5 Z"/></g>
<g><path style="opacity:1" fill="#863e2f" d="M 339.5,73.5 C 346.936,75.2164 353.936,78.0497 360.5,82C 319.986,122.68 279.32,163.18 238.5,203.5C 234.486,196.953 231.986,189.953 231,182.5C 267.368,146.299 303.535,109.965 339.5,73.5 Z"/></g>
<g><path style="opacity:0.999" fill="#fbc06b" d="M 385.5,99.5 C 388.167,101.5 390.5,103.833 392.5,106.5C 351.241,147.425 309.908,188.425 268.5,229.5C 262.521,224.188 256.854,218.521 251.5,212.5C 291.167,173.5 330.5,134.167 369.5,94.5C 371.984,96.483 374.317,98.6496 376.5,101C 379.681,101.597 382.681,101.097 385.5,99.5 Z"/></g>
<g><path style="opacity:1" fill="#faa52e" d="M 392.5,106.5 C 394.833,108.5 397.167,110.5 399.5,112.5C 397.653,115.594 397.153,118.928 398,122.5C 401.069,124.513 402.735,127.18 403,130.5C 364,169.5 325,208.5 286,247.5C 279.964,241.631 274.13,235.631 268.5,229.5C 309.908,188.425 351.241,147.425 392.5,106.5 Z"/></g>
<g><path style="opacity:1" fill="#6a3227" d="M 415.5,138.5 C 416.496,138.414 417.329,138.748 418,139.5C 422.089,145.981 424.089,152.981 424,160.5C 388.5,196 353,231.5 317.5,267C 315.635,268.301 313.635,268.635 311.5,268C 306.5,265.833 301.5,263.667 296.5,261.5C 295.417,260.635 295.251,259.635 296,258.5C 336.035,218.632 375.868,178.632 415.5,138.5 Z"/></g>
<g><path style="opacity:1" fill="#9f4d3f" d="M 417.5,187.5 C 422.406,190.898 426.906,194.898 431,199.5C 431.667,200.167 431.667,200.833 431,201.5C 406.833,225.667 382.667,249.833 358.5,274C 357.833,274.667 357.167,274.667 356.5,274C 352.667,270.167 348.833,266.333 345,262.5C 344.333,261.833 344.333,261.167 345,260.5C 369.368,236.299 393.535,211.965 417.5,187.5 Z"/></g>
<g><path style="opacity:1" fill="#6b3227" d="M 455.5,198.5 C 468.572,198.724 473.405,205.057 470,217.5C 437.833,249.667 405.667,281.833 373.5,314C 365.47,316.907 359.636,314.407 356,306.5C 355.183,303.036 355.517,299.702 357,296.5C 389.728,263.605 422.562,230.938 455.5,198.5 Z"/></g>
<g><path style="opacity:1" fill="#6a3227" d="M 215.5,277.5 C 223.465,270.036 231.298,262.369 239,254.5C 242.631,248.984 242.131,243.984 237.5,239.5C 240.118,235.709 242.951,232.043 246,228.5C 253.667,236.167 261.333,243.833 269,251.5C 269.667,252.167 269.667,252.833 269,253.5C 255,265.5 241,277.5 227,289.5C 222.963,285.631 219.13,281.631 215.5,277.5 Z"/></g>
<g><path style="opacity:1" fill="#843d2f" d="M 237.5,239.5 C 242.131,243.984 242.631,248.984 239,254.5C 231.298,262.369 223.465,270.036 215.5,277.5C 213.37,275.873 211.37,274.04 209.5,272C 218.324,260.68 227.658,249.846 237.5,239.5 Z"/></g>
<g><path style="opacity:1" fill="#b75b4e" d="M 211.5,295.5 C 209.598,303.069 204.932,308.069 197.5,310.5C 191.202,304.703 185.035,298.703 179,292.5C 175.604,280.559 180.104,275.392 192.5,277C 199.337,282.671 205.671,288.838 211.5,295.5 Z"/></g>
<g><path style="opacity:1" fill="#a04d3f" d="M 211.5,295.5 C 215.498,298.665 218.998,302.332 222,306.5C 224.052,317.448 219.552,322.281 208.5,321C 204.332,317.998 200.665,314.498 197.5,310.5C 204.932,308.069 209.598,303.069 211.5,295.5 Z"/></g>
<g><path style="opacity:0.999" fill="#853e2f" d="M 177.5,312.5 C 133.54,360.963 89.3731,409.296 45,457.5C 38.1381,466.875 28.9714,472.209 17.5,473.5C 13.2051,465.234 13.7051,457.234 19,449.5C 56.6667,414.5 94.3333,379.5 132,344.5C 133.999,341.019 133.832,337.685 131.5,334.5C 136.14,330.527 140.473,326.194 144.5,321.5C 147.977,323.258 151.643,323.758 155.5,323C 161.342,317.989 167.009,312.823 172.5,307.5C 174.521,308.855 176.188,310.521 177.5,312.5 Z"/></g>
<g><path style="opacity:1" fill="#6b3227" d="M 177.5,312.5 C 181.798,316.296 185.964,320.296 190,324.5C 190.667,325.5 190.667,326.5 190,327.5C 144.017,377.65 97.8506,427.65 51.5,477.5C 48.4606,480.688 44.7939,482.855 40.5,484C 30.5192,485.34 22.8525,481.84 17.5,473.5C 28.9714,472.209 38.1381,466.875 45,457.5C 89.3731,409.296 133.54,360.963 177.5,312.5 Z"/></g>
<g><path style="opacity:1" fill="#fa3981" d="M 469.5,330.5 C 472.045,336.44 472.045,342.44 469.5,348.5C 382.5,348.5 295.5,348.5 208.5,348.5C 212.404,344.352 216.071,340.019 219.5,335.5C 222.752,334.541 225.752,333.041 228.5,331C 308.833,330.5 389.166,330.333 469.5,330.5 Z"/></g>
<g><path style="opacity:1" fill="#f81465" d="M 469.5,330.5 C 476.508,330.334 483.508,330.5 490.5,331C 496.544,333.932 498.044,338.432 495,344.5C 493.786,346.049 492.286,347.215 490.5,348C 483.508,348.5 476.508,348.666 469.5,348.5C 472.045,342.44 472.045,336.44 469.5,330.5 Z"/></g>
<g><path style="opacity:1" fill="#f61464" d="M 219.5,335.5 C 216.071,340.019 212.404,344.352 208.5,348.5C 202.824,348.666 197.157,348.499 191.5,348C 194.934,343.81 198.6,339.81 202.5,336C 208.19,336.636 213.856,336.469 219.5,335.5 Z"/></g>
<g><path style="opacity:1" fill="#cabcb8" d="M 193.5,363.5 C 188.144,369.853 182.81,376.186 177.5,382.5C 171.642,382.822 165.975,382.489 160.5,381.5C 165.996,375.837 171.329,370.003 176.5,364C 182.157,363.501 187.824,363.334 193.5,363.5 Z"/></g>
<g><path style="opacity:1" fill="#dfd2cd" d="M 193.5,363.5 C 273.833,363.5 354.167,363.5 434.5,363.5C 431.573,369.614 429.24,375.948 427.5,382.5C 403.498,382.333 379.498,382.5 355.5,383C 354.333,384.167 353.167,385.333 352,386.5C 350.259,392.573 352.425,396.24 358.5,397.5C 380.327,398.497 402.327,398.831 424.5,398.5C 422.74,416.858 426.073,434.191 434.5,450.5C 344.998,450.167 255.665,450.501 166.5,451.5C 165.178,451.67 164.011,451.337 163,450.5C 157.192,439.89 154.025,428.556 153.5,416.5C 153.335,413.482 153.502,410.482 154,407.5C 156.128,404.37 158.628,401.537 161.5,399C 207.002,398.833 252.335,398.333 297.5,397.5C 299.679,397.16 301.512,396.16 303,394.5C 305.64,389.479 304.473,385.812 299.5,383.5C 259.003,382.501 218.337,382.168 177.5,382.5C 182.81,376.186 188.144,369.853 193.5,363.5 Z"/></g>
<g><path style="opacity:1" fill="#ccbeba" d="M 434.5,363.5 C 444.506,363.334 454.506,363.5 464.5,364C 461.184,369.798 458.851,375.965 457.5,382.5C 447.5,382.5 437.5,382.5 427.5,382.5C 429.24,375.948 431.573,369.614 434.5,363.5 Z"/></g>
<g><path style="opacity:1" fill="#1e1c1b" d="M 160.5,381.5 C 165.975,382.489 171.642,382.822 177.5,382.5C 218.337,382.168 259.003,382.501 299.5,383.5C 252.829,383.833 206.162,383.5 159.5,382.5C 159.624,381.893 159.957,381.56 160.5,381.5 Z"/></g>
<g><path style="opacity:1" fill="#bcb1ad" d="M 297.5,397.5 C 252.335,398.333 207.002,398.833 161.5,399C 158.628,401.537 156.128,404.37 154,407.5C 153.502,410.482 153.335,413.482 153.5,416.5C 152.51,410.355 152.177,404.022 152.5,397.5C 200.833,397.5 249.167,397.5 297.5,397.5 Z"/></g>
<g><path style="opacity:1" fill="#cbbdb9" d="M 358.5,397.5 C 390.5,397.5 422.5,397.5 454.5,397.5C 454.334,401.846 454.501,406.179 455,410.5C 456.883,413.024 459.383,414.358 462.5,414.5C 463.071,421.025 464.405,427.359 466.5,433.5C 464.897,434.596 463.397,435.93 462,437.5C 461.19,441.69 461.69,445.69 463.5,449.5C 454.014,450.494 444.348,450.827 434.5,450.5C 426.073,434.191 422.74,416.858 424.5,398.5C 402.327,398.831 380.327,398.497 358.5,397.5 Z"/></g>
<g><path style="opacity:1" fill="#f61464" d="M 136.5,407.5 C 137.167,410.5 137.833,413.5 138.5,416.5C 138.5,418.167 138.5,419.833 138.5,421.5C 138.649,422.552 138.483,423.552 138,424.5C 133.151,429.575 128.318,434.575 123.5,439.5C 122.171,435.179 120.838,430.846 119.5,426.5C 124.818,419.849 130.485,413.515 136.5,407.5 Z"/></g>
<g><path style="opacity:1" fill="#76092f" d="M 136.5,407.5 C 136.56,406.957 136.893,406.624 137.5,406.5C 138.487,409.768 138.82,413.102 138.5,416.5C 137.833,413.5 137.167,410.5 136.5,407.5 Z"/></g>
<g><path style="opacity:1" fill="#040404" d="M 206.5,416.5 C 266.501,416.333 326.501,416.5 386.5,417C 393.167,421.667 393.167,426.333 386.5,431C 326.5,431.667 266.5,431.667 206.5,431C 203.365,429.734 201.698,427.401 201.5,424C 202.299,420.896 203.966,418.396 206.5,416.5 Z"/></g>
<g><path style="opacity:1" fill="#f4387e" d="M 138.5,421.5 C 140.383,433.16 143.716,444.493 148.5,455.5C 143.36,456.488 138.026,456.821 132.5,456.5C 128.737,451.312 125.737,445.645 123.5,439.5C 128.318,434.575 133.151,429.575 138,424.5C 138.483,423.552 138.649,422.552 138.5,421.5 Z"/></g>
<g><path style="opacity:1" fill="#76706d" d="M 463.5,449.5 C 464.043,449.56 464.376,449.893 464.5,450.5C 365.169,451.5 265.836,451.833 166.5,451.5C 255.665,450.501 344.998,450.167 434.5,450.5C 444.348,450.827 454.014,450.494 463.5,449.5 Z"/></g>
<g><path style="opacity:1" fill="#611632" d="M 148.5,455.5 C 149.043,455.56 149.376,455.893 149.5,456.5C 143.68,457.816 138.013,457.816 132.5,456.5C 138.026,456.821 143.36,456.488 148.5,455.5 Z"/></g>
<g><path style="opacity:1" fill="#ef377b" d="M 489.5,466.5 C 482.825,466.334 476.158,466.5 469.5,467C 472.105,472.306 472.105,477.639 469.5,483C 476.158,483.5 482.825,483.666 489.5,483.5C 382.334,484.666 275.001,484.833 167.5,484C 161.533,480.608 160.033,475.774 163,469.5C 164.579,467.959 166.413,466.792 168.5,466C 275.667,465.167 382.667,465.334 489.5,466.5 Z"/></g>
<g><path style="opacity:1" fill="#f81465" d="M 489.5,466.5 C 496.427,468.988 498.261,473.655 495,480.5C 493.512,482.16 491.679,483.16 489.5,483.5C 482.825,483.666 476.158,483.5 469.5,483C 472.105,477.639 472.105,472.306 469.5,467C 476.158,466.5 482.825,466.334 489.5,466.5 Z"/></g>
</svg>
