<?xml version="1.0" encoding="UTF-8"?>
<!DOCTYPE svg PUBLIC "-//W3C//DTD SVG 1.1//EN" "http://www.w3.org/Graphics/SVG/1.1/DTD/svg11.dtd">
<svg xmlns="http://www.w3.org/2000/svg" version="1.1" width="512px" height="512px" style="shape-rendering:geometricPrecision; text-rendering:geometricPrecision; image-rendering:optimizeQuality; fill-rule:evenodd; clip-rule:evenodd" xmlns:xlink="http://www.w3.org/1999/xlink">
<g><path style="opacity:0.933" fill="#000000" d="M 63.5,81.5 C 191.5,81.3333 319.5,81.5 447.5,82C 470.119,86.9523 483.619,100.786 488,123.5C 488.667,211.5 488.667,299.5 488,387.5C 483.509,410.658 469.676,424.491 446.5,429C 319.167,429.667 191.833,429.667 64.5,429C 41.75,424.583 27.9167,411.083 23,388.5C 22.3333,299.833 22.3333,211.167 23,122.5C 28.0142,100.32 41.5142,86.6531 63.5,81.5 Z M 65.5,96.5 C 146.833,96.5 228.167,96.5 309.5,96.5C 309.5,115.167 309.5,133.833 309.5,152.5C 218.833,152.5 128.167,152.5 37.5,152.5C 37.1254,141.778 37.6254,131.111 39,120.5C 43.9437,108.05 52.777,100.05 65.5,96.5 Z M 324.5,96.5 C 347.167,96.5 369.833,96.5 392.5,96.5C 392.667,128.835 392.5,161.168 392,193.5C 382.5,185.333 373,177.167 363.5,169C 359.666,166.963 355.999,167.296 352.5,170C 343.333,177.833 334.167,185.667 325,193.5C 324.5,161.168 324.333,128.835 324.5,96.5 Z M 407.5,96.5 C 420.171,96.3334 432.838,96.5001 445.5,97C 458.822,100.322 467.655,108.489 472,121.5C 473.399,131.768 473.899,142.102 473.5,152.5C 451.5,152.5 429.5,152.5 407.5,152.5C 407.5,133.833 407.5,115.167 407.5,96.5 Z M 37.5,167.5 C 128.167,167.5 218.833,167.5 309.5,167.5C 309.333,182.837 309.5,198.17 310,213.5C 311.312,216.581 313.645,218.248 317,218.5C 318.399,217.773 319.899,217.273 321.5,217C 333.833,206.5 346.167,196 358.5,185.5C 370.353,195.854 382.353,206.021 394.5,216C 399.478,219.214 403.645,218.38 407,213.5C 407.5,198.17 407.667,182.837 407.5,167.5C 429.5,167.5 451.5,167.5 473.5,167.5C 473.667,240.167 473.5,312.834 473,385.5C 469.602,400.564 460.436,410.064 445.5,414C 318.833,414.667 192.167,414.667 65.5,414C 51,410.167 41.8333,401 38,386.5C 37.5,313.501 37.3333,240.501 37.5,167.5 Z M 137.5,218.5 C 173.682,215.666 199.849,230.333 216,262.5C 224.16,283.979 223.16,304.979 213,325.5C 201.812,314.319 188.645,306.319 173.5,301.5C 182.655,287.978 182.822,274.312 174,260.5C 157.678,244.937 141.012,244.603 124,259.5C 114.174,273.391 114.008,287.391 123.5,301.5C 108.729,306.046 96.0627,313.879 85.5,325C 84.6683,325.688 84.0016,325.521 83.5,324.5C 68.2752,288.235 75.6085,257.402 105.5,232C 115.424,225.533 126.09,221.033 137.5,218.5 Z M 145.5,263.5 C 162.922,265.077 168.755,274.077 163,290.5C 153.954,300.603 144.621,300.937 135,291.5C 128.352,278.27 131.852,268.936 145.5,263.5 Z M 138.5,313.5 C 164.543,311.339 186.21,319.839 203.5,339C 181.415,362.856 154.748,369.856 123.5,360C 111.359,355.674 101.359,348.507 93.5,338.5C 105.768,325.201 120.768,316.867 138.5,313.5 Z"/></g>
<g><path style="opacity:0.925" fill="#000000" d="M 147.5,202.5 C 195.608,205.626 225.108,230.626 236,277.5C 240.24,319.527 224.073,350.694 187.5,371C 146.232,387.681 110.398,379.847 80,347.5C 59.7657,320.757 55.099,291.423 66,259.5C 81.6793,224.077 108.846,205.077 147.5,202.5 Z M 137.5,218.5 C 126.09,221.033 115.424,225.533 105.5,232C 75.6085,257.402 68.2752,288.235 83.5,324.5C 84.0016,325.521 84.6683,325.688 85.5,325C 96.0627,313.879 108.729,306.046 123.5,301.5C 114.008,287.391 114.174,273.391 124,259.5C 141.012,244.603 157.678,244.937 174,260.5C 182.822,274.312 182.655,287.978 173.5,301.5C 188.645,306.319 201.812,314.319 213,325.5C 223.16,304.979 224.16,283.979 216,262.5C 199.849,230.333 173.682,215.666 137.5,218.5 Z M 145.5,263.5 C 131.852,268.936 128.352,278.27 135,291.5C 144.621,300.937 153.954,300.603 163,290.5C 168.755,274.077 162.922,265.077 145.5,263.5 Z M 138.5,313.5 C 120.768,316.867 105.768,325.201 93.5,338.5C 101.359,348.507 111.359,355.674 123.5,360C 154.748,369.856 181.415,362.856 203.5,339C 186.21,319.839 164.543,311.339 138.5,313.5 Z"/></g>
<g><path style="opacity:0.936" fill="#000000" d="M 277.5,234.5 C 333.834,234.333 390.168,234.5 446.5,235C 453.616,238.598 454.282,243.264 448.5,249C 391.167,249.667 333.833,249.667 276.5,249C 272.788,246.487 271.622,242.987 273,238.5C 274.397,236.93 275.897,235.596 277.5,234.5 Z"/></g>
<g><path style="opacity:0.932" fill="#000000" d="M 277.5,283.5 C 333.834,283.333 390.168,283.5 446.5,284C 453.616,287.598 454.282,292.264 448.5,298C 391.167,298.667 333.833,298.667 276.5,298C 272.788,295.487 271.622,291.987 273,287.5C 274.397,285.93 275.897,284.596 277.5,283.5 Z"/></g>
<g><path style="opacity:0.935" fill="#000000" d="M 277.5,332.5 C 333.834,332.333 390.168,332.5 446.5,333C 450.277,333.779 452.277,336.112 452.5,340C 452.189,342.96 450.855,345.294 448.5,347C 390.833,347.667 333.167,347.667 275.5,347C 271.002,341.32 271.669,336.487 277.5,332.5 Z"/></g>
</svg>
