<?xml version="1.0" encoding="UTF-8"?>
<!DOCTYPE svg PUBLIC "-//W3C//DTD SVG 1.1//EN" "http://www.w3.org/Graphics/SVG/1.1/DTD/svg11.dtd">
<svg xmlns="http://www.w3.org/2000/svg" version="1.1" width="512px" height="512px" style="shape-rendering:geometricPrecision; text-rendering:geometricPrecision; image-rendering:optimizeQuality; fill-rule:evenodd; clip-rule:evenodd" xmlns:xlink="http://www.w3.org/1999/xlink">
<g><path style="opacity:0.984" fill="#363d3d" d="M 63.5,81.5 C 191.167,81.3333 318.834,81.5 446.5,82C 469.667,86.5 483.5,100.333 488,123.5C 488.667,211.833 488.667,300.167 488,388.5C 483.048,411.119 469.214,424.619 446.5,429C 319.167,429.667 191.833,429.667 64.5,429C 41.7856,424.619 27.9523,411.119 23,388.5C 22.3333,299.833 22.3333,211.167 23,122.5C 28.0142,100.32 41.5142,86.6531 63.5,81.5 Z"/></g>
<g><path style="opacity:1" fill="#4e555c" d="M 66.5,96.5 C 147.665,95.5007 228.998,95.1674 310.5,95.5C 310.83,115.007 310.497,134.341 309.5,153.5C 309.5,134.5 309.5,115.5 309.5,96.5C 228.5,96.5 147.5,96.5 66.5,96.5 Z"/></g>
<g><path style="opacity:1" fill="#606873" d="M 66.5,96.5 C 147.5,96.5 228.5,96.5 309.5,96.5C 309.5,115.5 309.5,134.5 309.5,153.5C 218.5,153.5 127.5,153.5 36.5,153.5C 36.3335,144.161 36.5002,134.827 37,125.5C 40.7654,109.567 50.5987,99.9006 66.5,96.5 Z"/></g>
<g><path style="opacity:1" fill="#197698" d="M 391.5,193.5 C 392.498,161.338 392.832,129.004 392.5,96.5C 369.833,96.5 347.167,96.5 324.5,96.5C 324.5,129.167 324.5,161.833 324.5,194.5C 323.501,162.24 323.167,129.24 323.5,95.5C 346.833,95.5 370.167,95.5 393.5,95.5C 393.667,128.835 393.5,162.168 393,195.5C 392.283,194.956 391.783,194.289 391.5,193.5 Z"/></g>
<g><path style="opacity:1" fill="#00a4df" d="M 391.5,193.5 C 382.04,185.878 372.706,178.044 363.5,170C 360.167,168 356.833,168 353.5,170C 343.961,178.377 334.294,186.544 324.5,194.5C 324.5,161.833 324.5,129.167 324.5,96.5C 347.167,96.5 369.833,96.5 392.5,96.5C 392.832,129.004 392.498,161.338 391.5,193.5 Z"/></g>
<g><path style="opacity:1" fill="#606873" d="M 407.5,96.5 C 420.504,96.3334 433.504,96.5001 446.5,97C 459.796,100.295 468.63,108.462 473,121.5C 474.403,132.102 474.903,142.769 474.5,153.5C 452.167,153.5 429.833,153.5 407.5,153.5C 407.5,134.5 407.5,115.5 407.5,96.5 Z"/></g>
<g><path style="opacity:1" fill="#fda331" d="M 36.5,167.5 C 127.5,167.5 218.5,167.5 309.5,167.5C 309.333,182.504 309.5,197.504 310,212.5C 312.665,217.434 316.498,218.601 321.5,216C 333.98,205.687 346.314,195.187 358.5,184.5C 371.205,194.526 383.538,205.026 395.5,216C 400.502,218.601 404.335,217.434 407,212.5C 407.5,197.504 407.667,182.504 407.5,167.5C 429.833,167.5 452.167,167.5 474.5,167.5C 474.667,239.501 474.5,311.501 474,383.5C 470.969,400.865 460.802,411.365 443.5,415C 318.167,415.667 192.833,415.667 67.5,415C 50.6795,411.513 40.5129,401.346 37,384.5C 36.5,312.167 36.3333,239.834 36.5,167.5 Z"/></g>
<g><path style="opacity:1" fill="#383f3e" d="M 137.5,203.5 C 181.71,201.505 212.876,220.505 231,260.5C 242.858,297.53 235.025,329.696 207.5,357C 179.948,379.76 149.281,385.094 115.5,373C 83.8731,358.616 65.7064,334.116 61,299.5C 59.4396,256.431 78.2729,226.264 117.5,209C 124.299,207.084 130.966,205.251 137.5,203.5 Z"/></g>
<g><path style="opacity:1" fill="#fdfdfd" d="M 137.5,217.5 C 176.992,215.147 204.159,232.147 219,268.5C 225.031,288.681 223.031,308.014 213,326.5C 201.814,314.65 188.314,306.484 172.5,302C 184.315,285.485 182.981,270.152 168.5,256C 155.167,247.333 141.833,247.333 128.5,256C 114.177,270.062 112.843,285.229 124.5,301.5C 109.236,306.303 96.2356,314.47 85.5,326C 84.5509,326.617 83.7175,326.451 83,325.5C 67.104,288.924 74.2706,257.757 104.5,232C 114.641,224.923 125.641,220.09 137.5,217.5 Z"/></g>
<g><path style="opacity:1" fill="#383e3c" d="M 276.5,235.5 C 333.501,235.333 390.501,235.5 447.5,236C 451.124,238.161 452.291,241.328 451,245.5C 449.786,247.049 448.286,248.215 446.5,249C 390.167,249.667 333.833,249.667 277.5,249C 271.317,244.921 270.983,240.421 276.5,235.5 Z"/></g>
<g><path style="opacity:1" fill="#fbfbfb" d="M 142.5,263.5 C 156.123,261.48 164.123,267.147 166.5,280.5C 164.422,294.378 156.422,300.211 142.5,298C 130.92,291.507 128.086,282.341 134,270.5C 136.441,267.546 139.275,265.213 142.5,263.5 Z"/></g>
<g><path style="opacity:1" fill="#383e3c" d="M 276.5,284.5 C 333.501,284.333 390.501,284.5 447.5,285C 451.124,287.161 452.291,290.328 451,294.5C 449.786,296.049 448.286,297.215 446.5,298C 390.167,298.667 333.833,298.667 277.5,298C 271.317,293.921 270.983,289.421 276.5,284.5 Z"/></g>
<g><path style="opacity:1" fill="#a5d730" d="M 139.5,312.5 C 165.383,310.952 187.05,319.618 204.5,338.5C 194.692,350.916 182.025,359.082 166.5,363C 136.983,369.105 112.316,360.939 92.5,338.5C 105.156,324.34 120.823,315.673 139.5,312.5 Z"/></g>
<g><path style="opacity:1" fill="#373d3c" d="M 276.5,333.5 C 333.501,333.333 390.501,333.5 447.5,334C 451.409,336.566 452.409,340.066 450.5,344.5C 449.335,345.584 448.002,346.417 446.5,347C 390.167,347.667 333.833,347.667 277.5,347C 271.317,342.921 270.983,338.421 276.5,333.5 Z"/></g>
</svg>
