<?xml version="1.0" encoding="UTF-8"?>
<!DOCTYPE svg PUBLIC "-//W3C//DTD SVG 1.1//EN" "http://www.w3.org/Graphics/SVG/1.1/DTD/svg11.dtd">
<svg xmlns="http://www.w3.org/2000/svg" version="1.1" width="512px" height="512px" style="shape-rendering:geometricPrecision; text-rendering:geometricPrecision; image-rendering:optimizeQuality; fill-rule:evenodd; clip-rule:evenodd" xmlns:xlink="http://www.w3.org/1999/xlink">
<g><path style="opacity:0.952" fill="#000000" d="M 250.5,-0.5 C 253.833,-0.5 257.167,-0.5 260.5,-0.5C 262.134,0.971672 263.634,2.63834 265,4.5C 265.175,8.21098 265.675,11.8776 266.5,15.5C 326.773,23.7097 366.273,56.7097 385,114.5C 386.826,122.456 388.326,130.456 389.5,138.5C 401.755,137.252 406.922,142.585 405,154.5C 403.833,156.333 402.333,157.833 400.5,159C 396.789,159.175 393.122,159.675 389.5,160.5C 382.067,217.758 351.4,256.591 297.5,277C 287.327,280.001 276.994,282.168 266.5,283.5C 267.748,295.755 262.415,300.922 250.5,299C 248.667,297.833 247.167,296.333 246,294.5C 245.825,290.789 245.325,287.122 244.5,283.5C 187.242,276.067 148.409,245.4 128,191.5C 124.999,181.327 122.832,170.994 121.5,160.5C 109.245,161.748 104.078,156.415 106,144.5C 107.167,142.667 108.667,141.167 110.5,140C 114.211,139.825 117.878,139.325 121.5,138.5C 128.933,81.2421 159.6,42.4088 213.5,22C 223.673,18.9989 234.006,16.8322 244.5,15.5C 245.325,11.8776 245.825,8.21098 246,4.5C 247.366,2.63834 248.866,0.971672 250.5,-0.5 Z M 244.5,36.5 C 245.494,45.9856 245.827,55.6522 245.5,65.5C 213.305,70.5312 190.472,87.8645 177,117.5C 174.222,124.61 172.389,131.944 171.5,139.5C 161.828,139.666 152.161,139.5 142.5,139C 152.681,80.9858 186.681,46.8191 244.5,36.5 Z M 265.5,36.5 C 323.933,46.4335 358.267,80.6001 368.5,139C 358.839,139.5 349.172,139.666 339.5,139.5C 334.469,107.305 317.135,84.4718 287.5,71C 280.39,68.2224 273.056,66.3891 265.5,65.5C 265.5,55.8333 265.5,46.1667 265.5,36.5 Z M 251.5,85.5 C 286.377,86.6778 308.544,104.011 318,137.5C 321.695,176.284 304.861,201.117 267.5,212C 235.183,215.927 211.683,203.427 197,174.5C 185.842,140.639 195.009,113.806 224.5,94C 233.153,89.6133 242.153,86.7799 251.5,85.5 Z M 251.5,135.5 C 266.749,135.898 271.915,143.231 267,157.5C 261.442,163.924 254.942,165.091 247.5,161C 238.577,150.882 239.91,142.382 251.5,135.5 Z M 142.5,160.5 C 151.986,159.506 161.652,159.173 171.5,159.5C 176.531,191.695 193.865,214.528 223.5,228C 230.61,230.778 237.944,232.611 245.5,233.5C 245.666,243.172 245.5,252.839 245,262.5C 186.988,252.321 152.821,218.321 142.5,160.5 Z M 339.5,159.5 C 349.172,159.334 358.839,159.5 368.5,160C 358.333,218.167 324.167,252.333 266,262.5C 265.5,252.839 265.334,243.172 265.5,233.5C 297.695,228.469 320.528,211.135 334,181.5C 336.778,174.39 338.611,167.056 339.5,159.5 Z"/></g>
<g><path style="opacity:0.944" fill="#000000" d="M 248.5,114.5 C 269.907,112.776 283.74,122.11 290,142.5C 292.208,163.926 283.041,177.76 262.5,184C 241.074,186.208 227.24,177.041 221,156.5C 218.911,134.988 228.078,120.988 248.5,114.5 Z M 251.5,135.5 C 239.91,142.382 238.577,150.882 247.5,161C 254.942,165.091 261.442,163.924 267,157.5C 271.915,143.231 266.749,135.898 251.5,135.5 Z"/></g>
<g><path style="opacity:0.957" fill="#000000" d="M 511.5,182.5 C 511.5,187.5 511.5,192.5 511.5,197.5C 495.927,233.692 480.427,270.025 465,306.5C 457.238,324.127 448.904,341.46 440,358.5C 434.716,366.119 429.049,373.452 423,380.5C 405.667,396.5 388.333,412.5 371,428.5C 370.517,429.448 370.351,430.448 370.5,431.5C 376.52,430.22 381.353,431.887 385,436.5C 385.667,459.833 385.667,483.167 385,506.5C 383.634,508.362 382.134,510.028 380.5,511.5C 297.167,511.5 213.833,511.5 130.5,511.5C 128.866,510.028 127.366,508.362 126,506.5C 125.333,483.167 125.333,459.833 126,436.5C 129.647,431.887 134.48,430.22 140.5,431.5C 138.541,427.019 135.541,423.185 131.5,420C 117,406.833 102.5,393.667 88,380.5C 81.9508,373.452 76.2841,366.119 71,358.5C 62.0955,341.46 53.7622,324.127 46,306.5C 30.9623,269.861 15.4623,233.528 -0.5,197.5C -0.5,192.5 -0.5,187.5 -0.5,182.5C 4.91276,166.957 15.9128,160.124 32.5,162C 42.1724,164.251 49.3391,169.751 54,178.5C 67,199.833 80,221.167 93,242.5C 103.04,238.169 112.873,238.669 122.5,244C 138.712,263.21 154.545,282.71 170,302.5C 175.5,308 181,313.5 186.5,319C 202.117,330.283 217.451,341.95 232.5,354C 241.525,362.512 249.191,372.012 255.5,382.5C 261.809,372.012 269.475,362.512 278.5,354C 293.549,341.95 308.883,330.283 324.5,319C 330,313.5 335.5,308 341,302.5C 356.455,282.71 372.288,263.21 388.5,244C 398.127,238.669 407.96,238.169 418,242.5C 431,221.167 444,199.833 457,178.5C 468.293,160.968 483.126,157.135 501.5,167C 506.346,171.315 509.679,176.482 511.5,182.5 Z M 24.5,182.5 C 27.8621,182.07 30.6954,183.07 33,185.5C 48,209.833 63,234.167 78,258.5C 78.8027,270.375 81.8027,281.709 87,292.5C 95.0251,311.551 104.358,329.884 115,347.5C 121.637,352.848 127.637,352.181 133,345.5C 133.667,342.5 133.667,339.5 133,336.5C 120.456,315.079 109.79,292.746 101,269.5C 99.1833,262.144 102.017,259.311 109.5,261C 126.333,281.833 143.167,302.667 160,323.5C 176.305,338.144 193.472,351.644 211.5,364C 233.585,381.003 244.919,403.503 245.5,431.5C 217.5,431.5 189.5,431.5 161.5,431.5C 161.879,426.703 161.379,422.036 160,417.5C 138.397,398.566 117.397,378.9 97,358.5C 85.1863,340.543 75.1863,321.543 67,301.5C 51.6667,265.5 36.3333,229.5 21,193.5C 19.6631,188.872 20.8298,185.205 24.5,182.5 Z M 481.5,182.5 C 489.098,182.334 491.931,186.001 490,193.5C 474.667,229.5 459.333,265.5 444,301.5C 435.814,321.543 425.814,340.543 414,358.5C 393.603,378.9 372.603,398.566 351,417.5C 349.621,422.036 349.121,426.703 349.5,431.5C 321.5,431.5 293.5,431.5 265.5,431.5C 266.081,403.503 277.415,381.003 299.5,364C 317.528,351.644 334.695,338.144 351,323.5C 367.833,302.667 384.667,281.833 401.5,261C 408.983,259.311 411.817,262.144 410,269.5C 401.21,292.746 390.544,315.079 378,336.5C 376.082,344.745 379.249,349.745 387.5,351.5C 390.743,350.985 393.576,349.652 396,347.5C 409.739,325.021 421.072,301.354 430,276.5C 430.89,270.451 431.89,264.451 433,258.5C 446.918,236.334 460.584,214 474,191.5C 476.053,188.019 478.553,185.019 481.5,182.5 Z M 145.5,451.5 C 178.833,451.5 212.167,451.5 245.5,451.5C 245.5,464.833 245.5,478.167 245.5,491.5C 212.167,491.5 178.833,491.5 145.5,491.5C 145.5,478.167 145.5,464.833 145.5,451.5 Z M 265.5,451.5 C 298.833,451.5 332.167,451.5 365.5,451.5C 365.5,464.833 365.5,478.167 365.5,491.5C 332.167,491.5 298.833,491.5 265.5,491.5C 265.5,478.167 265.5,464.833 265.5,451.5 Z"/></g>
</svg>
