<?xml version="1.0" encoding="UTF-8"?>
<!DOCTYPE svg PUBLIC "-//W3C//DTD SVG 1.1//EN" "http://www.w3.org/Graphics/SVG/1.1/DTD/svg11.dtd">
<svg xmlns="http://www.w3.org/2000/svg" version="1.1" width="512px" height="512px" style="shape-rendering:geometricPrecision; text-rendering:geometricPrecision; image-rendering:optimizeQuality; fill-rule:evenodd; clip-rule:evenodd" xmlns:xlink="http://www.w3.org/1999/xlink">
<g><path style="opacity:0.968" fill="#050202" d="M 394.5,2.5 C 396.352,3.08894 398.185,3.75561 400,4.5C 402.401,10.945 404.568,17.445 406.5,24C 412.786,26.1548 419.12,28.1548 425.5,30C 427.908,33.0426 428.074,36.2093 426,39.5C 414.5,51 403,62.5 391.5,74C 384.504,74.0459 377.67,72.8793 371,70.5C 367.301,72.1843 364.135,74.6843 361.5,78C 366.175,81.6643 369.675,86.1643 372,91.5C 372.667,95.1667 372.667,98.8333 372,102.5C 368.817,108.343 365.65,114.177 362.5,120C 365.521,126.434 368.521,132.767 371.5,139C 378.297,140.599 384.964,142.599 391.5,145C 394.869,147.365 397.036,150.532 398,154.5C 398.949,169.235 398.616,183.902 397,198.5C 395.167,201.667 392.667,204.167 389.5,206C 383.191,207.937 376.857,209.77 370.5,211.5C 368.251,217.833 365.584,223.999 362.5,230C 365.65,235.823 368.817,241.657 372,247.5C 373.266,253.631 372.266,259.298 369,264.5C 360.102,274.068 350.602,282.901 340.5,291C 335.833,293 331.167,293 326.5,291C 321.083,288.21 315.916,285.043 311,281.5C 305.056,284.649 298.89,287.316 292.5,289.5C 290.306,296.942 287.806,304.276 285,311.5C 281.984,315.092 278.151,317.258 273.5,318C 260.11,318.924 246.777,318.591 233.5,317C 230.438,315.939 227.938,314.106 226,311.5C 223.194,304.276 220.694,296.942 218.5,289.5C 212.143,287.238 205.977,284.571 200,281.5C 193.984,285.924 187.484,289.424 180.5,292C 174.959,292.698 169.959,291.365 165.5,288C 157.667,280.167 149.833,272.333 142,264.5C 138.734,259.298 137.734,253.631 139,247.5C 142.183,241.657 145.35,235.823 148.5,230C 145.479,223.566 142.479,217.233 139.5,211C 133.442,209.536 127.442,207.87 121.5,206C 117.183,203.685 114.35,200.185 113,195.5C 112.051,180.765 112.384,166.098 114,151.5C 115.833,148.333 118.333,145.833 121.5,144C 127.794,142.01 134.127,140.177 140.5,138.5C 142.749,132.167 145.416,126.001 148.5,120C 145.468,114.103 142.301,108.269 139,102.5C 137.734,96.3685 138.734,90.7019 142,85.5C 150.167,77.3333 158.333,69.1667 166.5,61C 172.175,57.3319 178.175,56.6652 184.5,59C 189.712,62.1052 195.045,64.9386 200.5,67.5C 206.494,65.1682 212.494,62.8349 218.5,60.5C 220.694,53.0578 223.194,45.7244 226,38.5C 228.778,35.1929 232.278,33.0262 236.5,32C 250.236,31.0545 263.903,31.3879 277.5,33C 280.562,34.0608 283.062,35.8941 285,38.5C 287.806,45.7244 290.306,53.0578 292.5,60.5C 299.043,63.4043 305.71,65.5709 312.5,67C 319.178,62.5745 326.344,59.4078 334,57.5C 337.763,57.8654 341.263,59.032 344.5,61C 347.016,63.6833 349.683,66.1833 352.5,68.5C 355.5,66.1667 358.167,63.5 360.5,60.5C 358.835,54.5056 357.168,48.5056 355.5,42.5C 355.719,41.062 356.219,39.7287 357,38.5C 369.116,25.8794 381.616,13.8794 394.5,2.5 Z"/></g>
<g><path style="opacity:1" fill="#72c0f9" d="M 396.5,34.5 C 388.5,42.1667 380.5,49.8333 372.5,57.5C 370.826,52.9649 369.993,48.2983 370,43.5C 377.333,36.1667 384.667,28.8333 392,21.5C 393.065,26.0046 394.565,30.338 396.5,34.5 Z"/></g>
<g><path style="opacity:1" fill="#4ab0f8" d="M 396.5,34.5 C 400.681,35.5667 404.681,37.0667 408.5,39C 401.167,46.3333 393.833,53.6667 386.5,61C 381.56,60.7387 376.894,59.5721 372.5,57.5C 380.5,49.8333 388.5,42.1667 396.5,34.5 Z"/></g>
<g><path style="opacity:1" fill="#ef4b00" d="M 317.5,103.5 C 303.329,86.234 285.329,74.734 263.5,69C 252.608,66.7737 241.942,64.9404 231.5,63.5C 232.504,58.4843 233.67,53.4843 235,48.5C 235.465,47.0692 236.299,45.9025 237.5,45C 249.5,44.3333 261.5,44.3333 273.5,45C 274.701,45.9025 275.535,47.0692 276,48.5C 277.375,54.9143 279.041,61.2476 281,67.5C 282.109,69.8147 283.943,71.3147 286.5,72C 294.838,74.7782 303.004,77.9449 311,81.5C 317.838,78.6638 324.338,75.1638 330.5,71C 332.5,70.3333 334.5,70.3333 336.5,71C 338.833,73.3333 341.167,75.6667 343.5,78C 334.965,86.7023 326.298,95.2023 317.5,103.5 Z"/></g>
<g><path style="opacity:1" fill="#f75e16" d="M 231.5,63.5 C 241.942,64.9404 252.608,66.7737 263.5,69C 285.329,74.734 303.329,86.234 317.5,103.5C 314.538,106.964 311.371,110.297 308,113.5C 277.882,89.8535 246.048,87.3535 212.5,106C 177.891,130.828 167.058,163.661 180,204.5C 197.396,242.125 226.896,258.959 268.5,255C 307.476,246.692 329.976,222.858 336,183.5C 338.385,160.495 332.219,140.162 317.5,122.5C 320.188,119.146 323.188,116.146 326.5,113.5C 348.878,150.912 350.378,189.246 331,228.5C 314.72,255.772 291.22,273.606 260.5,282C 250.532,283.415 240.865,284.915 231.5,286.5C 230.731,284.333 229.731,282.166 228.5,280C 218.931,276.298 209.431,272.464 200,268.5C 193.162,271.336 186.662,274.836 180.5,279C 178.5,279.667 176.5,279.667 174.5,279C 166.667,271.167 158.833,263.333 151,255.5C 150.333,254.167 150.333,252.833 151,251.5C 154.414,245.003 158.081,238.67 162,232.5C 162.667,231.167 162.667,229.833 162,228.5C 157.434,219.45 153.268,210.283 149.5,201C 142.167,199 134.833,197 127.5,195C 126.667,194.167 125.833,193.333 125,192.5C 124.333,180.833 124.333,169.167 125,157.5C 125.833,156.667 126.667,155.833 127.5,155C 134.833,153 142.167,151 149.5,149C 153.268,139.717 157.434,130.55 162,121.5C 162.667,120.167 162.667,118.833 162,117.5C 158.081,111.33 154.414,104.997 151,98.5C 150.333,97.1667 150.333,95.8333 151,94.5C 158.833,86.6667 166.667,78.8333 174.5,71C 176.5,70.3333 178.5,70.3333 180.5,71C 186.662,75.1638 193.162,78.6638 200,81.5C 209.431,77.5357 218.931,73.7023 228.5,70C 229.731,67.834 230.731,65.6674 231.5,63.5 Z"/></g>
<g><path style="opacity:1" fill="#f04b00" d="M 231.5,286.5 C 240.865,284.915 250.532,283.415 260.5,282C 291.22,273.606 314.72,255.772 331,228.5C 350.378,189.246 348.878,150.912 326.5,113.5C 334.631,104.868 342.964,96.3683 351.5,88C 355.525,89.5179 358.525,92.3512 360.5,96.5C 356.755,104.324 352.755,111.991 348.5,119.5C 353.159,128.486 356.993,137.82 360,147.5C 360.903,148.701 362.069,149.535 363.5,150C 369.833,151.667 376.167,153.333 382.5,155C 383.931,155.465 385.097,156.299 386,157.5C 386.667,169.167 386.667,180.833 386,192.5C 385.097,193.701 383.931,194.535 382.5,195C 375.532,197.127 368.532,199.127 361.5,201C 357.732,210.283 353.566,219.45 349,228.5C 348.333,229.833 348.333,231.167 349,232.5C 352.919,238.67 356.586,245.003 360,251.5C 360.667,252.833 360.667,254.167 360,255.5C 352.167,263.333 344.333,271.167 336.5,279C 334.5,279.667 332.5,279.667 330.5,279C 324.338,274.836 317.838,271.336 311,268.5C 301.569,272.464 292.069,276.298 282.5,280C 279.334,286.821 277.168,293.988 276,301.5C 275.535,302.931 274.701,304.097 273.5,305C 261.5,305.667 249.5,305.667 237.5,305C 234.662,299.163 232.662,292.996 231.5,286.5 Z"/></g>
<g><path style="opacity:1" fill="#e7e2eb" d="M 298.5,141.5 C 313.41,178.023 306.077,209.189 276.5,235C 272.159,238.172 267.492,240.839 262.5,243C 257.511,243.499 252.511,243.666 247.5,243.5C 214.179,238.015 194.012,218.681 187,185.5C 184.079,155.179 195.246,131.679 220.5,115C 248.423,100.555 274.756,102.889 299.5,122C 294.623,127.213 289.456,132.046 284,136.5C 258.867,121.613 236.533,124.946 217,146.5C 202.208,171.181 205.375,193.348 226.5,213C 245.699,225.515 265.032,225.515 284.5,213C 305.901,193.082 308.901,170.749 293.5,146C 295.037,144.293 296.704,142.793 298.5,141.5 Z"/></g>
<g><path style="opacity:1" fill="#ded7e3" d="M 247.5,243.5 C 252.511,243.666 257.511,243.499 262.5,243C 267.492,240.839 272.159,238.172 276.5,235C 306.077,209.189 313.41,178.023 298.5,141.5C 301.479,137.854 304.812,134.521 308.5,131.5C 319.029,143.242 324.362,157.076 324.5,173C 324.369,200.944 312.369,221.944 288.5,236C 275.317,242.34 261.65,244.84 247.5,243.5 Z"/></g>
<g><path style="opacity:0.953" fill="#020202" d="M 60.5,133.5 C 76.7149,133.54 86.5482,141.54 90,157.5C 91.279,184.132 91.9457,210.798 92,237.5C 92.3311,251.645 93.8311,265.645 96.5,279.5C 105.296,276.846 113.963,277.346 122.5,281C 140.168,288.829 156.168,299.162 170.5,312C 181,321.167 190.833,331 200,341.5C 207.819,352.952 212.485,365.618 214,379.5C 216.188,401.439 217.021,423.439 216.5,445.5C 226.044,446.353 232.211,451.353 235,460.5C 235.667,471.5 235.667,482.5 235,493.5C 231.63,502.536 225.13,507.369 215.5,508C 180.167,508.667 144.833,508.667 109.5,508C 99.0274,507.194 92.5274,501.694 90,491.5C 89.3333,481.5 89.3333,471.5 90,461.5C 93.1244,452.044 99.6244,446.544 109.5,445C 107.989,437.144 104.489,430.311 99,424.5C 88,414.167 77,403.833 66,393.5C 56.9572,384.393 48.6239,374.726 41,364.5C 31.7898,352.406 26.7898,338.739 26,323.5C 25.4387,285.129 26.4387,246.796 29,208.5C 29.5533,189.951 32.8866,171.951 39,154.5C 42.8106,143.854 49.9773,136.854 60.5,133.5 Z"/></g>
<g><path style="opacity:0.953" fill="#030303" d="M 444.5,133.5 C 452.724,133.363 459.557,136.363 465,142.5C 470.894,150.624 474.894,159.624 477,169.5C 480.186,187.363 482.186,205.363 483,223.5C 485.377,260.496 485.71,297.496 484,334.5C 481.476,345.545 476.81,355.545 470,364.5C 462.08,375.091 453.414,385.091 444,394.5C 433.333,404.5 422.667,414.5 412,424.5C 406.511,430.311 403.011,437.144 401.5,445C 411.376,446.544 417.876,452.044 421,461.5C 421.909,472.892 421.576,484.225 420,495.5C 416.273,503.28 410.106,507.447 401.5,508C 366.167,508.667 330.833,508.667 295.5,508C 285.87,507.369 279.37,502.536 276,493.5C 275.333,482.5 275.333,471.5 276,460.5C 278.789,451.353 284.956,446.353 294.5,445.5C 293.979,423.441 294.812,401.441 297,379.5C 298.515,365.618 303.181,352.952 311,341.5C 329.731,319.909 351.231,301.743 375.5,287C 387.92,279.055 401.254,276.555 415.5,279.5C 417.237,265.221 418.404,250.887 419,236.5C 419.055,210.132 419.722,183.798 421,157.5C 423.757,144.245 431.59,136.245 444.5,133.5 Z"/></g>
<g><path style="opacity:1" fill="#f75d16" d="M 274.5,165.5 C 277.498,184.185 271.498,199.185 256.5,210.5C 236.552,209.389 224.385,199.055 220,179.5C 219.021,161.291 226.855,148.457 243.5,141C 250.099,139.504 256.766,139.171 263.5,140C 268.058,140.946 272.058,142.946 275.5,146C 267.333,154.167 259.167,162.333 251,170.5C 248.35,179.512 251.517,182.345 260.5,179C 265.035,174.297 269.702,169.797 274.5,165.5 Z"/></g>
<g><path style="opacity:1" fill="#f7c7be" d="M 62.5,146.5 C 67.2474,146.136 71.0807,147.802 74,151.5C 76.6601,155.814 78.3268,160.481 79,165.5C 79.3333,193.5 79.6667,221.5 80,249.5C 81.096,263.268 82.9293,276.935 85.5,290.5C 82.8336,297.198 83.0003,303.865 86,310.5C 94.8354,327.014 106.335,341.514 120.5,354C 127.333,355.167 130.167,352.333 129,345.5C 117.128,335.305 107.128,323.639 99,310.5C 92.3361,293.823 97.8361,287.656 115.5,292C 122.227,294.197 128.561,297.197 134.5,301C 153.761,313.581 171.261,328.415 187,345.5C 195.691,355.891 200.691,367.891 202,381.5C 203.404,402.801 203.904,424.134 203.5,445.5C 179.167,445.5 154.833,445.5 130.5,445.5C 130.823,434.969 127.656,425.636 121,417.5C 102.667,400.5 85,382.833 68,364.5C 58.4736,353.785 51.807,341.452 48,327.5C 45.8105,281.461 46.8105,235.461 51,189.5C 51.2614,174.115 55.0947,159.782 62.5,146.5 Z"/></g>
<g><path style="opacity:1" fill="#f8c8bf" d="M 449.5,147.5 C 452.833,153.836 455.333,160.503 457,167.5C 463.91,221.327 465.91,275.327 463,329.5C 458.43,342.394 451.764,354.061 443,364.5C 424.974,383.525 406.641,402.192 388,420.5C 382.575,427.943 380.075,436.277 380.5,445.5C 356.167,445.5 331.833,445.5 307.5,445.5C 307.096,424.134 307.596,402.801 309,381.5C 310.309,367.891 315.309,355.891 324,345.5C 339.739,328.415 357.239,313.581 376.5,301C 383.105,296.864 390.105,293.531 397.5,291C 413.859,288.879 418.693,295.379 412,310.5C 403.872,323.639 393.872,335.305 382,345.5C 380.833,352.333 383.667,355.167 390.5,354C 404.665,341.514 416.165,327.014 425,310.5C 428,303.865 428.166,297.198 425.5,290.5C 427.824,277.904 429.658,265.237 431,252.5C 432.042,221.842 432.708,191.176 433,160.5C 434.323,152.849 438.657,148.182 446,146.5C 447.385,146.514 448.551,146.848 449.5,147.5 Z"/></g>
<g><path style="opacity:1" fill="#f1b0a4" d="M 62.5,146.5 C 55.0947,159.782 51.2614,174.115 51,189.5C 46.8105,235.461 45.8105,281.461 48,327.5C 51.807,341.452 58.4736,353.785 68,364.5C 85,382.833 102.667,400.5 121,417.5C 127.656,425.636 130.823,434.969 130.5,445.5C 127.145,445.909 124.145,445.242 121.5,443.5C 120.541,434.915 117.374,427.249 112,420.5C 98.358,406.525 84.358,392.859 70,379.5C 61.5721,370.409 53.9054,360.742 47,350.5C 43.5059,344.512 40.8392,338.179 39,331.5C 37.4887,284.076 38.8221,236.743 43,189.5C 43.7958,175.781 47.7958,163.114 55,151.5C 57.1277,149.192 59.6277,147.526 62.5,146.5 Z"/></g>
<g><path style="opacity:1" fill="#efafa3" d="M 449.5,147.5 C 452.195,147.933 454.362,149.266 456,151.5C 463.204,163.114 467.204,175.781 468,189.5C 472.178,236.744 473.511,284.077 472,331.5C 468.415,343.341 462.748,354.007 455,363.5C 450.333,368.833 445.667,374.167 441,379.5C 426.642,392.859 412.642,406.525 399,420.5C 392.767,428.031 389.6,436.698 389.5,446.5C 361.995,446.831 334.662,446.498 307.5,445.5C 331.833,445.5 356.167,445.5 380.5,445.5C 380.075,436.277 382.575,427.943 388,420.5C 406.641,402.192 424.974,383.525 443,364.5C 451.764,354.061 458.43,342.394 463,329.5C 465.91,275.327 463.91,221.327 457,167.5C 455.333,160.503 452.833,153.836 449.5,147.5 Z"/></g>
<g><path style="opacity:1" fill="#ed4a00" d="M 256.5,210.5 C 271.498,199.185 277.498,184.185 274.5,165.5C 277.811,161.853 281.145,158.187 284.5,154.5C 293.578,167.928 293.745,181.594 285,195.5C 277.939,205.114 268.439,210.114 256.5,210.5 Z"/></g>
<g><path style="opacity:1" fill="#a5847e" d="M 121.5,443.5 C 124.145,445.242 127.145,445.909 130.5,445.5C 154.833,445.5 179.167,445.5 203.5,445.5C 176.338,446.498 149.005,446.831 121.5,446.5C 121.5,445.5 121.5,444.5 121.5,443.5 Z"/></g>
<g><path style="opacity:1" fill="#4ab2fc" d="M 130.5,458.5 C 130.5,470.833 130.5,483.167 130.5,495.5C 122.493,495.666 114.493,495.5 106.5,495C 105.333,493.833 104.167,492.667 103,491.5C 102.333,481.833 102.333,472.167 103,462.5C 103.374,461.584 103.874,460.75 104.5,460C 113.058,458.559 121.724,458.059 130.5,458.5 Z"/></g>
<g><path style="opacity:1" fill="#73c2fb" d="M 130.5,458.5 C 159.835,458.333 189.169,458.5 218.5,459C 220.667,459.833 222.167,461.333 223,463.5C 223.667,472.167 223.667,480.833 223,489.5C 222.226,491.939 220.726,493.773 218.5,495C 189.169,495.5 159.835,495.667 130.5,495.5C 130.5,483.167 130.5,470.833 130.5,458.5 Z"/></g>
<g><path style="opacity:1" fill="#73c2fb" d="M 380.5,458.5 C 380.5,470.833 380.5,483.167 380.5,495.5C 351.165,495.667 321.831,495.5 292.5,495C 290.185,493.891 288.685,492.057 288,489.5C 287.333,480.833 287.333,472.167 288,463.5C 288.833,461.333 290.333,459.833 292.5,459C 321.831,458.5 351.165,458.333 380.5,458.5 Z"/></g>
<g><path style="opacity:1" fill="#4ab2fc" d="M 380.5,458.5 C 389.276,458.059 397.942,458.559 406.5,460C 407.126,460.75 407.626,461.584 408,462.5C 408.667,472.167 408.667,481.833 408,491.5C 407.167,492.333 406.333,493.167 405.5,494C 397.277,495.438 388.943,495.938 380.5,495.5C 380.5,483.167 380.5,470.833 380.5,458.5 Z"/></g>
</svg>
