<?xml version="1.0" encoding="UTF-8"?>
<!DOCTYPE svg PUBLIC "-//W3C//DTD SVG 1.1//EN" "http://www.w3.org/Graphics/SVG/1.1/DTD/svg11.dtd">
<svg xmlns="http://www.w3.org/2000/svg" version="1.1" width="512px" height="512px" style="shape-rendering:geometricPrecision; text-rendering:geometricPrecision; image-rendering:optimizeQuality; fill-rule:evenodd; clip-rule:evenodd" xmlns:xlink="http://www.w3.org/1999/xlink">
<g><path style="opacity:0.936" fill="#000000" d="M 227.5,15.5 C 246.17,15.3334 264.836,15.5001 283.5,16C 287.56,27.3989 291.393,38.8989 295,50.5C 304.014,53.5467 313.181,56.2134 322.5,58.5C 332.435,50.5715 342.102,42.2382 351.5,33.5C 367.33,42.2472 382.996,51.2472 398.5,60.5C 398.833,61.5 399.167,62.5 399.5,63.5C 396.485,75.4041 394.318,87.4041 393,99.5C 399.667,106.167 406.333,112.833 413,119.5C 424.392,116.52 435.892,113.854 447.5,111.5C 448.5,111.833 449.5,112.167 450.5,112.5C 459.753,128.004 468.753,143.67 477.5,159.5C 469.518,168.65 461.351,177.65 453,186.5C 454.349,195.571 456.349,204.571 459,213.5C 459.374,214.416 459.874,215.25 460.5,216C 472.153,219.44 483.653,223.273 495,227.5C 495.667,246.167 495.667,264.833 495,283.5C 483.653,287.727 472.153,291.56 460.5,295C 459.874,295.75 459.374,296.584 459,297.5C 456.349,306.429 454.349,315.429 453,324.5C 461.351,333.35 469.518,342.35 477.5,351.5C 468.753,367.33 459.753,382.996 450.5,398.5C 448.579,399.641 446.579,399.808 444.5,399C 433.905,396.749 423.405,394.249 413,391.5C 410.984,393.684 408.817,395.684 406.5,397.5C 402.348,393.849 398.348,390.016 394.5,386C 398.747,381.246 403.414,377.08 408.5,373.5C 419.017,375.77 429.517,378.103 440,380.5C 445.864,371.948 451.364,363.114 456.5,354C 449.333,346.167 442.167,338.333 435,330.5C 434.219,329.271 433.719,327.938 433.5,326.5C 437.501,311.828 441.501,297.161 445.5,282.5C 456.601,278.41 467.768,274.41 479,270.5C 479.667,260.5 479.667,250.5 479,240.5C 467.768,236.59 456.601,232.59 445.5,228.5C 441.501,213.839 437.501,199.172 433.5,184.5C 433.719,183.062 434.219,181.729 435,180.5C 442.167,172.667 449.333,164.833 456.5,157C 451.364,147.886 445.864,139.052 440,130.5C 428.898,133.321 417.731,135.487 406.5,137C 395.667,126.167 384.833,115.333 374,104.5C 375.513,93.2686 377.679,82.1019 380.5,71C 371.948,65.1357 363.114,59.6357 354,54.5C 346.167,61.6667 338.333,68.8333 330.5,76C 329.271,76.7811 327.938,77.2811 326.5,77.5C 312.21,73.5108 297.877,69.6775 283.5,66C 282.333,65.5 281.5,64.6667 281,63.5C 277.868,53.1048 274.535,42.7715 271,32.5C 260.667,31.1667 250.333,31.1667 240,32.5C 236.465,42.7715 233.132,53.1048 230,63.5C 229.5,64.6667 228.667,65.5 227.5,66C 213.123,69.6775 198.79,73.5108 184.5,77.5C 183.062,77.2811 181.729,76.7811 180.5,76C 172.667,68.8333 164.833,61.6667 157,54.5C 147.886,59.6357 139.052,65.1357 130.5,71C 133.321,82.1019 135.487,93.2686 137,104.5C 126.167,115.333 115.333,126.167 104.5,137C 93.2686,135.487 82.1019,133.321 71,130.5C 65.1357,139.052 59.6357,147.886 54.5,157C 61.6667,164.833 68.8333,172.667 76,180.5C 76.7811,181.729 77.2811,183.062 77.5,184.5C 73.4987,199.172 69.4987,213.839 65.5,228.5C 54.399,232.59 43.2323,236.59 32,240.5C 31.3333,250.5 31.3333,260.5 32,270.5C 43.2323,274.41 54.399,278.41 65.5,282.5C 69.4987,297.161 73.4987,311.828 77.5,326.5C 77.2811,327.938 76.7811,329.271 76,330.5C 68.8333,338.333 61.6667,346.167 54.5,354C 59.6357,363.114 65.1357,371.948 71,380.5C 81.4833,378.103 91.9833,375.77 102.5,373.5C 108.101,377.431 113.101,382.098 117.5,387.5C 114.136,391.699 110.302,395.365 106,398.5C 103.551,397.056 101.385,395.222 99.5,393C 87.4041,394.318 75.4041,396.485 63.5,399.5C 62.5,399.167 61.5,398.833 60.5,398.5C 51.2472,382.996 42.2472,367.33 33.5,351.5C 41.4819,342.35 49.6486,333.35 58,324.5C 56.839,314.356 54.339,304.523 50.5,295C 38.8989,291.393 27.3989,287.56 16,283.5C 15.3333,264.833 15.3333,246.167 16,227.5C 27.3989,223.44 38.8989,219.607 50.5,216C 53.8575,207.077 56.5241,197.91 58.5,188.5C 50.5715,178.565 42.2382,168.898 33.5,159.5C 42.2472,143.67 51.2472,128.004 60.5,112.5C 61.5,112.167 62.5,111.833 63.5,111.5C 75.4041,114.515 87.4041,116.682 99.5,118C 105.667,111.833 111.833,105.667 118,99.5C 116.682,87.4041 114.515,75.4041 111.5,63.5C 111.686,61.4205 112.686,59.9205 114.5,59C 129.5,50.5 144.5,42 159.5,33.5C 168.65,41.4819 177.65,49.6486 186.5,58C 196.644,56.839 206.477,54.339 216,50.5C 219.685,38.7503 223.518,27.0836 227.5,15.5 Z M 254.5,103.5 C 319.976,106.636 366.81,137.636 395,196.5C 413.537,244.636 409.871,290.969 384,335.5C 383.5,295.501 383.333,255.501 383.5,215.5C 362.167,215.5 340.833,215.5 319.5,215.5C 317.335,202.331 322.668,196.997 335.5,199.5C 354.03,197.452 361.864,187.119 359,168.5C 353.543,154.518 343.376,149.018 328.5,152C 317.167,156 311.167,164 310.5,176C 311.707,179.406 312.207,182.906 312,186.5C 309.333,189.167 306.667,191.833 304,194.5C 303.5,201.492 303.334,208.492 303.5,215.5C 298.167,215.5 292.833,215.5 287.5,215.5C 287.167,199.153 287.501,182.82 288.5,166.5C 303.869,157.887 307.703,145.554 300,129.5C 290.209,118.757 278.709,116.59 265.5,123C 255.634,131.134 252.801,141.301 257,153.5C 260.028,159.361 264.528,163.694 270.5,166.5C 271.499,182.82 271.833,199.153 271.5,215.5C 266.167,215.5 260.833,215.5 255.5,215.5C 255.666,205.828 255.5,196.161 255,186.5C 247.333,178.833 239.667,171.167 232,163.5C 232.317,146.652 224.151,136.985 207.5,134.5C 187.363,138.117 179.863,149.784 185,169.5C 191.338,181.417 201.172,185.917 214.5,183C 217.505,181.646 220.505,180.646 223.5,180C 228.667,185.167 233.833,190.333 239,195.5C 239.5,202.158 239.666,208.825 239.5,215.5C 234.167,215.5 228.833,215.5 223.5,215.5C 223.5,226.167 223.5,236.833 223.5,247.5C 215.5,247.5 207.5,247.5 199.5,247.5C 199.666,240.492 199.5,233.492 199,226.5C 193.667,221.167 188.333,215.833 183,210.5C 183.471,204.538 183.471,198.538 183,192.5C 176.644,177.242 165.477,172.075 149.5,177C 134.92,185.983 131.42,198.149 139,213.5C 147.463,223.087 157.963,226.253 170.5,223C 174.667,227.167 178.833,231.333 183,235.5C 183.499,239.486 183.666,243.486 183.5,247.5C 164.833,247.5 146.167,247.5 127.5,247.5C 127.667,276.835 127.5,306.169 127,335.5C 101.129,290.969 97.4628,244.636 116,196.5C 143.793,138.184 189.96,107.184 254.5,103.5 Z M 276.5,136.5 C 285.85,136.365 288.517,140.532 284.5,149C 275.956,152.322 272.123,149.489 273,140.5C 273.69,138.65 274.856,137.316 276.5,136.5 Z M 204.5,152.5 C 213.85,152.365 216.517,156.532 212.5,165C 203.956,168.322 200.123,165.489 201,156.5C 201.69,154.65 202.856,153.316 204.5,152.5 Z M 332.5,168.5 C 341.85,168.365 344.517,172.532 340.5,181C 331.956,184.322 328.123,181.489 329,172.5C 329.69,170.65 330.856,169.316 332.5,168.5 Z M 156.5,192.5 C 165.85,192.365 168.517,196.532 164.5,205C 155.956,208.322 152.123,205.489 153,196.5C 153.69,194.65 154.856,193.316 156.5,192.5 Z"/></g>
<g><path style="opacity:0.971" fill="#000000" d="M 237.5,87.5 C 310.111,83.3831 365.277,112.05 403,173.5C 422.989,211.076 428.656,250.743 420,292.5C 413.815,319.538 401.815,343.538 384,364.5C 383.5,402.832 383.333,441.165 383.5,479.5C 420.833,479.5 458.167,479.5 495.5,479.5C 495.5,484.833 495.5,490.167 495.5,495.5C 335.5,495.5 175.5,495.5 15.5,495.5C 15.5,490.167 15.5,484.833 15.5,479.5C 52.8333,479.5 90.1667,479.5 127.5,479.5C 127.667,441.165 127.5,402.832 127,364.5C 90.1634,319.002 78.83,267.669 93,210.5C 111.5,150.667 150.667,111.5 210.5,93C 219.551,90.7187 228.551,88.8854 237.5,87.5 Z M 254.5,103.5 C 189.96,107.184 143.793,138.184 116,196.5C 97.4628,244.636 101.129,290.969 127,335.5C 127.5,306.169 127.667,276.835 127.5,247.5C 146.167,247.5 164.833,247.5 183.5,247.5C 183.666,243.486 183.499,239.486 183,235.5C 178.833,231.333 174.667,227.167 170.5,223C 157.963,226.253 147.463,223.087 139,213.5C 131.42,198.149 134.92,185.983 149.5,177C 165.477,172.075 176.644,177.242 183,192.5C 183.471,198.538 183.471,204.538 183,210.5C 188.333,215.833 193.667,221.167 199,226.5C 199.5,233.492 199.666,240.492 199.5,247.5C 207.5,247.5 215.5,247.5 223.5,247.5C 223.5,236.833 223.5,226.167 223.5,215.5C 228.833,215.5 234.167,215.5 239.5,215.5C 239.666,208.825 239.5,202.158 239,195.5C 233.833,190.333 228.667,185.167 223.5,180C 220.505,180.646 217.505,181.646 214.5,183C 201.172,185.917 191.338,181.417 185,169.5C 179.863,149.784 187.363,138.117 207.5,134.5C 224.151,136.985 232.317,146.652 232,163.5C 239.667,171.167 247.333,178.833 255,186.5C 255.5,196.161 255.666,205.828 255.5,215.5C 260.833,215.5 266.167,215.5 271.5,215.5C 271.833,199.153 271.499,182.82 270.5,166.5C 264.528,163.694 260.028,159.361 257,153.5C 252.801,141.301 255.634,131.134 265.5,123C 278.709,116.59 290.209,118.757 300,129.5C 307.703,145.554 303.869,157.887 288.5,166.5C 287.501,182.82 287.167,199.153 287.5,215.5C 292.833,215.5 298.167,215.5 303.5,215.5C 303.334,208.492 303.5,201.492 304,194.5C 306.667,191.833 309.333,189.167 312,186.5C 312.207,182.906 311.707,179.406 310.5,176C 311.167,164 317.167,156 328.5,152C 343.376,149.018 353.543,154.518 359,168.5C 361.864,187.119 354.03,197.452 335.5,199.5C 322.668,196.997 317.335,202.331 319.5,215.5C 340.833,215.5 362.167,215.5 383.5,215.5C 383.333,255.501 383.5,295.501 384,335.5C 409.871,290.969 413.537,244.636 395,196.5C 366.81,137.636 319.976,106.636 254.5,103.5 Z M 276.5,136.5 C 274.856,137.316 273.69,138.65 273,140.5C 272.123,149.489 275.956,152.322 284.5,149C 288.517,140.532 285.85,136.365 276.5,136.5 Z M 204.5,152.5 C 202.856,153.316 201.69,154.65 201,156.5C 200.123,165.489 203.956,168.322 212.5,165C 216.517,156.532 213.85,152.365 204.5,152.5 Z M 332.5,168.5 C 330.856,169.316 329.69,170.65 329,172.5C 328.123,181.489 331.956,184.322 340.5,181C 344.517,172.532 341.85,168.365 332.5,168.5 Z M 156.5,192.5 C 154.856,193.316 153.69,194.65 153,196.5C 152.123,205.489 155.956,208.322 164.5,205C 168.517,196.532 165.85,192.365 156.5,192.5 Z M 239.5,231.5 C 282.167,231.5 324.833,231.5 367.5,231.5C 367.5,314.167 367.5,396.833 367.5,479.5C 356.833,479.5 346.167,479.5 335.5,479.5C 335.5,466.167 335.5,452.833 335.5,439.5C 314.167,439.5 292.833,439.5 271.5,439.5C 271.5,452.833 271.5,466.167 271.5,479.5C 260.833,479.5 250.167,479.5 239.5,479.5C 239.5,396.833 239.5,314.167 239.5,231.5 Z M 143.5,263.5 C 170.167,263.5 196.833,263.5 223.5,263.5C 223.5,335.5 223.5,407.5 223.5,479.5C 218.167,479.5 212.833,479.5 207.5,479.5C 207.5,466.167 207.5,452.833 207.5,439.5C 191.5,439.5 175.5,439.5 159.5,439.5C 159.5,452.833 159.5,466.167 159.5,479.5C 154.167,479.5 148.833,479.5 143.5,479.5C 143.5,407.5 143.5,335.5 143.5,263.5 Z M 175.5,455.5 C 180.833,455.5 186.167,455.5 191.5,455.5C 191.5,463.5 191.5,471.5 191.5,479.5C 186.167,479.5 180.833,479.5 175.5,479.5C 175.5,471.5 175.5,463.5 175.5,455.5 Z M 287.5,455.5 C 298.167,455.5 308.833,455.5 319.5,455.5C 319.5,463.5 319.5,471.5 319.5,479.5C 308.833,479.5 298.167,479.5 287.5,479.5C 287.5,471.5 287.5,463.5 287.5,455.5 Z"/></g>
<g><path style="opacity:1" fill="#000000" d="M 255.5,247.5 C 260.833,247.5 266.167,247.5 271.5,247.5C 271.5,252.833 271.5,258.167 271.5,263.5C 266.167,263.5 260.833,263.5 255.5,263.5C 255.5,258.167 255.5,252.833 255.5,247.5 Z"/></g>
<g><path style="opacity:1" fill="#000000" d="M 295.5,247.5 C 300.833,247.5 306.167,247.5 311.5,247.5C 311.5,252.833 311.5,258.167 311.5,263.5C 306.167,263.5 300.833,263.5 295.5,263.5C 295.5,258.167 295.5,252.833 295.5,247.5 Z"/></g>
<g><path style="opacity:1" fill="#000000" d="M 335.5,247.5 C 340.833,247.5 346.167,247.5 351.5,247.5C 351.5,252.833 351.5,258.167 351.5,263.5C 346.167,263.5 340.833,263.5 335.5,263.5C 335.5,258.167 335.5,252.833 335.5,247.5 Z"/></g>
<g><path style="opacity:1" fill="#000000" d="M 159.5,279.5 C 164.833,279.5 170.167,279.5 175.5,279.5C 175.5,284.833 175.5,290.167 175.5,295.5C 170.167,295.5 164.833,295.5 159.5,295.5C 159.5,290.167 159.5,284.833 159.5,279.5 Z"/></g>
<g><path style="opacity:1" fill="#000000" d="M 191.5,279.5 C 196.833,279.5 202.167,279.5 207.5,279.5C 207.5,284.833 207.5,290.167 207.5,295.5C 202.167,295.5 196.833,295.5 191.5,295.5C 191.5,290.167 191.5,284.833 191.5,279.5 Z"/></g>
<g><path style="opacity:1" fill="#000000" d="M 255.5,279.5 C 260.833,279.5 266.167,279.5 271.5,279.5C 271.5,284.833 271.5,290.167 271.5,295.5C 266.167,295.5 260.833,295.5 255.5,295.5C 255.5,290.167 255.5,284.833 255.5,279.5 Z"/></g>
<g><path style="opacity:1" fill="#000000" d="M 295.5,279.5 C 300.833,279.5 306.167,279.5 311.5,279.5C 311.5,284.833 311.5,290.167 311.5,295.5C 306.167,295.5 300.833,295.5 295.5,295.5C 295.5,290.167 295.5,284.833 295.5,279.5 Z"/></g>
<g><path style="opacity:1" fill="#000000" d="M 335.5,279.5 C 340.833,279.5 346.167,279.5 351.5,279.5C 351.5,284.833 351.5,290.167 351.5,295.5C 346.167,295.5 340.833,295.5 335.5,295.5C 335.5,290.167 335.5,284.833 335.5,279.5 Z"/></g>
<g><path style="opacity:1" fill="#000000" d="M 255.5,311.5 C 260.833,311.5 266.167,311.5 271.5,311.5C 271.5,316.833 271.5,322.167 271.5,327.5C 266.167,327.5 260.833,327.5 255.5,327.5C 255.5,322.167 255.5,316.833 255.5,311.5 Z"/></g>
<g><path style="opacity:1" fill="#000000" d="M 295.5,311.5 C 300.833,311.5 306.167,311.5 311.5,311.5C 311.5,316.833 311.5,322.167 311.5,327.5C 306.167,327.5 300.833,327.5 295.5,327.5C 295.5,322.167 295.5,316.833 295.5,311.5 Z"/></g>
<g><path style="opacity:1" fill="#000000" d="M 335.5,311.5 C 340.833,311.5 346.167,311.5 351.5,311.5C 351.5,316.833 351.5,322.167 351.5,327.5C 346.167,327.5 340.833,327.5 335.5,327.5C 335.5,322.167 335.5,316.833 335.5,311.5 Z"/></g>
<g><path style="opacity:1" fill="#000000" d="M 159.5,319.5 C 164.833,319.5 170.167,319.5 175.5,319.5C 175.5,324.833 175.5,330.167 175.5,335.5C 170.167,335.5 164.833,335.5 159.5,335.5C 159.5,330.167 159.5,324.833 159.5,319.5 Z"/></g>
<g><path style="opacity:1" fill="#000000" d="M 191.5,319.5 C 196.833,319.5 202.167,319.5 207.5,319.5C 207.5,324.833 207.5,330.167 207.5,335.5C 202.167,335.5 196.833,335.5 191.5,335.5C 191.5,330.167 191.5,324.833 191.5,319.5 Z"/></g>
<g><path style="opacity:1" fill="#000000" d="M 255.5,343.5 C 260.833,343.5 266.167,343.5 271.5,343.5C 271.5,348.833 271.5,354.167 271.5,359.5C 266.167,359.5 260.833,359.5 255.5,359.5C 255.5,354.167 255.5,348.833 255.5,343.5 Z"/></g>
<g><path style="opacity:1" fill="#000000" d="M 295.5,343.5 C 300.833,343.5 306.167,343.5 311.5,343.5C 311.5,348.833 311.5,354.167 311.5,359.5C 306.167,359.5 300.833,359.5 295.5,359.5C 295.5,354.167 295.5,348.833 295.5,343.5 Z"/></g>
<g><path style="opacity:1" fill="#000000" d="M 335.5,343.5 C 340.833,343.5 346.167,343.5 351.5,343.5C 351.5,348.833 351.5,354.167 351.5,359.5C 346.167,359.5 340.833,359.5 335.5,359.5C 335.5,354.167 335.5,348.833 335.5,343.5 Z"/></g>
<g><path style="opacity:1" fill="#000000" d="M 159.5,359.5 C 164.833,359.5 170.167,359.5 175.5,359.5C 175.5,364.833 175.5,370.167 175.5,375.5C 170.167,375.5 164.833,375.5 159.5,375.5C 159.5,370.167 159.5,364.833 159.5,359.5 Z"/></g>
<g><path style="opacity:1" fill="#000000" d="M 191.5,359.5 C 196.833,359.5 202.167,359.5 207.5,359.5C 207.5,364.833 207.5,370.167 207.5,375.5C 202.167,375.5 196.833,375.5 191.5,375.5C 191.5,370.167 191.5,364.833 191.5,359.5 Z"/></g>
<g><path style="opacity:1" fill="#000000" d="M 255.5,375.5 C 260.833,375.5 266.167,375.5 271.5,375.5C 271.5,380.833 271.5,386.167 271.5,391.5C 266.167,391.5 260.833,391.5 255.5,391.5C 255.5,386.167 255.5,380.833 255.5,375.5 Z"/></g>
<g><path style="opacity:1" fill="#000000" d="M 295.5,375.5 C 300.833,375.5 306.167,375.5 311.5,375.5C 311.5,380.833 311.5,386.167 311.5,391.5C 306.167,391.5 300.833,391.5 295.5,391.5C 295.5,386.167 295.5,380.833 295.5,375.5 Z"/></g>
<g><path style="opacity:1" fill="#000000" d="M 335.5,375.5 C 340.833,375.5 346.167,375.5 351.5,375.5C 351.5,380.833 351.5,386.167 351.5,391.5C 346.167,391.5 340.833,391.5 335.5,391.5C 335.5,386.167 335.5,380.833 335.5,375.5 Z"/></g>
<g><path style="opacity:1" fill="#000000" d="M 159.5,399.5 C 164.833,399.5 170.167,399.5 175.5,399.5C 175.5,404.833 175.5,410.167 175.5,415.5C 170.167,415.5 164.833,415.5 159.5,415.5C 159.5,410.167 159.5,404.833 159.5,399.5 Z"/></g>
<g><path style="opacity:1" fill="#000000" d="M 191.5,399.5 C 196.833,399.5 202.167,399.5 207.5,399.5C 207.5,404.833 207.5,410.167 207.5,415.5C 202.167,415.5 196.833,415.5 191.5,415.5C 191.5,410.167 191.5,404.833 191.5,399.5 Z"/></g>
<g><path style="opacity:1" fill="#000000" d="M 255.5,407.5 C 287.5,407.5 319.5,407.5 351.5,407.5C 351.5,412.833 351.5,418.167 351.5,423.5C 319.5,423.5 287.5,423.5 255.5,423.5C 255.5,418.167 255.5,412.833 255.5,407.5 Z"/></g>
</svg>
