<?xml version="1.0" encoding="UTF-8"?>
<!DOCTYPE svg PUBLIC "-//W3C//DTD SVG 1.1//EN" "http://www.w3.org/Graphics/SVG/1.1/DTD/svg11.dtd">
<svg xmlns="http://www.w3.org/2000/svg" version="1.1" width="512px" height="512px" style="shape-rendering:geometricPrecision; text-rendering:geometricPrecision; image-rendering:optimizeQuality; fill-rule:evenodd; clip-rule:evenodd" xmlns:xlink="http://www.w3.org/1999/xlink">
<g><path style="opacity:0.982" fill="#313131" d="M 251.5,15.5 C 254.187,15.3359 256.854,15.5026 259.5,16C 261.333,16.5 262.5,17.6667 263,19.5C 263.667,32.8333 263.667,46.1667 263,59.5C 262.5,61.3333 261.333,62.5 259.5,63C 256.833,63.6667 254.167,63.6667 251.5,63C 249.667,62.5 248.5,61.3333 248,59.5C 247.333,46.1667 247.333,32.8333 248,19.5C 248.69,17.6498 249.856,16.3164 251.5,15.5 Z"/></g>
<g><path style="opacity:0.956" fill="#313131" d="M 192.5,20.5 C 195.518,20.3354 198.518,20.502 201.5,21C 203.049,22.214 204.215,23.714 205,25.5C 208.202,35.4402 211.202,45.4402 214,55.5C 215.5,64.6667 211.667,68.5 202.5,67C 201.069,66.5348 199.903,65.7014 199,64.5C 194.991,52.6416 191.491,40.6416 188.5,28.5C 188.782,25.2691 190.115,22.6024 192.5,20.5 Z"/></g>
<g><path style="opacity:0.951" fill="#313131" d="M 309.5,20.5 C 318.606,18.7794 322.773,22.4461 322,31.5C 318.869,42.5601 315.536,53.5601 312,64.5C 306.643,68.7867 301.643,68.4534 297,63.5C 296.333,60.8333 296.333,58.1667 297,55.5C 299.798,45.4402 302.798,35.4402 306,25.5C 306.997,23.6769 308.164,22.0103 309.5,20.5 Z"/></g>
<g><path style="opacity:0.949" fill="#313131" d="M 135.5,35.5 C 138.265,35.7976 140.765,36.7976 143,38.5C 148.921,48.673 154.587,59.0063 160,69.5C 161.377,77.7899 157.877,81.6233 149.5,81C 147.998,80.4169 146.665,79.5836 145.5,78.5C 139.746,68.6605 134.246,58.6605 129,48.5C 126.998,41.8348 129.165,37.5015 135.5,35.5 Z"/></g>
<g><path style="opacity:0.951" fill="#313131" d="M 373.5,35.5 C 381.318,36.4539 384.152,40.7873 382,48.5C 376.754,58.6605 371.254,68.6605 365.5,78.5C 359.953,82.8229 355.119,82.1562 351,76.5C 350.333,74.1667 350.333,71.8333 351,69.5C 356.453,58.7583 362.286,48.2583 368.5,38C 370.315,37.2432 371.981,36.4098 373.5,35.5 Z"/></g>
<g><path style="opacity:0.953" fill="#313131" d="M 72.5,64.5 C 75.3903,64.278 78.057,64.9447 80.5,66.5C 87.8537,74.686 95.0204,83.0193 102,91.5C 105.433,96.1333 105.267,100.633 101.5,105C 97.8333,107 94.1667,107 90.5,105C 83,96.1667 75.5,87.3333 68,78.5C 65.2389,72.3753 66.7389,67.7086 72.5,64.5 Z"/></g>
<g><path style="opacity:0.957" fill="#313131" d="M 433.5,64.5 C 443.36,64.5431 446.527,69.2098 443,78.5C 435.5,87.3333 428,96.1667 420.5,105C 408.066,107.897 404.233,103.397 409,91.5C 416.72,81.9539 424.887,72.9539 433.5,64.5 Z"/></g>
<g><path style="opacity:0.994" fill="#323232" d="M 364.5,117.5 C 411.632,138.29 451.965,168.29 485.5,207.5C 488.469,210.642 491.302,213.975 494,217.5C 496,221.5 496,225.5 494,229.5C 491.302,233.025 488.469,236.358 485.5,239.5C 453.255,277.129 414.588,306.295 369.5,327C 365.279,327.947 362.279,326.447 360.5,322.5C 358.919,318.906 359.586,315.739 362.5,313C 396.881,297.423 427.214,276.256 453.5,249.5C 462.1,241.614 469.767,232.947 476.5,223.5C 465.25,208.248 452.25,194.582 437.5,182.5C 408.746,156.45 375.746,137.616 338.5,126C 346.1,133.095 353.1,140.595 359.5,148.5C 362.907,153.641 366.074,158.974 369,164.5C 370.118,168.923 368.951,172.59 365.5,175.5C 362.351,175.789 359.351,175.289 356.5,174C 334.556,133.436 300.389,112.603 254,111.5C 226.965,111.782 203.465,120.782 183.5,138.5C 162.747,155.645 149.914,177.645 145,204.5C 139.508,249.719 154.508,286.385 190,314.5C 191.425,321.385 191.925,328.385 191.5,335.5C 202.167,335.5 212.833,335.5 223.5,335.5C 223.667,316.497 223.5,297.497 223,278.5C 195.493,259.485 186.327,233.818 195.5,201.5C 208.218,171.631 230.884,157.797 263.5,160C 268.543,161.178 273.543,162.511 278.5,164C 280.35,164.69 281.684,165.856 282.5,167.5C 282.789,170.649 282.289,173.649 281,176.5C 269.252,184.996 268.418,194.496 278.5,205C 289.126,209.592 297.46,206.925 303.5,197C 306.146,196.503 308.813,196.336 311.5,196.5C 313.696,197.854 315.196,199.854 316,202.5C 324.431,234.555 315.097,259.888 288,278.5C 287.501,283.489 287.334,288.489 287.5,293.5C 287.5,307.5 287.5,321.5 287.5,335.5C 298.167,335.5 308.833,335.5 319.5,335.5C 319.334,329.158 319.5,322.825 320,316.5C 324.675,311.658 329.509,306.991 334.5,302.5C 359.551,276.708 370.384,245.708 367,209.5C 366.484,205.434 365.65,201.434 364.5,197.5C 365.401,193.942 367.401,191.275 370.5,189.5C 374.622,189.476 377.788,191.143 380,194.5C 386.625,226.628 382.458,257.295 367.5,286.5C 359.416,300.43 348.916,312.43 336,322.5C 335.502,325.482 335.335,328.482 335.5,331.5C 335.5,332.833 335.5,334.167 335.5,335.5C 337.833,335.5 340.167,335.5 342.5,335.5C 360.376,344.471 364.376,357.805 354.5,375.5C 360.548,385.183 361.048,395.183 356,405.5C 350.915,412.459 344.082,415.793 335.5,415.5C 334.558,450.573 318.224,475.407 286.5,490C 247.186,503.111 214.686,493.611 189,461.5C 179.743,447.562 175.243,432.228 175.5,415.5C 169.071,415.346 166.404,412.013 167.5,405.5C 168.277,402.888 169.944,401.055 172.5,400C 227.5,399.667 282.5,399.333 337.5,399C 341.513,398.15 343.513,395.65 343.5,391.5C 343.518,387.363 341.518,384.863 337.5,384C 286.834,383.5 236.168,383.333 185.5,383.5C 177.549,384.195 169.882,383.195 162.5,380.5C 150.802,370.965 148.302,359.298 155,345.5C 158.579,340.731 163.079,337.397 168.5,335.5C 170.833,335.5 173.167,335.5 175.5,335.5C 175.5,334.167 175.5,332.833 175.5,331.5C 175.665,328.482 175.498,325.482 175,322.5C 148.845,301.189 133.345,273.856 128.5,240.5C 125.107,213.802 129.441,188.468 141.5,164.5C 150.371,149.252 161.037,135.918 173.5,124.5C 150.782,131.898 129.449,142.065 109.5,155C 106.833,155.667 104.167,155.667 101.5,155C 100.058,154.623 99.0577,153.79 98.5,152.5C 96.5168,147.874 97.5168,144.04 101.5,141C 114.94,132.95 128.606,125.45 142.5,118.5C 204.597,92.5355 268.264,88.3688 333.5,106C 344.202,109.174 354.536,113.008 364.5,117.5 Z"/></g>
<g><path style="opacity:0.95" fill="#313131" d="M 485.5,108.5 C 494.705,108.206 498.205,112.54 496,121.5C 487.112,129.689 477.946,137.522 468.5,145C 457.435,147.6 453.602,143.433 457,132.5C 466.398,124.26 475.898,116.26 485.5,108.5 Z"/></g>
<g><path style="opacity:0.951" fill="#313131" d="M 21.5,110.5 C 24.3113,110.826 26.978,111.659 29.5,113C 37.7578,119.38 45.9245,125.88 54,132.5C 57.3426,143.487 53.5093,147.654 42.5,145C 34,138.5 25.5,132 17,125.5C 13.1843,118.786 14.6843,113.786 21.5,110.5 Z"/></g>
<g><path style="opacity:1" fill="#f7df0a" d="M 365.5,175.5 C 367.563,180.022 369.23,184.688 370.5,189.5C 367.401,191.275 365.401,193.942 364.5,197.5C 365.65,201.434 366.484,205.434 367,209.5C 370.384,245.708 359.551,276.708 334.5,302.5C 318.26,302.405 302.593,299.405 287.5,293.5C 287.334,288.489 287.501,283.489 288,278.5C 315.097,259.888 324.431,234.555 316,202.5C 315.196,199.854 313.696,197.854 311.5,196.5C 311.5,177.167 301.833,167.5 282.5,167.5C 281.684,165.856 280.35,164.69 278.5,164C 273.543,162.511 268.543,161.178 263.5,160C 230.884,157.797 208.218,171.631 195.5,201.5C 194.883,201.389 194.383,201.056 194,200.5C 186.583,180.495 183.083,159.828 183.5,138.5C 203.465,120.782 226.965,111.782 254,111.5C 300.389,112.603 334.556,133.436 356.5,174C 359.351,175.289 362.351,175.789 365.5,175.5 Z"/></g>
<g><path style="opacity:0.97" fill="#a8def5" d="M 364.5,117.5 C 400.012,125.923 431.679,141.756 459.5,165C 472.541,176.53 481.208,190.697 485.5,207.5C 451.965,168.29 411.632,138.29 364.5,117.5 Z"/></g>
<g><path style="opacity:0.977" fill="#a8def6" d="M 142.5,118.5 C 128.606,125.45 114.94,132.95 101.5,141C 97.5168,144.04 96.5168,147.874 98.5,152.5C 94.8333,155.167 91.1667,157.833 87.5,160.5C 83.2976,156.799 78.9642,156.632 74.5,160C 67.0203,166.903 59.3537,173.569 51.5,180C 42.9668,189.365 34.3001,198.531 25.5,207.5C 29.1951,193.445 36.0284,181.111 46,170.5C 73.5688,144.96 105.735,127.627 142.5,118.5 Z"/></g>
<g><path style="opacity:1" fill="#57b6e9" d="M 141.5,164.5 C 118.637,173.929 97.637,186.429 78.5,202C 93.7972,217.38 110.297,231.213 128,243.5C 128.483,242.552 128.649,241.552 128.5,240.5C 133.345,273.856 148.845,301.189 175,322.5C 175.498,325.482 175.665,328.482 175.5,331.5C 167.185,329.285 159.185,326.285 151.5,322.5C 152.029,318.808 151.029,315.642 148.5,313C 103.745,292.866 65.9116,263.699 35,225.5C 34.3333,224.167 34.3333,222.833 35,221.5C 51.0348,202.465 68.7015,185.131 88,169.5C 88.7358,166.408 88.5691,163.408 87.5,160.5C 91.1667,157.833 94.8333,155.167 98.5,152.5C 99.0577,153.79 100.058,154.623 101.5,155C 104.167,155.667 106.833,155.667 109.5,155C 129.449,142.065 150.782,131.898 173.5,124.5C 161.037,135.918 150.371,149.252 141.5,164.5 Z"/></g>
<g><path style="opacity:1" fill="#57b4e6" d="M 437.5,182.5 C 412.994,167.918 386.994,156.585 359.5,148.5C 353.1,140.595 346.1,133.095 338.5,126C 375.746,137.616 408.746,156.45 437.5,182.5 Z"/></g>
<g><path style="opacity:1" fill="#fabb04" d="M 183.5,138.5 C 183.083,159.828 186.583,180.495 194,200.5C 194.383,201.056 194.883,201.389 195.5,201.5C 186.327,233.818 195.493,259.485 223,278.5C 223.5,297.497 223.667,316.497 223.5,335.5C 212.833,335.5 202.167,335.5 191.5,335.5C 191.925,328.385 191.425,321.385 190,314.5C 154.508,286.385 139.508,249.719 145,204.5C 149.914,177.645 162.747,155.645 183.5,138.5 Z"/></g>
<g><path style="opacity:1" fill="#a9e0f8" d="M 359.5,148.5 C 386.994,156.585 412.994,167.918 437.5,182.5C 452.25,194.582 465.25,208.248 476.5,223.5C 469.767,232.947 462.1,241.614 453.5,249.5C 426.527,265.65 397.861,277.983 367.5,286.5C 382.458,257.295 386.625,226.628 380,194.5C 377.788,191.143 374.622,189.476 370.5,189.5C 369.23,184.688 367.563,180.022 365.5,175.5C 368.951,172.59 370.118,168.923 369,164.5C 366.074,158.974 362.907,153.641 359.5,148.5 Z"/></g>
<g><path style="opacity:0.997" fill="#333334" d="M 87.5,160.5 C 88.5691,163.408 88.7358,166.408 88,169.5C 68.7015,185.131 51.0348,202.465 35,221.5C 34.3333,222.833 34.3333,224.167 35,225.5C 65.9116,263.699 103.745,292.866 148.5,313C 151.029,315.642 152.029,318.808 151.5,322.5C 148.759,326.202 145.093,327.702 140.5,327C 95.8718,306.029 57.5385,276.862 25.5,239.5C 22.5314,236.358 19.698,233.025 17,229.5C 15,225.5 15,221.5 17,217.5C 19.698,213.975 22.5314,210.642 25.5,207.5C 34.3001,198.531 42.9668,189.365 51.5,180C 59.3537,173.569 67.0203,166.903 74.5,160C 78.9642,156.632 83.2976,156.799 87.5,160.5 Z"/></g>
<g><path style="opacity:1" fill="#a9e0f8" d="M 141.5,164.5 C 129.441,188.468 125.107,213.802 128.5,240.5C 128.649,241.552 128.483,242.552 128,243.5C 110.297,231.213 93.7972,217.38 78.5,202C 97.637,186.429 118.637,173.929 141.5,164.5 Z"/></g>
<g><path style="opacity:1" fill="#a9dff5" d="M 282.5,167.5 C 301.833,167.5 311.5,177.167 311.5,196.5C 308.813,196.336 306.146,196.503 303.5,197C 297.46,206.925 289.126,209.592 278.5,205C 268.418,194.496 269.252,184.996 281,176.5C 282.289,173.649 282.789,170.649 282.5,167.5 Z"/></g>
<g><path style="opacity:1" fill="#56b6e9" d="M 271.5,277.5 C 267.454,277.952 263.454,278.619 259.5,279.5C 259.167,279.5 258.833,279.5 258.5,279.5C 238.833,265.833 222.167,249.167 208.5,229.5C 206.377,204.924 216.71,187.757 239.5,178C 246.024,175.537 252.691,175.037 259.5,176.5C 252.381,192.856 255.714,206.689 269.5,218C 280.192,224.805 291.192,225.305 302.5,219.5C 304.098,236.812 298.098,250.979 284.5,262C 279.9,264.215 275.734,267.048 272,270.5C 271.503,272.81 271.337,275.143 271.5,277.5 Z"/></g>
<g><path style="opacity:1" fill="#4990cf" d="M 208.5,229.5 C 222.167,249.167 238.833,265.833 258.5,279.5C 252.032,279.849 245.699,279.183 239.5,277.5C 239.752,274.68 239.252,272.014 238,269.5C 223.633,262.136 213.966,250.803 209,235.5C 208.505,233.527 208.338,231.527 208.5,229.5 Z"/></g>
<g><path style="opacity:0.972" fill="#a8def6" d="M 25.5,239.5 C 57.5385,276.862 95.8718,306.029 140.5,327C 145.093,327.702 148.759,326.202 151.5,322.5C 159.185,326.285 167.185,329.285 175.5,331.5C 175.5,332.833 175.5,334.167 175.5,335.5C 173.167,335.5 170.833,335.5 168.5,335.5C 130.469,328.146 95.4688,313.646 63.5,292C 49.8378,281.338 38.6712,268.505 30,253.5C 27.9873,248.963 26.4873,244.296 25.5,239.5 Z"/></g>
<g><path style="opacity:0.968" fill="#a8def6" d="M 485.5,239.5 C 481.805,253.555 474.972,265.889 465,276.5C 440.261,299.797 411.428,316.297 378.5,326C 366.563,329.484 354.563,332.651 342.5,335.5C 340.167,335.5 337.833,335.5 335.5,335.5C 335.5,334.167 335.5,332.833 335.5,331.5C 343.91,328.697 352.243,325.697 360.5,322.5C 362.279,326.447 365.279,327.947 369.5,327C 414.588,306.295 453.255,277.129 485.5,239.5 Z"/></g>
<g><path style="opacity:1" fill="#57b5e8" d="M 453.5,249.5 C 427.214,276.256 396.881,297.423 362.5,313C 359.586,315.739 358.919,318.906 360.5,322.5C 352.243,325.697 343.91,328.697 335.5,331.5C 335.335,328.482 335.502,325.482 336,322.5C 348.916,312.43 359.416,300.43 367.5,286.5C 397.861,277.983 426.527,265.65 453.5,249.5 Z"/></g>
<g><path style="opacity:1" fill="#fbbc04" d="M 239.5,277.5 C 245.699,279.183 252.032,279.849 258.5,279.5C 258.833,279.5 259.167,279.5 259.5,279.5C 263.465,281.818 267.465,284.152 271.5,286.5C 271.5,302.833 271.5,319.167 271.5,335.5C 260.833,335.5 250.167,335.5 239.5,335.5C 239.5,316.167 239.5,296.833 239.5,277.5 Z"/></g>
<g><path style="opacity:1" fill="#f4de1a" d="M 271.5,277.5 C 271.5,280.5 271.5,283.5 271.5,286.5C 267.465,284.152 263.465,281.818 259.5,279.5C 263.454,278.619 267.454,277.952 271.5,277.5 Z"/></g>
<g><path style="opacity:0.952" fill="#323232" d="M 43.5,289.5 C 54.0631,288.895 57.5631,293.561 54,303.5C 45.5,310 37,316.5 28.5,323C 17.5831,326.415 13.4164,322.582 16,311.5C 25.1451,304.027 34.3117,296.694 43.5,289.5 Z"/></g>
<g><path style="opacity:0.958" fill="#313131" d="M 459.5,289.5 C 462.978,289.184 466.312,289.684 469.5,291C 478.682,298.519 487.515,306.353 496,314.5C 497.536,325.497 493.036,328.997 482.5,325C 473.318,317.481 464.485,309.647 456,301.5C 454.593,296.643 455.76,292.643 459.5,289.5 Z"/></g>
<g><path style="opacity:1" fill="#fbbb04" d="M 287.5,293.5 C 302.593,299.405 318.26,302.405 334.5,302.5C 329.509,306.991 324.675,311.658 320,316.5C 319.5,322.825 319.334,329.158 319.5,335.5C 308.833,335.5 298.167,335.5 287.5,335.5C 287.5,321.5 287.5,307.5 287.5,293.5 Z"/></g>
<g><path style="opacity:0.947" fill="#323232" d="M 91.5,329.5 C 102.001,328.161 105.835,332.494 103,342.5C 95.1667,351.667 87.3333,360.833 79.5,370C 68.9919,371.828 65.1586,367.662 68,357.5C 76.0444,348.294 83.8777,338.96 91.5,329.5 Z"/></g>
<g><path style="opacity:0.943" fill="#313131" d="M 410.5,329.5 C 413.518,329.335 416.518,329.502 419.5,330C 426.784,338.073 433.951,346.24 441,354.5C 445.822,359.885 445.655,365.052 440.5,370C 437.5,370.667 434.5,370.667 431.5,370C 423.667,360.833 415.833,351.667 408,342.5C 405.606,337.527 406.44,333.194 410.5,329.5 Z"/></g>
<g><path style="opacity:1" fill="#929899" d="M 185.5,351.5 C 187.725,354.889 190.725,357.389 194.5,359C 244.166,359.5 293.832,359.667 343.5,359.5C 343.513,363.65 341.513,366.15 337.5,367C 282.5,367.667 227.5,367.667 172.5,367C 167.465,363.987 166.298,359.82 169,354.5C 169.903,353.299 171.069,352.465 172.5,352C 176.821,351.501 181.154,351.334 185.5,351.5 Z"/></g>
<g><path style="opacity:1" fill="#cfd7d9" d="M 185.5,351.5 C 236.168,351.333 286.834,351.5 337.5,352C 341.518,352.863 343.518,355.363 343.5,359.5C 293.832,359.667 244.166,359.5 194.5,359C 190.725,357.389 187.725,354.889 185.5,351.5 Z"/></g>
<g><path style="opacity:1" fill="#93999a" d="M 162.5,380.5 C 169.882,383.195 177.549,384.195 185.5,383.5C 187.725,386.889 190.725,389.389 194.5,391C 244.166,391.5 293.832,391.667 343.5,391.5C 343.513,395.65 341.513,398.15 337.5,399C 282.5,399.333 227.5,399.667 172.5,400C 169.944,401.055 168.277,402.888 167.5,405.5C 163.847,404.011 161.347,401.344 160,397.5C 158.804,391.461 159.638,385.795 162.5,380.5 Z"/></g>
<g><path style="opacity:1" fill="#cfd7d9" d="M 185.5,383.5 C 236.168,383.333 286.834,383.5 337.5,384C 341.518,384.863 343.518,387.363 343.5,391.5C 293.832,391.667 244.166,391.5 194.5,391C 190.725,389.389 187.725,386.889 185.5,383.5 Z"/></g>
<g><path style="opacity:1" fill="#646a75" d="M 314.5,439.5 C 299.83,439.333 285.163,439.5 270.5,440C 251.423,444.912 239.09,456.746 233.5,475.5C 206.694,464.58 192.694,444.58 191.5,415.5C 234.167,415.5 276.833,415.5 319.5,415.5C 319.618,423.925 317.951,431.925 314.5,439.5 Z"/></g>
<g><path style="opacity:1" fill="#929899" d="M 314.5,439.5 C 300.914,468.639 277.914,481.805 245.5,479C 241.324,478.329 237.324,477.162 233.5,475.5C 239.09,456.746 251.423,444.912 270.5,440C 285.163,439.5 299.83,439.333 314.5,439.5 Z"/></g>
</svg>
